<svg width="150" height="52" viewBox="0 0 150 52" fill="none" xmlns="http://www.w3.org/2000/svg">
<path d="M0 5.39404V51.7577H24.8276L0 5.39404Z" fill="#343EB8"/>
<path d="M47.5862 21.61C47.5862 9.86293 37.9203 0.335294 25.9574 0.247075V0.242432H18.9246H18.863H0L27.8139 51.7576H46.7385L39.4499 38.2555C44.4084 34.3413 47.5862 28.3425 47.5862 21.61Z" fill="#FF3939"/>
<path d="M74.9002 50.5423H70.3447V28.5815H78.8159C80.3877 28.5815 82.0917 28.9308 83.5313 30.3209C85.0058 31.7452 85.3605 33.6352 85.3605 35.0321C85.3605 37.7781 83.9834 39.5174 82.662 40.3734C81.8274 40.9075 81.0901 41.065 80.3807 41.0992C80.6033 41.2225 80.8328 41.4142 81.3127 42.0168C81.7926 42.6194 82.662 43.7835 86.675 50.5491H81.3823C80.805 49.6658 80.7424 49.4398 80.3529 48.7824C80.0608 48.2483 80.033 48.2757 79.2958 46.9472C77.5014 43.6945 76.8546 42.6811 76.3399 42.1469C76.1452 41.9552 75.9226 41.7361 75.6027 41.5786C75.2827 41.4211 75.0254 41.3868 74.9002 41.3868V50.5423ZM76.4095 38.0588C77.6613 38.0588 78.9758 38.0246 79.7756 37.333C80.2277 36.9221 80.645 36.1962 80.645 35.1211C80.645 34.2994 80.4503 32.9709 79.0384 32.4368C78.2386 32.1492 77.244 32.1218 76.5068 32.1218H74.9002V38.0657H76.4095V38.0588Z" fill="#FF3939"/>
<path d="M92.6143 43.7835V44.1327C92.6143 45.3037 93.0316 46.3103 93.6715 46.9129C94.4087 47.6114 95.3406 47.7689 96.1405 47.7689C96.7803 47.7689 98.3869 47.673 100.251 46.1597L101.92 48.6865C99.8335 50.3916 97.5245 50.9325 95.7232 50.9325C93.4767 50.9325 91.5224 50.145 90.1731 48.7823C88.956 47.5155 87.9614 45.557 87.9614 42.4345C87.9614 39.3667 88.796 37.5657 90.0131 36.2099C91.6197 34.4432 93.3793 33.998 95.1807 33.998C97.3924 33.998 98.9364 34.7581 99.9309 35.7374C101.955 37.7575 102.115 40.9828 102.115 42.818V43.7972H92.6143V43.7835ZM97.6497 40.4966C97.6497 39.6406 97.6149 38.6614 97.0376 37.9081C96.5578 37.3055 95.8831 37.0864 95.2433 37.0864C94.4713 37.0864 93.8662 37.374 93.4489 37.8739C92.7743 38.6614 92.6769 39.8323 92.6769 40.6198V40.6815H97.6497V40.4966Z" fill="#FF3939"/>
<path d="M115.976 50.5421H103.875V47.9194L111.609 37.3328H104.515V34.3608H116.707V37.2643L109.453 47.5975H116.992L115.976 50.5421Z" fill="#343EB8"/>
<path d="M131.701 36.2918C133.405 38.1886 133.725 40.3388 133.725 42.4548C133.725 44.5707 133.405 46.7209 131.701 48.6178C130.13 50.3571 128.238 50.9255 126.249 50.9255C124.26 50.9255 122.368 50.3571 120.796 48.6178C119.092 46.7209 118.772 44.5707 118.772 42.4548C118.772 40.3388 119.092 38.1886 120.796 36.2918C122.368 34.5525 124.26 33.9841 126.249 33.9841C128.238 33.9841 130.13 34.5525 131.701 36.2918ZM124.385 37.9695C123.71 38.8529 123.515 40.3388 123.515 42.4548C123.515 44.5707 123.71 46.0567 124.385 46.9401C124.962 47.7276 125.734 47.8234 126.249 47.8234C126.763 47.8234 127.535 47.7276 128.113 46.9401C128.787 46.0567 128.982 44.5707 128.982 42.4548C128.982 40.3388 128.787 38.8529 128.113 37.9695C127.535 37.182 126.763 37.0862 126.249 37.0862C125.734 37.0793 124.962 37.1752 124.385 37.9695Z" fill="#343EB8"/>
<path d="M145.757 50.542V40.0171C145.757 39.0721 145.723 38.4078 145.375 38.0244C145.09 37.7094 144.735 37.6477 144.443 37.6477C143.991 37.6477 143.448 37.7436 142.836 38.0586C142.356 38.312 141.779 38.7228 141.327 39.0995V50.5352H137.091V38.8187C137.091 37.9011 137.057 36.6411 136.514 35.025L140.27 33.95C140.562 34.3951 140.847 35.0251 140.882 35.97L141.424 35.5934C141.716 35.4017 141.939 35.1483 142.711 34.7374C143.031 34.5457 144.22 33.9773 145.729 33.9773C147.851 33.9773 149.165 35.1141 149.68 36.4083C150 37.23 150 38.1134 150 38.716V50.5352H145.757V50.542Z" fill="#343EB8"/>
<path d="M74.3508 10.0998C74.3508 10.1409 74.3369 10.1751 74.3091 10.1956C74.2812 10.2162 74.2395 10.2299 74.1908 10.2436C74.1421 10.2573 74.0656 10.2573 73.9683 10.2573C73.8709 10.2573 73.8013 10.2504 73.7457 10.2436C73.6901 10.2299 73.6483 10.2162 73.6205 10.1956C73.5927 10.1751 73.5857 10.1409 73.5857 10.0998V9.62044C73.3701 9.84641 73.1337 10.0176 72.8694 10.1409C72.6051 10.2641 72.3269 10.3258 72.0348 10.3258C71.7775 10.3258 71.5479 10.2915 71.3393 10.2299C71.1306 10.1614 70.9568 10.0655 70.8107 9.94228C70.6647 9.81902 70.5534 9.66152 70.4699 9.48348C70.3865 9.30544 70.3447 9.09316 70.3447 8.86719C70.3447 8.59328 70.4004 8.36045 70.5116 8.16187C70.6229 7.96328 70.7829 7.79894 70.9915 7.66198C71.2002 7.53187 71.4575 7.42916 71.7635 7.36753C72.0696 7.29905 72.4104 7.27166 72.7859 7.27166H73.4606V6.89503C73.4606 6.71015 73.4397 6.5458 73.398 6.402C73.3562 6.25819 73.2936 6.14178 73.2032 6.04591C73.1128 5.95004 73.0015 5.88157 72.8555 5.83363C72.7164 5.7857 72.5425 5.75831 72.3339 5.75831C72.1113 5.75831 71.9166 5.7857 71.7427 5.83363C71.5688 5.88842 71.4158 5.9432 71.2837 6.00483C71.1515 6.06646 71.0402 6.12124 70.9498 6.17602C70.8594 6.2308 70.7968 6.25135 70.7551 6.25135C70.7273 6.25135 70.6994 6.2445 70.6786 6.2308C70.6577 6.21711 70.6368 6.19656 70.6229 6.16917C70.609 6.14178 70.5951 6.10754 70.5882 6.05961C70.5812 6.01852 70.5742 5.96374 70.5742 5.91581C70.5742 5.82679 70.5812 5.75831 70.5951 5.70353C70.609 5.64874 70.6368 5.60081 70.6855 5.55972C70.7342 5.51179 70.8177 5.45701 70.9359 5.39538C71.0541 5.33375 71.1932 5.27897 71.3462 5.22419C71.4993 5.1694 71.6731 5.12832 71.854 5.09408C72.0417 5.05984 72.2226 5.04614 72.4104 5.04614C72.7581 5.04614 73.0572 5.08723 73.3076 5.16256C73.551 5.23788 73.7527 5.35429 73.9057 5.50494C74.0587 5.65559 74.17 5.84733 74.2395 6.06646C74.3091 6.29243 74.3438 6.55265 74.3438 6.85395V10.0998H74.3508ZM73.4606 7.90165H72.6955C72.4521 7.90165 72.2365 7.9222 72.0557 7.96328C71.8748 8.00437 71.7218 8.066 71.6036 8.14817C71.4853 8.23035 71.3949 8.32621 71.3393 8.43578C71.2836 8.54534 71.2558 8.67545 71.2558 8.8261C71.2558 9.07262 71.3393 9.2712 71.4993 9.42185C71.6592 9.5725 71.8887 9.64098 72.1739 9.64098C72.4104 9.64098 72.626 9.57935 72.8277 9.46294C73.0294 9.34653 73.238 9.16849 73.4606 8.92197V7.90165Z" fill="#1A171B"/>
<path d="M78.9131 5.53925C78.9131 5.60772 78.9062 5.66936 78.8992 5.72414C78.8923 5.77207 78.8784 5.81316 78.8645 5.8474C78.8505 5.88164 78.8297 5.90218 78.8088 5.91587C78.788 5.92957 78.7671 5.93642 78.7323 5.93642H76.8962V10.093C76.8962 10.1204 76.8893 10.1478 76.8753 10.1683C76.8614 10.1889 76.8406 10.2026 76.8058 10.2163C76.771 10.23 76.7293 10.2437 76.6667 10.2505C76.6111 10.2573 76.5346 10.2642 76.4441 10.2642C76.3607 10.2642 76.2842 10.2573 76.2285 10.2505C76.1729 10.2437 76.1242 10.23 76.0894 10.2163C76.0547 10.2026 76.0338 10.182 76.0199 10.1683C76.006 10.1478 75.999 10.1272 75.999 10.093V5.46392C75.999 5.35436 76.0268 5.27903 76.0755 5.22425C76.1242 5.16947 76.1938 5.14893 76.2772 5.14893H78.7323C78.7601 5.14893 78.788 5.15577 78.8088 5.17632C78.8297 5.19001 78.8436 5.2174 78.8645 5.25164C78.8784 5.28588 78.8923 5.32697 78.8992 5.3749C78.9062 5.41599 78.9131 5.47077 78.9131 5.53925Z" fill="#1A171B"/>
<path d="M83.8929 7.47709C83.8929 7.61405 83.8581 7.71676 83.7886 7.77155C83.719 7.83317 83.6356 7.86057 83.5452 7.86057H80.332C80.332 8.12763 80.3598 8.3673 80.4154 8.57958C80.4711 8.79186 80.5615 8.97675 80.6867 9.1274C80.8119 9.27805 80.9788 9.40131 81.1805 9.47663C81.3822 9.55881 81.6326 9.59989 81.9247 9.59989C82.1542 9.59989 82.3628 9.57935 82.5437 9.54511C82.7245 9.51087 82.8844 9.46294 83.0166 9.42185C83.1487 9.37392 83.26 9.33283 83.3435 9.29859C83.4269 9.26435 83.4965 9.24381 83.5382 9.24381C83.566 9.24381 83.5869 9.25066 83.6078 9.26435C83.6286 9.27805 83.6425 9.29859 83.6564 9.31914C83.6704 9.34653 83.6773 9.38077 83.6843 9.42185C83.6912 9.46979 83.6912 9.51772 83.6912 9.5862C83.6912 9.63413 83.6912 9.67522 83.6843 9.70946C83.6773 9.7437 83.6773 9.77109 83.6704 9.79848C83.6634 9.82587 83.6564 9.84641 83.6425 9.8738C83.6286 9.89435 83.6147 9.91489 83.5938 9.93543C83.573 9.95598 83.5173 9.99022 83.42 10.0313C83.3226 10.0724 83.1974 10.1203 83.0375 10.1614C82.8844 10.2025 82.7036 10.2436 82.495 10.2778C82.2933 10.3121 82.0707 10.3258 81.8412 10.3258C81.4378 10.3258 81.0901 10.271 80.7841 10.1614C80.485 10.0518 80.2277 9.8875 80.019 9.66837C79.8104 9.44924 79.6574 9.18218 79.553 8.85349C79.4487 8.5248 79.3931 8.14817 79.3931 7.70992C79.3931 7.29905 79.4487 6.92243 79.553 6.59373C79.6643 6.26504 79.8173 5.98428 80.019 5.75831C80.2207 5.52549 80.4711 5.35429 80.7562 5.23103C81.0483 5.10777 81.3683 5.04614 81.7299 5.04614C82.1125 5.04614 82.4393 5.10777 82.7106 5.23103C82.9818 5.35429 83.2044 5.51179 83.3782 5.71722C83.5521 5.92265 83.6773 6.16233 83.7608 6.43624C83.8442 6.71015 83.886 7.0046 83.886 7.31959V7.47709H83.8929ZM82.9888 7.21688C83.0027 6.75123 82.8983 6.3883 82.6758 6.12809C82.4532 5.86787 82.1264 5.73092 81.6952 5.73092C81.4726 5.73092 81.2778 5.772 81.1109 5.85418C80.944 5.93635 80.8049 6.04591 80.6936 6.18287C80.5824 6.31982 80.4919 6.47732 80.4293 6.65536C80.3668 6.83341 80.332 7.02514 80.325 7.21688H82.9888Z" fill="#1A171B"/>
<path d="M89.5335 10.0931C89.5335 10.1205 89.5266 10.1478 89.5127 10.1684C89.4987 10.1889 89.4779 10.2026 89.4431 10.2163C89.4083 10.23 89.3666 10.2437 89.311 10.2506C89.2553 10.2574 89.1788 10.2643 89.0954 10.2643C89.005 10.2643 88.9284 10.2574 88.8728 10.2506C88.8172 10.2437 88.7685 10.23 88.7407 10.2163C88.7059 10.2026 88.685 10.1821 88.6711 10.1684C88.6572 10.1478 88.6503 10.1273 88.6503 10.0931V7.98395H86.1604V10.0931C86.1604 10.1205 86.1534 10.1478 86.1395 10.1684C86.1256 10.1889 86.1047 10.2026 86.07 10.2163C86.0352 10.23 85.9935 10.2437 85.9309 10.2506C85.8752 10.2574 85.7987 10.2643 85.7083 10.2643C85.6248 10.2643 85.5483 10.2574 85.4927 10.2506C85.4371 10.2437 85.3884 10.23 85.3536 10.2163C85.3188 10.2026 85.298 10.1821 85.284 10.1684C85.2701 10.1478 85.2632 10.1273 85.2632 10.0931V5.28594C85.2632 5.25855 85.2701 5.23116 85.284 5.21061C85.298 5.19007 85.3188 5.17637 85.3536 5.15583C85.3884 5.14214 85.4371 5.12844 85.4927 5.12159C85.5483 5.11474 85.6248 5.11475 85.7083 5.11475C85.7987 5.11475 85.8752 5.11474 85.9309 5.12159C85.9865 5.12844 86.0352 5.13529 86.07 5.15583C86.1047 5.16953 86.1256 5.19007 86.1395 5.21061C86.1534 5.23116 86.1604 5.2517 86.1604 5.28594V7.24439H88.6503V5.28594C88.6503 5.25855 88.6572 5.23116 88.6711 5.21061C88.685 5.19007 88.7059 5.17637 88.7407 5.15583C88.7754 5.14214 88.8172 5.12844 88.8728 5.12159C88.9284 5.11474 89.005 5.11475 89.0954 5.11475C89.1788 5.11475 89.2553 5.11474 89.311 5.12159C89.3666 5.12844 89.4153 5.13529 89.4431 5.15583C89.4779 5.16953 89.4987 5.19007 89.5127 5.21061C89.5266 5.23116 89.5335 5.2517 89.5335 5.28594V10.0931Z" fill="#1A171B"/>
<path d="M94.6105 5.54609C94.6105 5.61457 94.6035 5.6762 94.5966 5.73098C94.5896 5.77892 94.5757 5.82 94.5618 5.85424C94.5479 5.88848 94.527 5.90903 94.5062 5.92957C94.4853 5.94326 94.4575 5.95696 94.4227 5.95696H92.9552V10.0999C92.9552 10.1272 92.9482 10.1546 92.9343 10.1752C92.9204 10.1957 92.8996 10.2094 92.8648 10.2231C92.83 10.2368 92.7883 10.2505 92.7257 10.2574C92.67 10.2642 92.5935 10.271 92.5031 10.271C92.4197 10.271 92.3432 10.2642 92.2875 10.2574C92.2319 10.2505 92.1832 10.2368 92.1484 10.2231C92.1136 10.2094 92.0928 10.1889 92.0789 10.1752C92.065 10.1546 92.058 10.1341 92.058 10.0999V5.95696H90.5905C90.5627 5.95696 90.5349 5.95011 90.514 5.92957C90.4931 5.91587 90.4723 5.88848 90.4583 5.85424C90.4444 5.82 90.4305 5.77892 90.4236 5.73098C90.4166 5.6762 90.4097 5.62142 90.4097 5.54609C90.4097 5.48446 90.4166 5.42283 90.4236 5.3749C90.4305 5.32697 90.4444 5.28588 90.4583 5.25164C90.4723 5.2174 90.4931 5.19001 90.514 5.17632C90.5349 5.16262 90.5627 5.14893 90.5905 5.14893H94.4157C94.4436 5.14893 94.4714 5.15577 94.4922 5.17632C94.5131 5.19001 94.534 5.2174 94.5479 5.25164C94.5618 5.28588 94.5757 5.32697 94.5827 5.38175C94.6105 5.42284 94.6105 5.48446 94.6105 5.54609Z" fill="#1A171B"/>
<path d="M98.902 9.36022C98.902 9.42185 98.902 9.46979 98.895 9.51772C98.8881 9.56566 98.8881 9.5999 98.8742 9.62729C98.8672 9.65468 98.8533 9.68207 98.8394 9.70946C98.8255 9.73 98.7977 9.76424 98.7559 9.81217C98.7142 9.85326 98.6308 9.91489 98.5264 9.97652C98.4151 10.045 98.2969 10.0998 98.1578 10.1546C98.0257 10.2093 97.8727 10.2504 97.7127 10.2778C97.5527 10.3121 97.3858 10.3258 97.2189 10.3258C96.8711 10.3258 96.5582 10.271 96.2869 10.1546C96.0157 10.0381 95.7862 9.8738 95.6053 9.65468C95.4245 9.43555 95.2854 9.16849 95.188 8.84664C95.0907 8.5248 95.042 8.16187 95.042 7.74416C95.042 7.27166 95.0976 6.8608 95.2159 6.52526C95.3341 6.18287 95.4941 5.90896 95.6958 5.68983C95.8974 5.4707 96.1409 5.3132 96.4191 5.20364C96.6973 5.10092 96.9963 5.04614 97.3163 5.04614C97.4693 5.04614 97.6223 5.05984 97.7683 5.08723C97.9144 5.11462 98.0465 5.15571 98.1717 5.19679C98.2969 5.24473 98.4012 5.29951 98.4986 5.35429C98.596 5.41592 98.6655 5.46386 98.7073 5.51179C98.749 5.55288 98.7838 5.58712 98.7977 5.61451C98.8116 5.6419 98.8255 5.66929 98.8394 5.70353C98.8533 5.73776 98.8603 5.77885 98.8603 5.81994C98.8672 5.86103 98.8672 5.91581 98.8672 5.97744C98.8672 6.11439 98.8533 6.21026 98.8185 6.27189C98.7838 6.32667 98.749 6.35406 98.7003 6.35406C98.6447 6.35406 98.5821 6.32667 98.5125 6.26504C98.443 6.20341 98.3526 6.14178 98.2413 6.0733C98.13 6.00483 98.0048 5.93635 97.8448 5.88157C97.6918 5.81994 97.511 5.79255 97.3024 5.79255C96.8711 5.79255 96.5443 5.95689 96.3147 6.27874C96.0852 6.60743 95.967 7.07993 95.967 7.69622C95.967 8.00437 95.9948 8.27828 96.0574 8.5111C96.12 8.74393 96.2035 8.94251 96.3217 9.09316C96.4399 9.25066 96.579 9.36707 96.746 9.4424C96.9129 9.51772 97.1076 9.55881 97.3232 9.55881C97.5319 9.55881 97.7127 9.52457 97.8657 9.46294C98.0187 9.40131 98.1578 9.32598 98.2691 9.25066C98.3804 9.17533 98.4777 9.10686 98.5542 9.04523C98.6307 8.9836 98.6934 8.94936 98.7351 8.94936C98.7629 8.94936 98.7838 8.95621 98.7977 8.9699C98.8185 8.9836 98.8324 9.01099 98.8464 9.04523C98.8603 9.07946 98.8672 9.12055 98.8742 9.17533C98.902 9.23012 98.902 9.29174 98.902 9.36022Z" fill="#1A171B"/>
<path d="M103.513 5.54609C103.513 5.61457 103.506 5.6762 103.499 5.73098C103.492 5.77892 103.479 5.82 103.465 5.85424C103.451 5.88848 103.43 5.90903 103.409 5.92957C103.388 5.95011 103.36 5.95696 103.325 5.95696H101.858V10.0999C101.858 10.1272 101.851 10.1546 101.837 10.1752C101.823 10.1957 101.802 10.2094 101.768 10.2231C101.733 10.2368 101.691 10.2505 101.628 10.2574C101.573 10.2642 101.496 10.271 101.406 10.271C101.322 10.271 101.246 10.2642 101.19 10.2574C101.135 10.2505 101.086 10.2368 101.051 10.2231C101.016 10.2094 100.996 10.1889 100.982 10.1752C100.968 10.1546 100.961 10.1341 100.961 10.0999V5.95696H99.4933C99.4655 5.95696 99.4377 5.95011 99.4168 5.92957C99.396 5.91587 99.3751 5.88848 99.3612 5.85424C99.3473 5.82 99.3334 5.77892 99.3264 5.73098C99.3194 5.6762 99.3125 5.62142 99.3125 5.54609C99.3125 5.48446 99.3194 5.42283 99.3264 5.3749C99.3334 5.32697 99.3473 5.28588 99.3612 5.25164C99.3751 5.2174 99.396 5.19001 99.4168 5.17632C99.4377 5.16262 99.4655 5.14893 99.4933 5.14893H103.319C103.346 5.14893 103.374 5.15577 103.395 5.17632C103.416 5.19001 103.437 5.2174 103.451 5.25164C103.465 5.28588 103.479 5.32697 103.485 5.38175C103.506 5.42284 103.513 5.48446 103.513 5.54609Z" fill="#1A171B"/>
<path d="M108.402 8.70967C108.402 8.96303 108.354 9.18901 108.256 9.38759C108.159 9.58618 108.013 9.75052 107.825 9.88748C107.63 10.0176 107.394 10.1203 107.109 10.1888C106.824 10.2573 106.49 10.2915 106.107 10.2915C105.989 10.2915 105.871 10.2915 105.76 10.2915C105.648 10.2915 105.537 10.2846 105.433 10.2778C105.328 10.2709 105.224 10.2641 105.12 10.2573C105.015 10.2504 104.911 10.2436 104.814 10.2299C104.668 10.2093 104.563 10.1682 104.494 10.0861C104.424 10.0107 104.389 9.89432 104.389 9.74367V5.60079C104.389 5.45698 104.424 5.34057 104.487 5.26525C104.556 5.18992 104.654 5.14199 104.793 5.12829C104.883 5.1146 104.988 5.10775 105.092 5.1009C105.196 5.09405 105.307 5.0872 105.419 5.08036C105.53 5.07351 105.648 5.07351 105.766 5.06666C105.885 5.05982 106.01 5.05981 106.128 5.05981C106.476 5.05981 106.782 5.0872 107.039 5.14199C107.297 5.19677 107.512 5.28579 107.679 5.39536C107.846 5.50492 107.978 5.64187 108.055 5.79937C108.138 5.95687 108.18 6.14176 108.18 6.34719C108.18 6.6211 108.103 6.84708 107.957 7.03881C107.811 7.23055 107.596 7.36751 107.31 7.44968C107.665 7.525 107.936 7.66881 108.117 7.88109C108.312 8.11391 108.402 8.38097 108.402 8.70967ZM107.324 6.4773C107.324 6.36089 107.304 6.25817 107.262 6.1623C107.22 6.06643 107.144 5.99111 107.046 5.92948C106.949 5.86785 106.817 5.81992 106.664 5.78568C106.504 5.75144 106.316 5.73774 106.093 5.73774C105.926 5.73774 105.766 5.74459 105.627 5.75144C105.488 5.75829 105.37 5.77198 105.273 5.77883V7.27164H106.184C106.559 7.27164 106.845 7.20316 107.039 7.0662C107.234 6.92925 107.324 6.73066 107.324 6.4773ZM107.484 8.72336C107.484 8.57956 107.457 8.4563 107.408 8.34673C107.359 8.23717 107.276 8.14815 107.164 8.07967C107.053 8.01119 106.914 7.95641 106.74 7.92217C106.566 7.88793 106.365 7.86739 106.128 7.86739H105.252V9.57248C105.321 9.58618 105.391 9.59302 105.467 9.59987C105.544 9.60672 105.62 9.61357 105.697 9.61357C105.773 9.62042 105.85 9.62042 105.933 9.62726C106.01 9.63411 106.079 9.63411 106.149 9.63411C106.385 9.63411 106.587 9.61357 106.754 9.57248C106.921 9.53139 107.06 9.46977 107.171 9.39444C107.283 9.31912 107.359 9.22325 107.415 9.10683C107.463 8.99042 107.484 8.86032 107.484 8.72336Z" fill="#1A171B"/>
<path d="M114.258 7.63459C114.258 8.02491 114.203 8.38784 114.098 8.71653C113.994 9.04523 113.834 9.33283 113.632 9.56566C113.424 9.80533 113.166 9.99022 112.853 10.1272C112.54 10.2573 112.179 10.3258 111.768 10.3258C111.365 10.3258 111.017 10.2641 110.718 10.1477C110.419 10.0313 110.169 9.86011 109.974 9.63413C109.772 9.40816 109.626 9.13425 109.529 8.81925C109.431 8.49741 109.383 8.13448 109.383 7.73046C109.383 7.34014 109.431 6.97721 109.536 6.64852C109.64 6.31982 109.793 6.03222 110.002 5.7994C110.21 5.55973 110.468 5.37484 110.781 5.24473C111.094 5.11462 111.455 5.04614 111.873 5.04614C112.276 5.04614 112.624 5.10777 112.923 5.22419C113.222 5.3406 113.472 5.51179 113.667 5.73777C113.869 5.96374 114.015 6.23765 114.112 6.55265C114.21 6.86764 114.258 7.23058 114.258 7.63459ZM113.333 7.69622C113.333 7.43601 113.305 7.18949 113.257 6.95666C113.208 6.72384 113.125 6.52526 113.013 6.34722C112.902 6.17602 112.749 6.03222 112.554 5.93635C112.36 5.83363 112.123 5.7857 111.831 5.7857C111.567 5.7857 111.337 5.83364 111.142 5.92266C110.948 6.01852 110.795 6.14863 110.669 6.31298C110.544 6.48417 110.454 6.68275 110.391 6.91558C110.329 7.1484 110.301 7.40177 110.301 7.67568C110.301 7.93589 110.329 8.18926 110.377 8.41523C110.426 8.64806 110.51 8.84664 110.621 9.02468C110.732 9.20273 110.892 9.33283 111.08 9.43555C111.275 9.53826 111.511 9.5862 111.803 9.5862C112.067 9.5862 112.297 9.53826 112.485 9.44924C112.673 9.36022 112.839 9.23012 112.958 9.05892C113.083 8.89458 113.173 8.68914 113.229 8.46317C113.298 8.2235 113.333 7.97013 113.333 7.69622Z" fill="#1A171B"/>
<path d="M74.9559 19.3235C74.9559 19.3509 74.9489 19.3783 74.935 19.3989C74.9211 19.4194 74.9003 19.4331 74.8655 19.4468C74.8307 19.4605 74.789 19.4742 74.7333 19.481C74.6777 19.4879 74.6012 19.4947 74.5177 19.4947C74.4273 19.4947 74.3508 19.4879 74.2952 19.481C74.2395 19.4742 74.1908 19.4605 74.163 19.4468C74.1352 19.4331 74.1074 19.4125 74.0935 19.3989C74.0796 19.3783 74.0726 19.3578 74.0726 19.3235V17.2144H71.5827V19.3235C71.5827 19.3509 71.5758 19.3783 71.5619 19.3989C71.548 19.4194 71.5271 19.4331 71.4923 19.4468C71.4576 19.4605 71.4158 19.4742 71.3532 19.481C71.2976 19.4879 71.2211 19.4947 71.1307 19.4947C71.0472 19.4947 70.9707 19.4879 70.9151 19.481C70.8594 19.4742 70.8107 19.4605 70.776 19.4468C70.7412 19.4331 70.7203 19.4125 70.7064 19.3989C70.6925 19.3783 70.6855 19.3578 70.6855 19.3235V14.5164C70.6855 14.489 70.6925 14.4616 70.7064 14.4411C70.7203 14.4205 70.7412 14.4068 70.776 14.3863C70.8107 14.3726 70.8594 14.3589 70.9151 14.3521C70.9707 14.3452 71.0472 14.3452 71.1307 14.3452C71.2211 14.3452 71.2976 14.3452 71.3532 14.3521C71.4089 14.3589 71.4576 14.3658 71.4923 14.3863C71.5271 14.4 71.548 14.4205 71.5619 14.4411C71.5758 14.4616 71.5827 14.4822 71.5827 14.5164V16.4749H74.0726V14.5164C74.0726 14.489 74.0796 14.4616 74.0935 14.4411C74.1074 14.4205 74.1283 14.4068 74.163 14.3863C74.1978 14.3726 74.2395 14.3589 74.2952 14.3521C74.3508 14.3452 74.4273 14.3452 74.5177 14.3452C74.6012 14.3452 74.6777 14.3452 74.7333 14.3521C74.789 14.3589 74.8377 14.3658 74.8655 14.3863C74.9003 14.4 74.9211 14.4205 74.935 14.4411C74.9489 14.4616 74.9559 14.4822 74.9559 14.5164V19.3235Z" fill="#1A171B"/>
<path d="M80.784 16.7146C80.784 16.8516 80.7493 16.9543 80.6797 17.0091C80.6102 17.0707 80.5267 17.0981 80.4363 17.0981H77.2231C77.2231 17.3652 77.2509 17.6048 77.3066 17.8171C77.3622 18.0294 77.4526 18.2143 77.5778 18.3649C77.703 18.5156 77.8699 18.6389 78.0716 18.7142C78.2733 18.7964 78.5237 18.8374 78.8158 18.8374C79.0453 18.8374 79.2539 18.8169 79.4348 18.7827C79.6156 18.7484 79.7756 18.7005 79.9077 18.6594C80.0399 18.6115 80.1511 18.5704 80.2346 18.5361C80.3181 18.5019 80.3876 18.4814 80.4293 18.4814C80.4572 18.4814 80.478 18.4882 80.4989 18.5019C80.5198 18.5156 80.5337 18.5361 80.5476 18.5567C80.5615 18.5772 80.5684 18.6183 80.5754 18.6594C80.5823 18.7073 80.5823 18.7553 80.5823 18.8237C80.5823 18.8717 80.5823 18.9128 80.5754 18.947C80.5684 18.9812 80.5684 19.0086 80.5615 19.036C80.5545 19.0634 80.5476 19.084 80.5337 19.1114C80.5198 19.1319 80.5058 19.1524 80.485 19.173C80.4641 19.1935 80.4085 19.2278 80.3111 19.2689C80.2137 19.3099 80.0885 19.3579 79.9286 19.399C79.7756 19.44 79.5947 19.4811 79.3861 19.5154C79.1844 19.5496 78.9618 19.5633 78.7323 19.5633C78.3289 19.5633 77.9812 19.5085 77.6752 19.399C77.3692 19.2894 77.1188 19.125 76.9101 18.9059C76.7015 18.6868 76.5485 18.4197 76.4441 18.091C76.3398 17.7623 76.2842 17.3857 76.2842 16.9475C76.2842 16.5366 76.3398 16.16 76.4441 15.8313C76.5554 15.5026 76.7084 15.2218 76.9101 14.9959C77.1118 14.763 77.3622 14.5918 77.6473 14.4686C77.9395 14.3453 78.2594 14.2837 78.621 14.2837C79.0036 14.2837 79.3304 14.3453 79.6017 14.4686C79.8729 14.5918 80.0955 14.7493 80.2694 14.9548C80.4432 15.1602 80.5684 15.3999 80.6519 15.6738C80.7354 15.9477 80.7771 16.2421 80.7771 16.5571V16.7146H80.784ZM79.8799 16.4544C79.8938 15.9888 79.7895 15.6258 79.5669 15.3656C79.3444 15.1054 79.0175 14.9685 78.5863 14.9685C78.3637 14.9685 78.169 15.0096 78.0021 15.0917C77.8351 15.1739 77.696 15.2835 77.5848 15.4204C77.4735 15.5574 77.3831 15.7149 77.3205 15.8929C77.2579 16.071 77.2231 16.2627 77.2161 16.4544H79.8799Z" fill="#1A171B"/>
<path d="M82.043 21.0699C82.043 21.0973 82.0361 21.1178 82.0291 21.1315C82.0152 21.1452 81.9943 21.1589 81.9665 21.1726C81.9387 21.1863 81.897 21.1931 81.8483 21.2C81.7996 21.2068 81.7439 21.2137 81.6744 21.2137C81.5979 21.2137 81.5353 21.2068 81.4866 21.2C81.4379 21.1931 81.3962 21.1863 81.3684 21.1726C81.3406 21.1589 81.3127 21.1452 81.3058 21.1315C81.2919 21.1178 81.2849 21.0973 81.2849 21.0699V18.9265C81.2849 18.8375 81.2988 18.7759 81.3267 18.7485C81.3545 18.7211 81.4101 18.7074 81.4936 18.7074H81.8413C81.9735 18.5499 82.0987 18.365 82.2169 18.1596C82.3351 17.9542 82.4394 17.6939 82.5368 17.3858C82.6342 17.0708 82.7246 16.701 82.8081 16.2628C82.8915 15.8245 82.968 15.3041 83.0376 14.6946C83.0445 14.6467 83.0515 14.5988 83.0654 14.5577C83.0793 14.5166 83.0932 14.4823 83.121 14.4618C83.1419 14.4413 83.1697 14.4207 83.2045 14.407C83.2393 14.3933 83.274 14.3865 83.3158 14.3865H86.0282C86.1117 14.3865 86.1812 14.4139 86.2299 14.4618C86.2786 14.5166 86.3064 14.5919 86.3064 14.7015V18.7211H86.988C87.0645 18.7211 87.1201 18.7348 87.148 18.7622C87.1827 18.7896 87.1966 18.8512 87.1966 18.9402V21.0836C87.1966 21.111 87.1897 21.1315 87.1827 21.1452C87.1688 21.1589 87.148 21.1726 87.1201 21.1863C87.0923 21.2 87.0506 21.2068 86.9949 21.2137C86.9463 21.2205 86.8837 21.2274 86.8141 21.2274C86.7446 21.2274 86.682 21.2205 86.6333 21.2137C86.5846 21.2068 86.5498 21.2 86.515 21.1863C86.4872 21.1726 86.4594 21.1589 86.4525 21.1452C86.4385 21.1315 86.4316 21.111 86.4316 21.0836V19.4675H82.0291V21.0699H82.043ZM85.4162 15.1055H83.8722C83.7957 15.6875 83.7192 16.1737 83.6357 16.5778C83.5522 16.9749 83.4688 17.3105 83.3784 17.5844C83.2879 17.8583 83.1906 18.0843 83.0863 18.2555C82.9819 18.4266 82.8776 18.5773 82.7733 18.7143H85.4231V15.1055H85.4162Z" fill="#1A171B"/>
<path d="M92.2042 17.9406C92.2042 18.194 92.1555 18.42 92.0581 18.6186C91.9607 18.8171 91.8147 18.9815 91.6269 19.1184C91.4322 19.2486 91.1957 19.3513 90.9105 19.4197C90.6254 19.4882 90.2916 19.5225 89.909 19.5225C89.7908 19.5225 89.6726 19.5225 89.5613 19.5225C89.45 19.5225 89.3387 19.5156 89.2344 19.5088C89.1301 19.5019 89.0258 19.4951 88.9214 19.4882C88.8171 19.4814 88.7128 19.4745 88.6154 19.4608C88.4694 19.4403 88.365 19.3992 88.2955 19.317C88.2259 19.2417 88.1912 19.1253 88.1912 18.9746V14.8317C88.1912 14.6879 88.2259 14.5715 88.2885 14.4962C88.3581 14.4209 88.4555 14.3729 88.5946 14.3593C88.685 14.3456 88.7893 14.3387 88.8936 14.3319C88.9979 14.325 89.1092 14.3182 89.2205 14.3113C89.3318 14.3045 89.45 14.3045 89.5682 14.2976C89.6865 14.2908 89.8117 14.2908 89.9299 14.2908C90.2776 14.2908 90.5837 14.3182 90.841 14.3729C91.0983 14.4277 91.3139 14.5167 91.4808 14.6263C91.6478 14.7359 91.7799 14.8728 91.8564 15.0303C91.9399 15.1878 91.9816 15.3727 91.9816 15.5782C91.9816 15.8521 91.9051 16.078 91.7591 16.2698C91.613 16.4615 91.3974 16.5985 91.1122 16.6806C91.4669 16.756 91.7382 16.8998 91.919 17.1121C92.1138 17.3517 92.2042 17.6188 92.2042 17.9406ZM91.1262 15.7083C91.1262 15.5918 91.1053 15.4891 91.0636 15.3933C91.0218 15.2974 90.9453 15.2221 90.8479 15.1604C90.7506 15.0988 90.6184 15.0509 90.4654 15.0166C90.3055 14.9824 90.1177 14.9687 89.8951 14.9687C89.7282 14.9687 89.5682 14.9755 89.4291 14.9824C89.29 14.9892 89.1718 15.0029 89.0744 15.0098V16.5026H89.9855C90.3611 16.5026 90.6463 16.4341 90.841 16.2972C91.0357 16.1602 91.1262 15.9685 91.1262 15.7083ZM91.2861 17.9612C91.2861 17.8174 91.2583 17.6941 91.2096 17.5845C91.1609 17.475 91.0775 17.386 90.9662 17.3175C90.8549 17.249 90.7158 17.1942 90.5419 17.16C90.3681 17.1257 90.1664 17.1052 89.9299 17.1052H89.0536V18.8103C89.1231 18.824 89.1927 18.8308 89.2692 18.8377C89.3457 18.8445 89.4222 18.8514 89.4987 18.8514C89.5752 18.8582 89.6517 18.8582 89.7352 18.8651C89.8117 18.8719 89.8812 18.8719 89.9508 18.8719C90.1872 18.8719 90.3889 18.8514 90.5558 18.8103C90.7228 18.7692 90.8619 18.7076 90.9731 18.6323C91.0844 18.5569 91.1609 18.4611 91.2166 18.3446C91.2583 18.2214 91.2861 18.0981 91.2861 17.9612Z" fill="#1A171B"/>
<path d="M97.8583 19.3306C97.8583 19.358 97.8514 19.3785 97.8375 19.3991C97.8235 19.4196 97.8027 19.4402 97.7679 19.447C97.7331 19.4607 97.6914 19.4676 97.6358 19.4744C97.5801 19.4813 97.5036 19.4881 97.4202 19.4881C97.3367 19.4881 97.2602 19.4813 97.2046 19.4744C97.1489 19.4676 97.1002 19.4607 97.0655 19.447C97.0307 19.4333 97.0029 19.4196 96.989 19.3991C96.975 19.3785 96.9681 19.358 96.9681 19.3306V16.5641C96.9681 16.4272 96.975 16.2834 96.982 16.1396C96.989 15.9958 96.9959 15.852 97.0098 15.715C96.9264 15.8588 96.8359 15.9958 96.7386 16.1327C96.6412 16.2697 96.5369 16.4066 96.4395 16.5436L94.3669 19.3306C94.3391 19.358 94.3183 19.3854 94.2974 19.4059C94.2765 19.4265 94.2557 19.447 94.2209 19.4539C94.1931 19.4676 94.1513 19.4744 94.1027 19.4813C94.054 19.4881 93.9983 19.4881 93.9288 19.4881C93.8523 19.4881 93.7827 19.4813 93.734 19.4744C93.6854 19.4676 93.6436 19.4607 93.6088 19.447C93.581 19.4333 93.5532 19.4196 93.5463 19.3991C93.5323 19.3785 93.5254 19.358 93.5254 19.3306V14.5098C93.5254 14.4824 93.5323 14.4619 93.5463 14.4413C93.5602 14.4208 93.581 14.4002 93.6158 14.3865C93.6506 14.3728 93.6993 14.3591 93.7549 14.3591C93.8105 14.3523 93.8801 14.3523 93.9636 14.3523C94.1374 14.3523 94.2557 14.366 94.3183 14.3934C94.3808 14.4208 94.4156 14.4619 94.4156 14.5166V17.2968C94.4156 17.4338 94.4087 17.5707 94.4017 17.7077C94.3948 17.8447 94.3878 17.9816 94.3739 18.1186C94.4574 17.9816 94.5408 17.8515 94.6243 17.7214C94.7077 17.5913 94.7981 17.4612 94.8955 17.3379L96.9959 14.5098C97.0168 14.4824 97.0376 14.455 97.0655 14.4345C97.0863 14.4139 97.1211 14.3934 97.1489 14.3865C97.1837 14.3728 97.2254 14.366 97.2741 14.3591C97.3228 14.3523 97.3854 14.3523 97.4619 14.3523C97.5384 14.3523 97.601 14.3523 97.6566 14.3591C97.7123 14.366 97.754 14.3728 97.7818 14.3865C97.8096 14.4002 97.8375 14.4208 97.8444 14.4413C97.8583 14.4619 97.8653 14.4893 97.8653 14.5166V19.3306H97.8583Z" fill="#1A171B"/>
<path d="M106.01 19.3646C106.01 19.3852 106.003 19.4057 105.989 19.4194C105.975 19.4331 105.947 19.4468 105.912 19.4605C105.877 19.4742 105.836 19.481 105.78 19.4879C105.724 19.4947 105.655 19.4947 105.565 19.4947C105.46 19.4947 105.384 19.4879 105.321 19.481C105.259 19.4742 105.21 19.4673 105.168 19.4536C105.133 19.4399 105.105 19.4262 105.085 19.4057C105.064 19.3852 105.05 19.3646 105.043 19.3372L104.521 18.0978C104.452 17.9403 104.382 17.7965 104.306 17.6869C104.229 17.5705 104.153 17.4746 104.062 17.4062C103.972 17.3377 103.868 17.2829 103.749 17.2487C103.631 17.2144 103.492 17.2007 103.332 17.2007H102.97V19.3715C102.97 19.392 102.963 19.4057 102.943 19.4194C102.922 19.4331 102.901 19.4468 102.859 19.4605C102.817 19.4742 102.776 19.481 102.72 19.4879C102.664 19.4947 102.595 19.4947 102.525 19.4947C102.449 19.4947 102.379 19.4947 102.324 19.4879C102.268 19.481 102.219 19.4742 102.184 19.4605C102.15 19.4468 102.122 19.4331 102.101 19.4194C102.08 19.4057 102.073 19.3852 102.073 19.3715V17.1939H101.711C101.552 17.1939 101.412 17.2076 101.294 17.2418C101.176 17.2761 101.065 17.3308 100.974 17.3993C100.877 17.4678 100.793 17.5637 100.724 17.6801C100.647 17.7965 100.578 17.9334 100.508 18.0909L99.9866 19.3304C99.9797 19.3578 99.9658 19.3783 99.9449 19.3989C99.924 19.4194 99.8962 19.4331 99.8614 19.4468C99.8267 19.4605 99.778 19.4673 99.7154 19.4742C99.6528 19.481 99.5693 19.4879 99.472 19.4879C99.3885 19.4879 99.319 19.4879 99.2633 19.481C99.2077 19.4742 99.159 19.4673 99.1242 19.4536C99.0894 19.4399 99.0686 19.4262 99.0477 19.4126C99.0338 19.3989 99.0269 19.3783 99.0269 19.3578C99.0269 19.3372 99.0338 19.3098 99.0408 19.2756C99.0477 19.2414 99.0686 19.2003 99.0894 19.1455L99.625 17.9334C99.6945 17.7759 99.771 17.6321 99.8475 17.5089C99.924 17.3856 100.014 17.2829 100.098 17.1939C100.188 17.1049 100.286 17.0295 100.383 16.9679C100.487 16.9063 100.599 16.8583 100.724 16.8173V16.8036C100.64 16.7762 100.55 16.7419 100.467 16.694C100.383 16.6529 100.3 16.5844 100.216 16.5091C100.133 16.4269 100.049 16.3311 99.9727 16.2078C99.8962 16.0845 99.8128 15.9339 99.7363 15.7559L99.2842 14.6944C99.2633 14.6465 99.2494 14.6054 99.2425 14.5712C99.2285 14.537 99.2285 14.5027 99.2285 14.4685C99.2285 14.4479 99.2355 14.4342 99.2494 14.4205C99.2633 14.4068 99.2842 14.3931 99.312 14.3795C99.3398 14.3658 99.3885 14.3589 99.4441 14.3521C99.4998 14.3452 99.5693 14.3452 99.6598 14.3452C99.7571 14.3452 99.8406 14.3452 99.9032 14.3521C99.9658 14.3589 100.021 14.3658 100.063 14.3795C100.105 14.3931 100.133 14.4137 100.154 14.4342C100.174 14.4548 100.188 14.4822 100.195 14.5096L100.626 15.6189C100.689 15.7695 100.752 15.9065 100.821 16.0161C100.891 16.1256 100.967 16.2146 101.051 16.2831C101.134 16.3516 101.232 16.3995 101.343 16.4338C101.447 16.4612 101.572 16.4817 101.711 16.4817H102.073V14.4616C102.073 14.4411 102.08 14.4274 102.101 14.4137C102.122 14.4 102.143 14.3863 102.184 14.3795C102.219 14.3726 102.268 14.3658 102.324 14.3589C102.379 14.3521 102.449 14.3521 102.525 14.3521C102.602 14.3521 102.664 14.3521 102.72 14.3589C102.776 14.3658 102.824 14.3726 102.859 14.3795C102.894 14.3863 102.922 14.4 102.943 14.4137C102.963 14.4274 102.97 14.4479 102.97 14.4616V16.4817H103.332C103.471 16.4817 103.596 16.468 103.708 16.4338C103.819 16.3995 103.916 16.3516 104.007 16.2831C104.097 16.2146 104.174 16.1256 104.243 16.0161C104.313 15.9065 104.382 15.7764 104.438 15.6257L104.897 14.5164C104.911 14.489 104.925 14.4616 104.946 14.4411C104.959 14.4205 104.987 14.4 105.022 14.3863C105.057 14.3726 105.105 14.3589 105.161 14.3589C105.224 14.3521 105.3 14.3521 105.398 14.3521C105.481 14.3521 105.558 14.3521 105.613 14.3589C105.669 14.3658 105.711 14.3726 105.745 14.3863C105.773 14.4 105.801 14.4137 105.808 14.4274C105.822 14.4411 105.829 14.4616 105.829 14.4753C105.829 14.5096 105.822 14.5438 105.815 14.578C105.808 14.6123 105.787 14.6534 105.773 14.7013L105.307 15.7627C105.231 15.9407 105.154 16.0914 105.071 16.2078C104.987 16.3242 104.904 16.4269 104.82 16.5023C104.737 16.5776 104.653 16.6461 104.577 16.6871C104.493 16.7351 104.41 16.7693 104.333 16.7967V16.8104C104.459 16.8515 104.57 16.9063 104.674 16.9679C104.779 17.0295 104.876 17.1049 104.959 17.1939C105.05 17.2829 105.133 17.3925 105.21 17.5157C105.286 17.639 105.363 17.7828 105.432 17.9403L105.961 19.1523C105.975 19.1797 105.982 19.2003 105.989 19.2208C105.996 19.2414 106.003 19.2619 106.01 19.2824C106.017 19.303 106.017 19.3167 106.024 19.3304C106.01 19.3441 106.01 19.3509 106.01 19.3646Z" fill="#1A171B"/>
<path d="M111.525 19.3306C111.525 19.358 111.518 19.3785 111.504 19.3991C111.49 19.4196 111.469 19.4402 111.435 19.447C111.4 19.4607 111.358 19.4676 111.303 19.4744C111.247 19.4813 111.17 19.4881 111.087 19.4881C111.003 19.4881 110.927 19.4813 110.871 19.4744C110.816 19.4676 110.767 19.4607 110.732 19.447C110.697 19.4333 110.67 19.4196 110.656 19.3991C110.642 19.3785 110.635 19.358 110.635 19.3306V16.5641C110.635 16.4272 110.642 16.2834 110.649 16.1396C110.656 15.9958 110.663 15.852 110.677 15.715C110.593 15.8588 110.503 15.9958 110.405 16.1327C110.308 16.2697 110.204 16.4066 110.106 16.5436L108.034 19.3306C108.006 19.358 107.985 19.3854 107.964 19.4059C107.943 19.4265 107.922 19.447 107.888 19.4539C107.86 19.4676 107.818 19.4744 107.769 19.4813C107.721 19.4881 107.665 19.4881 107.596 19.4881C107.519 19.4881 107.449 19.4813 107.401 19.4744C107.352 19.4676 107.31 19.4607 107.276 19.447C107.248 19.4333 107.22 19.4196 107.213 19.3991C107.199 19.3785 107.192 19.358 107.192 19.3306V14.5098C107.192 14.4824 107.199 14.4619 107.213 14.4413C107.227 14.4208 107.248 14.4002 107.283 14.3865C107.317 14.3728 107.366 14.3591 107.422 14.3591C107.477 14.3523 107.547 14.3523 107.63 14.3523C107.804 14.3523 107.922 14.366 107.985 14.3934C108.048 14.4208 108.082 14.4619 108.082 14.5166V17.2968C108.082 17.4338 108.075 17.5707 108.068 17.7077C108.062 17.8447 108.055 17.9816 108.041 18.1186C108.124 17.9816 108.208 17.8515 108.291 17.7214C108.374 17.5913 108.465 17.4612 108.562 17.3379L110.663 14.5098C110.684 14.4824 110.704 14.455 110.732 14.4345C110.753 14.4139 110.788 14.3934 110.816 14.3865C110.85 14.3728 110.892 14.366 110.941 14.3591C110.99 14.3523 111.052 14.3523 111.129 14.3523C111.205 14.3523 111.268 14.3523 111.323 14.3591C111.379 14.366 111.421 14.3728 111.449 14.3865C111.476 14.4002 111.504 14.4208 111.511 14.4413C111.525 14.4619 111.532 14.4893 111.532 14.5166V19.3306H111.525Z" fill="#1A171B"/>
<path d="M119.349 19.2756C119.356 19.3509 119.329 19.4057 119.273 19.4399C119.217 19.4741 119.106 19.4878 118.939 19.4878C118.849 19.4878 118.772 19.4878 118.717 19.481C118.661 19.4741 118.612 19.4673 118.577 19.4604C118.543 19.4467 118.522 19.4331 118.508 19.4125C118.494 19.392 118.487 19.3646 118.48 19.3372L118.125 16.5296C118.111 16.4269 118.104 16.3242 118.091 16.2078C118.077 16.0914 118.07 15.9749 118.056 15.8585C118.042 15.7421 118.035 15.6257 118.028 15.5093C118.021 15.3929 118.007 15.2833 118 15.1806L117.993 15.0573C117.958 15.1601 117.924 15.2696 117.889 15.386C117.854 15.5024 117.812 15.6189 117.771 15.7353C117.729 15.8517 117.687 15.9681 117.652 16.0845C117.618 16.2009 117.576 16.3105 117.548 16.4132L116.526 19.2619C116.512 19.3029 116.491 19.3372 116.477 19.3714C116.456 19.3988 116.428 19.4262 116.394 19.4399C116.359 19.4604 116.317 19.4673 116.261 19.4741C116.206 19.481 116.143 19.4878 116.067 19.4878C115.99 19.4878 115.928 19.481 115.879 19.4741C115.83 19.4673 115.788 19.4536 115.754 19.4399C115.719 19.4262 115.691 19.3988 115.67 19.3714C115.649 19.344 115.629 19.3098 115.615 19.2619L114.627 16.4063C114.592 16.3036 114.551 16.2009 114.516 16.0845C114.481 15.9681 114.439 15.8517 114.404 15.7353C114.37 15.6189 114.328 15.4956 114.293 15.3792C114.258 15.2628 114.224 15.1532 114.203 15.0505L114.196 15.1738C114.182 15.2765 114.175 15.386 114.161 15.5024C114.147 15.6189 114.14 15.7353 114.126 15.8517C114.112 15.9681 114.098 16.0845 114.091 16.2009C114.078 16.3173 114.071 16.42 114.064 16.5228L113.73 19.2824C113.723 19.3235 113.716 19.3577 113.702 19.3851C113.688 19.4125 113.667 19.433 113.625 19.4467C113.591 19.4604 113.542 19.4673 113.486 19.4741C113.431 19.481 113.354 19.481 113.257 19.481C113.166 19.481 113.097 19.4741 113.041 19.4673C112.986 19.4604 112.951 19.4467 112.923 19.4331C112.895 19.4125 112.881 19.392 112.874 19.3646C112.867 19.3372 112.867 19.3029 112.874 19.2687L113.41 14.715C113.431 14.5985 113.466 14.5164 113.535 14.4547C113.598 14.3931 113.695 14.3657 113.82 14.3657H114.251C114.356 14.3657 114.446 14.3726 114.523 14.3931C114.599 14.4068 114.662 14.4342 114.71 14.4753C114.766 14.5164 114.808 14.5643 114.843 14.6328C114.877 14.7013 114.912 14.7834 114.947 14.8793L115.67 16.9268C115.712 17.05 115.754 17.1801 115.795 17.3034C115.837 17.4267 115.879 17.5568 115.921 17.68C115.955 17.8033 115.997 17.9197 116.032 18.043C116.067 18.1594 116.095 18.2758 116.129 18.3785H116.143C116.178 18.2689 116.206 18.1525 116.241 18.0293C116.275 17.906 116.31 17.7827 116.352 17.6526C116.394 17.5294 116.435 17.3993 116.477 17.276C116.519 17.1528 116.56 17.0295 116.602 16.9199L117.326 14.8862C117.353 14.7971 117.388 14.7218 117.423 14.6533C117.458 14.5849 117.499 14.5369 117.548 14.4958C117.597 14.4547 117.659 14.4274 117.729 14.4068C117.798 14.3863 117.882 14.3794 117.986 14.3794H118.411C118.543 14.3794 118.64 14.4068 118.71 14.4616C118.779 14.5164 118.814 14.5985 118.828 14.715L119.349 19.2756Z" fill="#1A171B"/>
<path d="M125.24 16.8721C125.24 17.2625 125.185 17.6254 125.08 17.9541C124.976 18.2828 124.816 18.5704 124.614 18.8032C124.406 19.0429 124.148 19.2278 123.836 19.3647C123.523 19.5017 123.161 19.5633 122.751 19.5633C122.347 19.5633 121.999 19.5017 121.7 19.3853C121.401 19.2689 121.151 19.0977 120.956 18.8717C120.754 18.6457 120.608 18.3718 120.511 18.0568C120.414 17.735 120.365 17.372 120.365 16.968C120.365 16.5777 120.414 16.2148 120.518 15.8861C120.622 15.5574 120.775 15.2698 120.984 15.0369C121.193 14.7973 121.45 14.6124 121.763 14.4823C122.076 14.3522 122.438 14.2837 122.855 14.2837C123.258 14.2837 123.606 14.3453 123.905 14.4617C124.204 14.5781 124.454 14.7493 124.649 14.9753C124.851 15.2013 124.997 15.4752 125.094 15.7902C125.192 16.1052 125.24 16.4681 125.24 16.8721ZM124.308 16.9269C124.308 16.6667 124.281 16.4202 124.232 16.1874C124.183 15.9545 124.1 15.756 123.989 15.5779C123.877 15.4067 123.724 15.2629 123.529 15.1671C123.335 15.0643 123.098 15.0164 122.806 15.0164C122.542 15.0164 122.312 15.0643 122.118 15.1534C121.923 15.2492 121.77 15.3793 121.645 15.5437C121.52 15.7149 121.429 15.9135 121.367 16.1463C121.304 16.3791 121.276 16.6325 121.276 16.9064C121.276 17.1666 121.304 17.42 121.353 17.6459C121.401 17.8788 121.485 18.0773 121.596 18.2554C121.707 18.4334 121.867 18.5635 122.055 18.6662C122.25 18.769 122.486 18.8169 122.778 18.8169C123.043 18.8169 123.272 18.769 123.46 18.6799C123.655 18.5841 123.815 18.4608 123.933 18.2896C124.058 18.1253 124.148 17.9198 124.204 17.6939C124.281 17.461 124.308 17.2077 124.308 16.9269Z" fill="#1A171B"/>
<path d="M130.067 18.5978C130.067 18.6594 130.067 18.7073 130.06 18.7553C130.053 18.8032 130.053 18.8374 130.039 18.8648C130.032 18.8922 130.019 18.9196 130.005 18.947C129.991 18.9676 129.963 19.0018 129.921 19.0497C129.879 19.0908 129.796 19.1524 129.692 19.2141C129.58 19.2825 129.462 19.3373 129.323 19.3921C129.191 19.4469 129.038 19.488 128.878 19.5154C128.718 19.5496 128.551 19.5633 128.384 19.5633C128.036 19.5633 127.723 19.5085 127.452 19.3921C127.181 19.2757 126.951 19.1114 126.771 18.8922C126.59 18.6731 126.451 18.406 126.353 18.0842C126.256 17.7623 126.207 17.3994 126.207 16.9817C126.207 16.5092 126.263 16.0983 126.381 15.7628C126.499 15.4204 126.659 15.1465 126.861 14.9274C127.063 14.7083 127.306 14.5508 127.584 14.4412C127.863 14.3385 128.162 14.2837 128.482 14.2837C128.635 14.2837 128.788 14.2974 128.934 14.3248C129.08 14.3522 129.212 14.3933 129.337 14.4343C129.462 14.4823 129.567 14.5371 129.664 14.5918C129.761 14.6535 129.831 14.7014 129.873 14.7493C129.914 14.7904 129.949 14.8247 129.963 14.8521C129.977 14.8794 129.991 14.9068 130.005 14.9411C130.019 14.9753 130.026 15.0164 130.026 15.0575C130.032 15.0986 130.032 15.1534 130.032 15.215C130.032 15.3519 130.019 15.4478 129.984 15.5094C129.949 15.5642 129.914 15.5916 129.866 15.5916C129.81 15.5916 129.747 15.5642 129.678 15.5026C129.608 15.441 129.518 15.3793 129.407 15.3109C129.295 15.2424 129.17 15.1739 129.01 15.1191C128.857 15.0575 128.676 15.0301 128.468 15.0301C128.036 15.0301 127.71 15.1944 127.48 15.5163C127.251 15.845 127.132 16.3175 127.132 16.9338C127.132 17.2419 127.16 17.5158 127.223 17.7486C127.285 17.9815 127.369 18.1801 127.487 18.3307C127.605 18.4882 127.744 18.6046 127.911 18.6799C128.078 18.7553 128.273 18.7964 128.488 18.7964C128.697 18.7964 128.878 18.7621 129.031 18.7005C129.184 18.6389 129.323 18.5635 129.434 18.4882C129.546 18.4129 129.643 18.3444 129.72 18.2828C129.796 18.2211 129.859 18.1869 129.9 18.1869C129.928 18.1869 129.949 18.1938 129.963 18.2074C129.984 18.2211 129.998 18.2485 130.012 18.2828C130.026 18.317 130.032 18.3581 130.039 18.4129C130.067 18.4608 130.067 18.5224 130.067 18.5978Z" fill="#1A171B"/>
<path d="M134.671 14.7836C134.671 14.8521 134.664 14.9138 134.657 14.9685C134.65 15.0165 134.636 15.0576 134.623 15.0918C134.609 15.126 134.588 15.1466 134.567 15.1671C134.546 15.1877 134.518 15.1945 134.483 15.1945H133.016V19.3374C133.016 19.3648 133.009 19.3922 132.995 19.4127C132.981 19.4333 132.96 19.447 132.926 19.4607C132.891 19.4744 132.849 19.488 132.786 19.4949C132.731 19.5017 132.654 19.5086 132.564 19.5086C132.48 19.5086 132.404 19.5017 132.348 19.4949C132.293 19.488 132.244 19.4744 132.209 19.4607C132.174 19.447 132.154 19.4264 132.14 19.4127C132.126 19.3922 132.119 19.3716 132.119 19.3374V15.1945H130.651C130.623 15.1945 130.596 15.1877 130.575 15.1671C130.554 15.1534 130.533 15.126 130.519 15.0918C130.505 15.0576 130.491 15.0165 130.484 14.9685C130.477 14.9138 130.47 14.859 130.47 14.7836C130.47 14.722 130.477 14.6604 130.484 14.6125C130.491 14.5645 130.505 14.5234 130.519 14.4892C130.533 14.455 130.554 14.4276 130.575 14.4139C130.596 14.4002 130.623 14.3865 130.651 14.3865H134.477C134.504 14.3865 134.532 14.3933 134.553 14.4139C134.574 14.4276 134.595 14.455 134.609 14.4892C134.623 14.5234 134.636 14.5645 134.643 14.6193C134.671 14.6604 134.671 14.7152 134.671 14.7836Z" fill="#1A171B"/>
<path d="M139.901 19.3306C139.901 19.358 139.894 19.3785 139.88 19.3991C139.867 19.4196 139.846 19.4402 139.811 19.447C139.776 19.4607 139.734 19.4676 139.679 19.4744C139.623 19.4813 139.547 19.4881 139.463 19.4881C139.38 19.4881 139.303 19.4813 139.248 19.4744C139.192 19.4676 139.143 19.4607 139.108 19.447C139.074 19.4333 139.046 19.4196 139.032 19.3991C139.018 19.3785 139.011 19.358 139.011 19.3306V16.5641C139.011 16.4272 139.018 16.2834 139.025 16.1396C139.032 15.9958 139.039 15.852 139.053 15.715C138.969 15.8588 138.879 15.9958 138.782 16.1327C138.684 16.2697 138.58 16.4066 138.483 16.5436L136.41 19.3306C136.382 19.358 136.361 19.3854 136.34 19.4059C136.319 19.4265 136.299 19.447 136.264 19.4539C136.236 19.4676 136.194 19.4744 136.146 19.4813C136.097 19.4881 136.041 19.4881 135.972 19.4881C135.895 19.4881 135.826 19.4813 135.777 19.4744C135.728 19.4676 135.687 19.4607 135.652 19.447C135.624 19.4333 135.596 19.4196 135.589 19.3991C135.575 19.3785 135.568 19.358 135.568 19.3306V14.5098C135.568 14.4824 135.575 14.4619 135.589 14.4413C135.603 14.4208 135.624 14.4002 135.659 14.3865C135.694 14.3728 135.742 14.3591 135.798 14.3591C135.854 14.3523 135.923 14.3523 136.007 14.3523C136.18 14.3523 136.299 14.366 136.361 14.3934C136.424 14.4208 136.459 14.4619 136.459 14.5166V17.2968C136.459 17.4338 136.452 17.5707 136.445 17.7077C136.438 17.8447 136.431 17.9816 136.417 18.1186C136.5 17.9816 136.584 17.8515 136.667 17.7214C136.751 17.5913 136.841 17.4612 136.938 17.3379L139.039 14.5098C139.06 14.4824 139.081 14.455 139.108 14.4345C139.129 14.4139 139.164 14.3934 139.192 14.3865C139.227 14.3728 139.268 14.366 139.317 14.3591C139.366 14.3523 139.428 14.3523 139.505 14.3523C139.581 14.3523 139.644 14.3523 139.7 14.3591C139.755 14.366 139.797 14.3728 139.825 14.3865C139.853 14.4002 139.88 14.4208 139.887 14.4413C139.901 14.4619 139.908 14.4893 139.908 14.5166V19.3306H139.901Z" fill="#1A171B"/>
</svg>
