<svg width="150" height="52" viewBox="0 0 150 52" fill="none" xmlns="http://www.w3.org/2000/svg">
<path d="M0 5.39392V51.7576H24.8276L0 5.39392Z" fill="white"/>
<path d="M47.5862 21.61C47.5862 9.86293 37.9203 0.335294 25.9574 0.247075V0.242432H18.9246H18.863H0L27.8139 51.7576H46.7385L39.4499 38.2555C44.4084 34.3413 47.5862 28.3425 47.5862 21.61Z" fill="white"/>
<path d="M74.9002 50.5423H70.3447V28.5815H78.8159C80.3877 28.5815 82.0917 28.9308 83.5313 30.3209C85.0058 31.7452 85.3605 33.6352 85.3605 35.0321C85.3605 37.7781 83.9834 39.5174 82.662 40.3734C81.8274 40.9075 81.0901 41.065 80.3807 41.0992C80.6033 41.2225 80.8328 41.4142 81.3127 42.0168C81.7926 42.6194 82.662 43.7835 86.675 50.5491H81.3823C80.805 49.6658 80.7424 49.4398 80.3529 48.7824C80.0608 48.2483 80.033 48.2757 79.2958 46.9472C77.5014 43.6945 76.8546 42.6811 76.3399 42.1469C76.1452 41.9552 75.9226 41.7361 75.6027 41.5786C75.2827 41.4211 75.0254 41.3868 74.9002 41.3868V50.5423ZM76.4095 38.0588C77.6613 38.0588 78.9758 38.0246 79.7756 37.333C80.2277 36.9221 80.645 36.1962 80.645 35.1211C80.645 34.2994 80.4503 32.9709 79.0384 32.4368C78.2386 32.1492 77.244 32.1218 76.5068 32.1218H74.9002V38.0657H76.4095V38.0588Z" fill="white"/>
<path d="M92.6143 43.7836V44.1328C92.6143 45.3038 93.0316 46.3104 93.6715 46.913C94.4087 47.6115 95.3406 47.769 96.1405 47.769C96.7803 47.769 98.3869 47.6731 100.251 46.1598L101.92 48.6866C99.8335 50.3917 97.5245 50.9327 95.7232 50.9327C93.4767 50.9327 91.5224 50.1452 90.1731 48.7825C88.956 47.5156 87.9614 45.5572 87.9614 42.4346C87.9614 39.3668 88.796 37.5658 90.0131 36.21C91.6197 34.4433 93.3793 33.9982 95.1807 33.9982C97.3924 33.9982 98.9364 34.7583 99.9309 35.7375C101.955 37.7576 102.115 40.9829 102.115 42.8181V43.7973H92.6143V43.7836ZM97.6497 40.4967C97.6497 39.6407 97.6149 38.6615 97.0376 37.9082C96.5578 37.3056 95.8831 37.0865 95.2433 37.0865C94.4713 37.0865 93.8662 37.3741 93.4489 37.874C92.7743 38.6615 92.6769 39.8325 92.6769 40.6199V40.6816H97.6497V40.4967Z" fill="white"/>
<path d="M115.976 50.5421H103.875V47.9194L111.609 37.3328H104.515V34.3608H116.707V37.2643L109.453 47.5975H116.992L115.976 50.5421Z" fill="white"/>
<path d="M131.701 36.2919C133.405 38.1888 133.725 40.339 133.725 42.4549C133.725 44.5709 133.405 46.7211 131.701 48.6179C130.13 50.3572 128.238 50.9256 126.249 50.9256C124.26 50.9256 122.368 50.3572 120.796 48.6179C119.092 46.7211 118.772 44.5709 118.772 42.4549C118.772 40.339 119.092 38.1888 120.796 36.2919C122.368 34.5526 124.26 33.9843 126.249 33.9843C128.238 33.9843 130.13 34.5526 131.701 36.2919ZM124.385 37.9696C123.71 38.853 123.515 40.339 123.515 42.4549C123.515 44.5709 123.71 46.0568 124.385 46.9402C124.962 47.7277 125.734 47.8236 126.249 47.8236C126.763 47.8236 127.535 47.7277 128.113 46.9402C128.787 46.0568 128.982 44.5709 128.982 42.4549C128.982 40.339 128.787 38.853 128.113 37.9696C127.535 37.1822 126.763 37.0863 126.249 37.0863C125.734 37.0794 124.962 37.1753 124.385 37.9696Z" fill="white"/>
<path d="M145.757 50.542V40.0171C145.757 39.0721 145.723 38.4078 145.375 38.0244C145.09 37.7094 144.735 37.6477 144.443 37.6477C143.991 37.6477 143.448 37.7436 142.836 38.0586C142.356 38.312 141.779 38.7228 141.327 39.0995V50.5352H137.091V38.8187C137.091 37.9011 137.057 36.6411 136.514 35.025L140.27 33.95C140.562 34.3951 140.847 35.0251 140.882 35.97L141.424 35.5934C141.716 35.4017 141.939 35.1483 142.711 34.7374C143.031 34.5457 144.22 33.9773 145.729 33.9773C147.851 33.9773 149.165 35.1141 149.68 36.4083C150 37.23 150 38.1134 150 38.716V50.5352H145.757V50.542Z" fill="white"/>
<path d="M74.3508 10.0997C74.3508 10.1408 74.3369 10.175 74.3091 10.1956C74.2812 10.2161 74.2395 10.2298 74.1908 10.2435C74.1421 10.2572 74.0656 10.2572 73.9683 10.2572C73.8709 10.2572 73.8013 10.2504 73.7457 10.2435C73.6901 10.2298 73.6483 10.2161 73.6205 10.1956C73.5927 10.175 73.5857 10.1408 73.5857 10.0997V9.62038C73.3701 9.84635 73.1337 10.0175 72.8694 10.1408C72.6051 10.2641 72.3269 10.3257 72.0348 10.3257C71.7775 10.3257 71.5479 10.2915 71.3393 10.2298C71.1306 10.1613 70.9568 10.0655 70.8107 9.94222C70.6647 9.81896 70.5534 9.66146 70.4699 9.48342C70.3865 9.30538 70.3447 9.0931 70.3447 8.86713C70.3447 8.59321 70.4004 8.36039 70.5116 8.16181C70.6229 7.96322 70.7829 7.79888 70.9915 7.66192C71.2002 7.53181 71.4575 7.4291 71.7635 7.36747C72.0696 7.29899 72.4104 7.2716 72.7859 7.2716H73.4606V6.89497C73.4606 6.71008 73.4397 6.54574 73.398 6.40193C73.3562 6.25813 73.2936 6.14172 73.2032 6.04585C73.1128 5.94998 73.0015 5.88151 72.8555 5.83357C72.7164 5.78564 72.5425 5.75825 72.3339 5.75825C72.1113 5.75825 71.9166 5.78564 71.7427 5.83357C71.5688 5.88836 71.4158 5.94314 71.2837 6.00477C71.1515 6.0664 71.0402 6.12118 70.9498 6.17596C70.8594 6.23074 70.7968 6.25129 70.7551 6.25129C70.7273 6.25129 70.6994 6.24444 70.6786 6.23074C70.6577 6.21705 70.6368 6.1965 70.6229 6.16911C70.609 6.14172 70.5951 6.10748 70.5882 6.05955C70.5812 6.01846 70.5742 5.96368 70.5742 5.91575C70.5742 5.82672 70.5812 5.75825 70.5951 5.70346C70.609 5.64868 70.6368 5.60075 70.6855 5.55966C70.7342 5.51173 70.8177 5.45695 70.9359 5.39532C71.0541 5.33369 71.1932 5.27891 71.3462 5.22412C71.4993 5.16934 71.6731 5.12825 71.854 5.09402C72.0417 5.05978 72.2226 5.04608 72.4104 5.04608C72.7581 5.04608 73.0572 5.08717 73.3076 5.16249C73.551 5.23782 73.7527 5.35423 73.9057 5.50488C74.0587 5.65553 74.17 5.84727 74.2395 6.0664C74.3091 6.29237 74.3438 6.55259 74.3438 6.85389V10.0997H74.3508ZM73.4606 7.90159H72.6955C72.4521 7.90159 72.2365 7.92214 72.0557 7.96322C71.8748 8.00431 71.7218 8.06594 71.6036 8.14811C71.4853 8.23029 71.3949 8.32615 71.3393 8.43572C71.2836 8.54528 71.2558 8.67539 71.2558 8.82604C71.2558 9.07256 71.3393 9.27114 71.4993 9.42179C71.6592 9.57244 71.8887 9.64092 72.1739 9.64092C72.4104 9.64092 72.626 9.57929 72.8277 9.46288C73.0294 9.34647 73.238 9.16842 73.4606 8.92191V7.90159Z" fill="white"/>
<path d="M78.9131 5.53925C78.9131 5.60772 78.9062 5.66936 78.8992 5.72414C78.8923 5.77207 78.8784 5.81316 78.8645 5.8474C78.8505 5.88164 78.8297 5.90218 78.8088 5.91587C78.788 5.92957 78.7671 5.93642 78.7323 5.93642H76.8962V10.093C76.8962 10.1204 76.8893 10.1478 76.8753 10.1683C76.8614 10.1889 76.8406 10.2026 76.8058 10.2163C76.771 10.23 76.7293 10.2437 76.6667 10.2505C76.6111 10.2573 76.5346 10.2642 76.4441 10.2642C76.3607 10.2642 76.2842 10.2573 76.2285 10.2505C76.1729 10.2437 76.1242 10.23 76.0894 10.2163C76.0547 10.2026 76.0338 10.182 76.0199 10.1683C76.006 10.1478 75.999 10.1272 75.999 10.093V5.46392C75.999 5.35436 76.0268 5.27903 76.0755 5.22425C76.1242 5.16947 76.1938 5.14893 76.2772 5.14893H78.7323C78.7601 5.14893 78.788 5.15577 78.8088 5.17632C78.8297 5.19001 78.8436 5.2174 78.8645 5.25164C78.8784 5.28588 78.8923 5.32697 78.8992 5.3749C78.9062 5.41599 78.9131 5.47077 78.9131 5.53925Z" fill="white"/>
<path d="M83.8929 7.47703C83.8929 7.61399 83.8581 7.7167 83.7886 7.77148C83.719 7.83311 83.6356 7.86051 83.5452 7.86051H80.332C80.332 8.12757 80.3598 8.36724 80.4154 8.57952C80.4711 8.7918 80.5615 8.97669 80.6867 9.12734C80.8119 9.27799 80.9788 9.40125 81.1805 9.47657C81.3822 9.55875 81.6326 9.59983 81.9247 9.59983C82.1542 9.59983 82.3628 9.57929 82.5437 9.54505C82.7245 9.51081 82.8844 9.46288 83.0166 9.42179C83.1487 9.37386 83.26 9.33277 83.3435 9.29853C83.4269 9.26429 83.4965 9.24375 83.5382 9.24375C83.566 9.24375 83.5869 9.2506 83.6078 9.26429C83.6286 9.27799 83.6425 9.29853 83.6564 9.31908C83.6704 9.34647 83.6773 9.3807 83.6843 9.42179C83.6912 9.46973 83.6912 9.51766 83.6912 9.58614C83.6912 9.63407 83.6912 9.67516 83.6843 9.7094C83.6773 9.74364 83.6773 9.77103 83.6704 9.79842C83.6634 9.82581 83.6564 9.84635 83.6425 9.87374C83.6286 9.89429 83.6147 9.91483 83.5938 9.93537C83.573 9.95591 83.5173 9.99016 83.42 10.0312C83.3226 10.0723 83.1974 10.1203 83.0375 10.1613C82.8844 10.2024 82.7036 10.2435 82.495 10.2778C82.2933 10.312 82.0707 10.3257 81.8412 10.3257C81.4378 10.3257 81.0901 10.2709 80.7841 10.1613C80.485 10.0518 80.2277 9.88744 80.019 9.66831C79.8104 9.44918 79.6574 9.18212 79.553 8.85343C79.4487 8.52474 79.3931 8.14811 79.3931 7.70985C79.3931 7.29899 79.4487 6.92237 79.553 6.59367C79.6643 6.26498 79.8173 5.98422 80.019 5.75825C80.2207 5.52542 80.4711 5.35423 80.7562 5.23097C81.0483 5.10771 81.3683 5.04608 81.7299 5.04608C82.1125 5.04608 82.4393 5.10771 82.7106 5.23097C82.9818 5.35423 83.2044 5.51173 83.3782 5.71716C83.5521 5.92259 83.6773 6.16227 83.7608 6.43618C83.8442 6.71009 83.886 7.00454 83.886 7.31953V7.47703H83.8929ZM82.9888 7.21682C83.0027 6.75117 82.8983 6.38824 82.6758 6.12803C82.4532 5.86781 82.1264 5.73086 81.6952 5.73086C81.4726 5.73086 81.2778 5.77194 81.1109 5.85412C80.944 5.93629 80.8049 6.04585 80.6936 6.18281C80.5824 6.31976 80.4919 6.47726 80.4293 6.6553C80.3668 6.83334 80.332 7.02508 80.325 7.21682H82.9888Z" fill="white"/>
<path d="M89.5335 10.093C89.5335 10.1204 89.5266 10.1478 89.5127 10.1683C89.4987 10.1889 89.4779 10.2026 89.4431 10.2163C89.4083 10.23 89.3666 10.2436 89.311 10.2505C89.2553 10.2573 89.1788 10.2642 89.0954 10.2642C89.005 10.2642 88.9284 10.2573 88.8728 10.2505C88.8172 10.2436 88.7685 10.23 88.7407 10.2163C88.7059 10.2026 88.685 10.182 88.6711 10.1683C88.6572 10.1478 88.6503 10.1272 88.6503 10.093V7.98389H86.1604V10.093C86.1604 10.1204 86.1534 10.1478 86.1395 10.1683C86.1256 10.1889 86.1047 10.2026 86.07 10.2163C86.0352 10.23 85.9935 10.2436 85.9309 10.2505C85.8752 10.2573 85.7987 10.2642 85.7083 10.2642C85.6248 10.2642 85.5483 10.2573 85.4927 10.2505C85.4371 10.2436 85.3884 10.23 85.3536 10.2163C85.3188 10.2026 85.298 10.182 85.284 10.1683C85.2701 10.1478 85.2632 10.1272 85.2632 10.093V5.28588C85.2632 5.25849 85.2701 5.2311 85.284 5.21055C85.298 5.19001 85.3188 5.17631 85.3536 5.15577C85.3884 5.14207 85.4371 5.12838 85.4927 5.12153C85.5483 5.11468 85.6248 5.11469 85.7083 5.11469C85.7987 5.11469 85.8752 5.11468 85.9309 5.12153C85.9865 5.12838 86.0352 5.13523 86.07 5.15577C86.1047 5.16947 86.1256 5.19001 86.1395 5.21055C86.1534 5.2311 86.1604 5.25164 86.1604 5.28588V7.24433H88.6503V5.28588C88.6503 5.25849 88.6572 5.2311 88.6711 5.21055C88.685 5.19001 88.7059 5.17631 88.7407 5.15577C88.7754 5.14207 88.8172 5.12838 88.8728 5.12153C88.9284 5.11468 89.005 5.11469 89.0954 5.11469C89.1788 5.11469 89.2553 5.11468 89.311 5.12153C89.3666 5.12838 89.4153 5.13523 89.4431 5.15577C89.4779 5.16947 89.4987 5.19001 89.5127 5.21055C89.5266 5.2311 89.5335 5.25164 89.5335 5.28588V10.093Z" fill="white"/>
<path d="M94.6105 5.54609C94.6105 5.61457 94.6035 5.6762 94.5966 5.73098C94.5896 5.77892 94.5757 5.82 94.5618 5.85424C94.5479 5.88848 94.527 5.90903 94.5062 5.92957C94.4853 5.94326 94.4575 5.95696 94.4227 5.95696H92.9552V10.0999C92.9552 10.1272 92.9482 10.1546 92.9343 10.1752C92.9204 10.1957 92.8996 10.2094 92.8648 10.2231C92.83 10.2368 92.7883 10.2505 92.7257 10.2574C92.67 10.2642 92.5935 10.271 92.5031 10.271C92.4197 10.271 92.3432 10.2642 92.2875 10.2574C92.2319 10.2505 92.1832 10.2368 92.1484 10.2231C92.1136 10.2094 92.0928 10.1889 92.0789 10.1752C92.065 10.1546 92.058 10.1341 92.058 10.0999V5.95696H90.5905C90.5627 5.95696 90.5349 5.95011 90.514 5.92957C90.4931 5.91587 90.4723 5.88848 90.4583 5.85424C90.4444 5.82 90.4305 5.77892 90.4236 5.73098C90.4166 5.6762 90.4097 5.62142 90.4097 5.54609C90.4097 5.48446 90.4166 5.42283 90.4236 5.3749C90.4305 5.32697 90.4444 5.28588 90.4583 5.25164C90.4723 5.2174 90.4931 5.19001 90.514 5.17632C90.5349 5.16262 90.5627 5.14893 90.5905 5.14893H94.4157C94.4436 5.14893 94.4714 5.15577 94.4922 5.17632C94.5131 5.19001 94.534 5.2174 94.5479 5.25164C94.5618 5.28588 94.5757 5.32697 94.5827 5.38175C94.6105 5.42284 94.6105 5.48446 94.6105 5.54609Z" fill="white"/>
<path d="M98.902 9.36016C98.902 9.42179 98.902 9.46973 98.895 9.51766C98.8881 9.5656 98.8881 9.59983 98.8742 9.62722C98.8672 9.65462 98.8533 9.68201 98.8394 9.7094C98.8255 9.72994 98.7977 9.76418 98.7559 9.81211C98.7142 9.8532 98.6308 9.91483 98.5264 9.97646C98.4151 10.0449 98.2969 10.0997 98.1578 10.1545C98.0257 10.2093 97.8727 10.2504 97.7127 10.2778C97.5527 10.312 97.3858 10.3257 97.2189 10.3257C96.8711 10.3257 96.5582 10.2709 96.2869 10.1545C96.0157 10.0381 95.7862 9.87374 95.6053 9.65461C95.4245 9.43549 95.2854 9.16842 95.188 8.84658C95.0907 8.52474 95.042 8.16181 95.042 7.7441C95.042 7.2716 95.0976 6.86073 95.2159 6.52519C95.3341 6.18281 95.4941 5.9089 95.6958 5.68977C95.8974 5.47064 96.1409 5.31314 96.4191 5.20358C96.6973 5.10086 96.9963 5.04608 97.3163 5.04608C97.4693 5.04608 97.6223 5.05978 97.7683 5.08717C97.9144 5.11456 98.0465 5.15565 98.1717 5.19673C98.2969 5.24467 98.4012 5.29945 98.4986 5.35423C98.596 5.41586 98.6655 5.46379 98.7073 5.51173C98.749 5.55281 98.7838 5.58705 98.7977 5.61445C98.8116 5.64184 98.8255 5.66923 98.8394 5.70346C98.8533 5.7377 98.8603 5.77879 98.8603 5.81988C98.8672 5.86096 98.8672 5.91575 98.8672 5.97738C98.8672 6.11433 98.8533 6.2102 98.8185 6.27183C98.7838 6.32661 98.749 6.354 98.7003 6.354C98.6447 6.354 98.5821 6.32661 98.5125 6.26498C98.443 6.20335 98.3526 6.14172 98.2413 6.07324C98.13 6.00477 98.0048 5.93629 97.8448 5.88151C97.6918 5.81988 97.511 5.79249 97.3024 5.79249C96.8711 5.79249 96.5443 5.95683 96.3147 6.27868C96.0852 6.60737 95.967 7.07986 95.967 7.69616C95.967 8.00431 95.9948 8.27822 96.0574 8.51104C96.12 8.74387 96.2035 8.94245 96.3217 9.0931C96.4399 9.2506 96.579 9.36701 96.746 9.44234C96.9129 9.51766 97.1076 9.55875 97.3232 9.55875C97.5319 9.55875 97.7127 9.52451 97.8657 9.46288C98.0187 9.40125 98.1578 9.32592 98.2691 9.2506C98.3804 9.17527 98.4777 9.10679 98.5542 9.04517C98.6307 8.98354 98.6934 8.9493 98.7351 8.9493C98.7629 8.9493 98.7838 8.95614 98.7977 8.96984C98.8185 8.98354 98.8324 9.01093 98.8464 9.04517C98.8603 9.0794 98.8672 9.12049 98.8742 9.17527C98.902 9.23006 98.902 9.29168 98.902 9.36016Z" fill="white"/>
<path d="M103.513 5.54609C103.513 5.61457 103.506 5.6762 103.499 5.73098C103.492 5.77892 103.479 5.82 103.465 5.85424C103.451 5.88848 103.43 5.90903 103.409 5.92957C103.388 5.95011 103.36 5.95696 103.325 5.95696H101.858V10.0999C101.858 10.1272 101.851 10.1546 101.837 10.1752C101.823 10.1957 101.802 10.2094 101.768 10.2231C101.733 10.2368 101.691 10.2505 101.628 10.2574C101.573 10.2642 101.496 10.271 101.406 10.271C101.322 10.271 101.246 10.2642 101.19 10.2574C101.135 10.2505 101.086 10.2368 101.051 10.2231C101.016 10.2094 100.996 10.1889 100.982 10.1752C100.968 10.1546 100.961 10.1341 100.961 10.0999V5.95696H99.4933C99.4655 5.95696 99.4377 5.95011 99.4168 5.92957C99.396 5.91587 99.3751 5.88848 99.3612 5.85424C99.3473 5.82 99.3334 5.77892 99.3264 5.73098C99.3194 5.6762 99.3125 5.62142 99.3125 5.54609C99.3125 5.48446 99.3194 5.42283 99.3264 5.3749C99.3334 5.32697 99.3473 5.28588 99.3612 5.25164C99.3751 5.2174 99.396 5.19001 99.4168 5.17632C99.4377 5.16262 99.4655 5.14893 99.4933 5.14893H103.319C103.346 5.14893 103.374 5.15577 103.395 5.17632C103.416 5.19001 103.437 5.2174 103.451 5.25164C103.465 5.28588 103.479 5.32697 103.485 5.38175C103.506 5.42284 103.513 5.48446 103.513 5.54609Z" fill="white"/>
<path d="M108.402 8.70973C108.402 8.96309 108.354 9.18907 108.256 9.38765C108.159 9.58624 108.013 9.75058 107.825 9.88754C107.63 10.0176 107.394 10.1204 107.109 10.1888C106.824 10.2573 106.49 10.2916 106.107 10.2916C105.989 10.2916 105.871 10.2916 105.76 10.2916C105.648 10.2916 105.537 10.2847 105.433 10.2779C105.328 10.271 105.224 10.2642 105.12 10.2573C105.015 10.2505 104.911 10.2436 104.814 10.2299C104.668 10.2094 104.563 10.1683 104.494 10.0861C104.424 10.0108 104.389 9.89439 104.389 9.74374V5.60085C104.389 5.45705 104.424 5.34063 104.487 5.26531C104.556 5.18998 104.654 5.14205 104.793 5.12835C104.883 5.11466 104.988 5.10781 105.092 5.10096C105.196 5.09412 105.307 5.08727 105.419 5.08042C105.53 5.07357 105.648 5.07357 105.766 5.06672C105.885 5.05988 106.01 5.05988 106.128 5.05988C106.476 5.05988 106.782 5.08727 107.039 5.14205C107.297 5.19683 107.512 5.28585 107.679 5.39542C107.846 5.50498 107.978 5.64194 108.055 5.79943C108.138 5.95693 108.18 6.14182 108.18 6.34725C108.18 6.62116 108.103 6.84714 107.957 7.03887C107.811 7.23061 107.596 7.36757 107.31 7.44974C107.665 7.52507 107.936 7.66887 108.117 7.88115C108.312 8.11397 108.402 8.38103 108.402 8.70973ZM107.324 6.47736C107.324 6.36095 107.304 6.25823 107.262 6.16236C107.22 6.06649 107.144 5.99117 107.046 5.92954C106.949 5.86791 106.817 5.81998 106.664 5.78574C106.504 5.7515 106.316 5.7378 106.093 5.7378C105.926 5.7378 105.766 5.74465 105.627 5.7515C105.488 5.75835 105.37 5.77204 105.273 5.77889V7.2717H106.184C106.559 7.2717 106.845 7.20322 107.039 7.06627C107.234 6.92931 107.324 6.73073 107.324 6.47736ZM107.484 8.72342C107.484 8.57962 107.457 8.45636 107.408 8.34679C107.359 8.23723 107.276 8.14821 107.164 8.07973C107.053 8.01125 106.914 7.95647 106.74 7.92223C106.566 7.888 106.365 7.86745 106.128 7.86745H105.252V9.57254C105.321 9.58624 105.391 9.59309 105.467 9.59993C105.544 9.60678 105.62 9.61363 105.697 9.61363C105.773 9.62048 105.85 9.62048 105.933 9.62733C106.01 9.63417 106.079 9.63417 106.149 9.63417C106.385 9.63417 106.587 9.61363 106.754 9.57254C106.921 9.53146 107.06 9.46983 107.171 9.3945C107.283 9.31918 107.359 9.22331 107.415 9.10689C107.463 8.99048 107.484 8.86038 107.484 8.72342Z" fill="white"/>
<path d="M114.258 7.63453C114.258 8.02485 114.203 8.38778 114.098 8.71647C113.994 9.04517 113.834 9.33277 113.632 9.5656C113.424 9.80527 113.166 9.99016 112.853 10.1271C112.54 10.2572 112.179 10.3257 111.768 10.3257C111.365 10.3257 111.017 10.2641 110.718 10.1477C110.419 10.0312 110.169 9.86005 109.974 9.63407C109.772 9.4081 109.626 9.13419 109.529 8.81919C109.431 8.49735 109.383 8.13442 109.383 7.7304C109.383 7.34008 109.431 6.97715 109.536 6.64845C109.64 6.31976 109.793 6.03216 110.002 5.79934C110.21 5.55966 110.468 5.37477 110.781 5.24467C111.094 5.11456 111.455 5.04608 111.873 5.04608C112.276 5.04608 112.624 5.10771 112.923 5.22412C113.222 5.34054 113.472 5.51173 113.667 5.73771C113.869 5.96368 114.015 6.23759 114.112 6.55259C114.21 6.86758 114.258 7.23051 114.258 7.63453ZM113.333 7.69616C113.333 7.43595 113.305 7.18943 113.257 6.9566C113.208 6.72378 113.125 6.5252 113.013 6.34715C112.902 6.17596 112.749 6.03216 112.554 5.93629C112.36 5.83357 112.123 5.78564 111.831 5.78564C111.567 5.78564 111.337 5.83357 111.142 5.92259C110.948 6.01846 110.795 6.14857 110.669 6.31292C110.544 6.48411 110.454 6.68269 110.391 6.91552C110.329 7.14834 110.301 7.40171 110.301 7.67562C110.301 7.93583 110.329 8.1892 110.377 8.41517C110.426 8.648 110.51 8.84658 110.621 9.02462C110.732 9.20266 110.892 9.33277 111.08 9.43549C111.275 9.5382 111.511 9.58614 111.803 9.58614C112.067 9.58614 112.297 9.5382 112.485 9.44918C112.673 9.36016 112.839 9.23005 112.958 9.05886C113.083 8.89452 113.173 8.68908 113.229 8.46311C113.298 8.22344 113.333 7.97007 113.333 7.69616Z" fill="white"/>
<path d="M74.9559 19.3235C74.9559 19.3509 74.9489 19.3783 74.935 19.3989C74.9211 19.4194 74.9003 19.4331 74.8655 19.4468C74.8307 19.4605 74.789 19.4742 74.7333 19.481C74.6777 19.4879 74.6012 19.4947 74.5177 19.4947C74.4273 19.4947 74.3508 19.4879 74.2952 19.481C74.2395 19.4742 74.1908 19.4605 74.163 19.4468C74.1352 19.4331 74.1074 19.4125 74.0935 19.3989C74.0796 19.3783 74.0726 19.3578 74.0726 19.3235V17.2144H71.5827V19.3235C71.5827 19.3509 71.5758 19.3783 71.5619 19.3989C71.548 19.4194 71.5271 19.4331 71.4923 19.4468C71.4576 19.4605 71.4158 19.4742 71.3532 19.481C71.2976 19.4879 71.2211 19.4947 71.1307 19.4947C71.0472 19.4947 70.9707 19.4879 70.9151 19.481C70.8594 19.4742 70.8107 19.4605 70.776 19.4468C70.7412 19.4331 70.7203 19.4125 70.7064 19.3989C70.6925 19.3783 70.6855 19.3578 70.6855 19.3235V14.5164C70.6855 14.489 70.6925 14.4616 70.7064 14.4411C70.7203 14.4205 70.7412 14.4068 70.776 14.3863C70.8107 14.3726 70.8594 14.3589 70.9151 14.3521C70.9707 14.3452 71.0472 14.3452 71.1307 14.3452C71.2211 14.3452 71.2976 14.3452 71.3532 14.3521C71.4089 14.3589 71.4576 14.3658 71.4923 14.3863C71.5271 14.4 71.548 14.4205 71.5619 14.4411C71.5758 14.4616 71.5827 14.4822 71.5827 14.5164V16.4749H74.0726V14.5164C74.0726 14.489 74.0796 14.4616 74.0935 14.4411C74.1074 14.4205 74.1283 14.4068 74.163 14.3863C74.1978 14.3726 74.2395 14.3589 74.2952 14.3521C74.3508 14.3452 74.4273 14.3452 74.5177 14.3452C74.6012 14.3452 74.6777 14.3452 74.7333 14.3521C74.789 14.3589 74.8377 14.3658 74.8655 14.3863C74.9003 14.4 74.9211 14.4205 74.935 14.4411C74.9489 14.4616 74.9559 14.4822 74.9559 14.5164V19.3235Z" fill="white"/>
<path d="M80.784 16.7146C80.784 16.8516 80.7493 16.9543 80.6797 17.0091C80.6102 17.0707 80.5267 17.0981 80.4363 17.0981H77.2231C77.2231 17.3652 77.2509 17.6048 77.3066 17.8171C77.3622 18.0294 77.4526 18.2143 77.5778 18.3649C77.703 18.5156 77.8699 18.6389 78.0716 18.7142C78.2733 18.7964 78.5237 18.8374 78.8158 18.8374C79.0453 18.8374 79.2539 18.8169 79.4348 18.7827C79.6156 18.7484 79.7756 18.7005 79.9077 18.6594C80.0399 18.6115 80.1511 18.5704 80.2346 18.5361C80.3181 18.5019 80.3876 18.4814 80.4293 18.4814C80.4572 18.4814 80.478 18.4882 80.4989 18.5019C80.5198 18.5156 80.5337 18.5361 80.5476 18.5567C80.5615 18.5772 80.5684 18.6183 80.5754 18.6594C80.5823 18.7073 80.5823 18.7553 80.5823 18.8237C80.5823 18.8717 80.5823 18.9128 80.5754 18.947C80.5684 18.9812 80.5684 19.0086 80.5615 19.036C80.5545 19.0634 80.5476 19.084 80.5337 19.1114C80.5198 19.1319 80.5058 19.1524 80.485 19.173C80.4641 19.1935 80.4085 19.2278 80.3111 19.2689C80.2137 19.3099 80.0885 19.3579 79.9286 19.399C79.7756 19.44 79.5947 19.4811 79.3861 19.5154C79.1844 19.5496 78.9618 19.5633 78.7323 19.5633C78.3289 19.5633 77.9812 19.5085 77.6752 19.399C77.3692 19.2894 77.1188 19.125 76.9101 18.9059C76.7015 18.6868 76.5485 18.4197 76.4441 18.091C76.3398 17.7623 76.2842 17.3857 76.2842 16.9475C76.2842 16.5366 76.3398 16.16 76.4441 15.8313C76.5554 15.5026 76.7084 15.2218 76.9101 14.9959C77.1118 14.763 77.3622 14.5918 77.6473 14.4686C77.9395 14.3453 78.2594 14.2837 78.621 14.2837C79.0036 14.2837 79.3304 14.3453 79.6017 14.4686C79.8729 14.5918 80.0955 14.7493 80.2694 14.9548C80.4432 15.1602 80.5684 15.3999 80.6519 15.6738C80.7354 15.9477 80.7771 16.2421 80.7771 16.5571V16.7146H80.784ZM79.8799 16.4544C79.8938 15.9888 79.7895 15.6258 79.5669 15.3656C79.3444 15.1054 79.0175 14.9685 78.5863 14.9685C78.3637 14.9685 78.169 15.0096 78.0021 15.0917C77.8351 15.1739 77.696 15.2835 77.5848 15.4204C77.4735 15.5574 77.3831 15.7149 77.3205 15.8929C77.2579 16.071 77.2231 16.2627 77.2161 16.4544H79.8799Z" fill="white"/>
<path d="M82.043 21.0699C82.043 21.0973 82.0361 21.1178 82.0291 21.1315C82.0152 21.1452 81.9943 21.1589 81.9665 21.1726C81.9387 21.1863 81.897 21.1931 81.8483 21.2C81.7996 21.2068 81.7439 21.2137 81.6744 21.2137C81.5979 21.2137 81.5353 21.2068 81.4866 21.2C81.4379 21.1931 81.3962 21.1863 81.3684 21.1726C81.3406 21.1589 81.3127 21.1452 81.3058 21.1315C81.2919 21.1178 81.2849 21.0973 81.2849 21.0699V18.9265C81.2849 18.8375 81.2988 18.7759 81.3267 18.7485C81.3545 18.7211 81.4101 18.7074 81.4936 18.7074H81.8413C81.9735 18.5499 82.0987 18.365 82.2169 18.1596C82.3351 17.9542 82.4394 17.6939 82.5368 17.3858C82.6342 17.0708 82.7246 16.701 82.8081 16.2628C82.8915 15.8245 82.968 15.3041 83.0376 14.6946C83.0445 14.6467 83.0515 14.5988 83.0654 14.5577C83.0793 14.5166 83.0932 14.4823 83.121 14.4618C83.1419 14.4413 83.1697 14.4207 83.2045 14.407C83.2393 14.3933 83.274 14.3865 83.3158 14.3865H86.0282C86.1117 14.3865 86.1812 14.4139 86.2299 14.4618C86.2786 14.5166 86.3064 14.5919 86.3064 14.7015V18.7211H86.988C87.0645 18.7211 87.1201 18.7348 87.148 18.7622C87.1827 18.7896 87.1966 18.8512 87.1966 18.9402V21.0836C87.1966 21.111 87.1897 21.1315 87.1827 21.1452C87.1688 21.1589 87.148 21.1726 87.1201 21.1863C87.0923 21.2 87.0506 21.2068 86.9949 21.2137C86.9463 21.2205 86.8837 21.2274 86.8141 21.2274C86.7446 21.2274 86.682 21.2205 86.6333 21.2137C86.5846 21.2068 86.5498 21.2 86.515 21.1863C86.4872 21.1726 86.4594 21.1589 86.4525 21.1452C86.4385 21.1315 86.4316 21.111 86.4316 21.0836V19.4675H82.0291V21.0699H82.043ZM85.4162 15.1055H83.8722C83.7957 15.6875 83.7192 16.1737 83.6357 16.5778C83.5522 16.9749 83.4688 17.3105 83.3784 17.5844C83.2879 17.8583 83.1906 18.0843 83.0863 18.2555C82.9819 18.4266 82.8776 18.5773 82.7733 18.7143H85.4231V15.1055H85.4162Z" fill="white"/>
<path d="M92.2042 17.9405C92.2042 18.1939 92.1555 18.4198 92.0581 18.6184C91.9607 18.817 91.8147 18.9814 91.6269 19.1183C91.4322 19.2484 91.1957 19.3511 90.9105 19.4196C90.6254 19.4881 90.2916 19.5223 89.909 19.5223C89.7908 19.5223 89.6726 19.5223 89.5613 19.5223C89.45 19.5223 89.3387 19.5155 89.2344 19.5086C89.1301 19.5018 89.0258 19.4949 88.9214 19.4881C88.8171 19.4813 88.7128 19.4744 88.6154 19.4607C88.4694 19.4402 88.365 19.3991 88.2955 19.3169C88.2259 19.2416 88.1912 19.1252 88.1912 18.9745V14.8316C88.1912 14.6878 88.2259 14.5714 88.2885 14.4961C88.3581 14.4208 88.4555 14.3728 88.5946 14.3591C88.685 14.3454 88.7893 14.3386 88.8936 14.3317C88.9979 14.3249 89.1092 14.318 89.2205 14.3112C89.3318 14.3043 89.45 14.3043 89.5682 14.2975C89.6865 14.2907 89.8117 14.2906 89.9299 14.2906C90.2776 14.2906 90.5837 14.318 90.841 14.3728C91.0983 14.4276 91.3139 14.5166 91.4808 14.6262C91.6478 14.7358 91.7799 14.8727 91.8564 15.0302C91.9399 15.1877 91.9816 15.3726 91.9816 15.578C91.9816 15.8519 91.9051 16.0779 91.7591 16.2697C91.613 16.4614 91.3974 16.5983 91.1122 16.6805C91.4669 16.7558 91.7382 16.8996 91.919 17.1119C92.1138 17.3516 92.2042 17.6187 92.2042 17.9405ZM91.1262 15.7081C91.1262 15.5917 91.1053 15.489 91.0636 15.3931C91.0218 15.2973 90.9453 15.2219 90.8479 15.1603C90.7506 15.0987 90.6184 15.0508 90.4654 15.0165C90.3055 14.9823 90.1177 14.9686 89.8951 14.9686C89.7282 14.9686 89.5682 14.9754 89.4291 14.9823C89.29 14.9891 89.1718 15.0028 89.0744 15.0097V16.5025H89.9855C90.3611 16.5025 90.6463 16.434 90.841 16.297C91.0357 16.1601 91.1262 15.9684 91.1262 15.7081ZM91.2861 17.961C91.2861 17.8172 91.2583 17.694 91.2096 17.5844C91.1609 17.4749 91.0775 17.3858 90.9662 17.3174C90.8549 17.2489 90.7158 17.1941 90.5419 17.1599C90.3681 17.1256 90.1664 17.1051 89.9299 17.1051H89.0536V18.8102C89.1231 18.8239 89.1927 18.8307 89.2692 18.8376C89.3457 18.8444 89.4222 18.8513 89.4987 18.8513C89.5752 18.8581 89.6517 18.8581 89.7352 18.865C89.8117 18.8718 89.8812 18.8718 89.9508 18.8718C90.1872 18.8718 90.3889 18.8513 90.5558 18.8102C90.7228 18.7691 90.8619 18.7075 90.9731 18.6321C91.0844 18.5568 91.1609 18.4609 91.2166 18.3445C91.2583 18.2213 91.2861 18.098 91.2861 17.961Z" fill="white"/>
<path d="M97.8583 19.3305C97.8583 19.3579 97.8514 19.3784 97.8375 19.399C97.8235 19.4195 97.8027 19.4401 97.7679 19.4469C97.7331 19.4606 97.6914 19.4674 97.6358 19.4743C97.5801 19.4811 97.5036 19.488 97.4202 19.488C97.3367 19.488 97.2602 19.4811 97.2046 19.4743C97.1489 19.4674 97.1002 19.4606 97.0655 19.4469C97.0307 19.4332 97.0029 19.4195 96.989 19.399C96.975 19.3784 96.9681 19.3579 96.9681 19.3305V16.564C96.9681 16.427 96.975 16.2832 96.982 16.1394C96.989 15.9956 96.9959 15.8518 97.0098 15.7149C96.9264 15.8587 96.8359 15.9956 96.7386 16.1326C96.6412 16.2695 96.5369 16.4065 96.4395 16.5435L94.3669 19.3305C94.3391 19.3579 94.3183 19.3853 94.2974 19.4058C94.2765 19.4264 94.2557 19.4469 94.2209 19.4538C94.1931 19.4674 94.1513 19.4743 94.1027 19.4811C94.054 19.488 93.9983 19.488 93.9288 19.488C93.8523 19.488 93.7827 19.4811 93.734 19.4743C93.6854 19.4674 93.6436 19.4606 93.6088 19.4469C93.581 19.4332 93.5532 19.4195 93.5463 19.399C93.5323 19.3784 93.5254 19.3579 93.5254 19.3305V14.5097C93.5254 14.4823 93.5323 14.4617 93.5463 14.4412C93.5602 14.4207 93.581 14.4001 93.6158 14.3864C93.6506 14.3727 93.6993 14.359 93.7549 14.359C93.8105 14.3522 93.8801 14.3522 93.9636 14.3522C94.1374 14.3522 94.2557 14.3659 94.3183 14.3933C94.3808 14.4207 94.4156 14.4617 94.4156 14.5165V17.2967C94.4156 17.4337 94.4087 17.5706 94.4017 17.7076C94.3948 17.8445 94.3878 17.9815 94.3739 18.1184C94.4574 17.9815 94.5408 17.8514 94.6243 17.7213C94.7077 17.5912 94.7981 17.4611 94.8955 17.3378L96.9959 14.5097C97.0168 14.4823 97.0376 14.4549 97.0655 14.4343C97.0863 14.4138 97.1211 14.3933 97.1489 14.3864C97.1837 14.3727 97.2254 14.3659 97.2741 14.359C97.3228 14.3522 97.3854 14.3522 97.4619 14.3522C97.5384 14.3522 97.601 14.3522 97.6566 14.359C97.7123 14.3659 97.754 14.3727 97.7818 14.3864C97.8096 14.4001 97.8375 14.4207 97.8444 14.4412C97.8583 14.4617 97.8653 14.4891 97.8653 14.5165V19.3305H97.8583Z" fill="white"/>
<path d="M106.01 19.3646C106.01 19.3852 106.003 19.4057 105.989 19.4194C105.975 19.4331 105.947 19.4468 105.912 19.4605C105.877 19.4742 105.836 19.481 105.78 19.4879C105.724 19.4947 105.655 19.4947 105.565 19.4947C105.46 19.4947 105.384 19.4879 105.321 19.481C105.259 19.4742 105.21 19.4673 105.168 19.4536C105.133 19.4399 105.105 19.4262 105.085 19.4057C105.064 19.3852 105.05 19.3646 105.043 19.3372L104.521 18.0978C104.452 17.9403 104.382 17.7965 104.306 17.6869C104.229 17.5705 104.153 17.4746 104.062 17.4062C103.972 17.3377 103.868 17.2829 103.749 17.2487C103.631 17.2144 103.492 17.2007 103.332 17.2007H102.97V19.3715C102.97 19.392 102.963 19.4057 102.943 19.4194C102.922 19.4331 102.901 19.4468 102.859 19.4605C102.817 19.4742 102.776 19.481 102.72 19.4879C102.664 19.4947 102.595 19.4947 102.525 19.4947C102.449 19.4947 102.379 19.4947 102.324 19.4879C102.268 19.481 102.219 19.4742 102.184 19.4605C102.15 19.4468 102.122 19.4331 102.101 19.4194C102.08 19.4057 102.073 19.3852 102.073 19.3715V17.1939H101.711C101.552 17.1939 101.412 17.2076 101.294 17.2418C101.176 17.2761 101.065 17.3308 100.974 17.3993C100.877 17.4678 100.793 17.5637 100.724 17.6801C100.647 17.7965 100.578 17.9334 100.508 18.0909L99.9866 19.3304C99.9797 19.3578 99.9658 19.3783 99.9449 19.3989C99.924 19.4194 99.8962 19.4331 99.8614 19.4468C99.8267 19.4605 99.778 19.4673 99.7154 19.4742C99.6528 19.481 99.5693 19.4879 99.472 19.4879C99.3885 19.4879 99.319 19.4879 99.2633 19.481C99.2077 19.4742 99.159 19.4673 99.1242 19.4536C99.0894 19.4399 99.0686 19.4262 99.0477 19.4126C99.0338 19.3989 99.0269 19.3783 99.0269 19.3578C99.0269 19.3372 99.0338 19.3098 99.0408 19.2756C99.0477 19.2414 99.0686 19.2003 99.0894 19.1455L99.625 17.9334C99.6945 17.7759 99.771 17.6321 99.8475 17.5089C99.924 17.3856 100.014 17.2829 100.098 17.1939C100.188 17.1049 100.286 17.0295 100.383 16.9679C100.487 16.9063 100.599 16.8583 100.724 16.8173V16.8036C100.64 16.7762 100.55 16.7419 100.467 16.694C100.383 16.6529 100.3 16.5844 100.216 16.5091C100.133 16.4269 100.049 16.3311 99.9727 16.2078C99.8962 16.0845 99.8128 15.9339 99.7363 15.7559L99.2842 14.6944C99.2633 14.6465 99.2494 14.6054 99.2425 14.5712C99.2285 14.537 99.2285 14.5027 99.2285 14.4685C99.2285 14.4479 99.2355 14.4342 99.2494 14.4205C99.2633 14.4068 99.2842 14.3931 99.312 14.3795C99.3398 14.3658 99.3885 14.3589 99.4441 14.3521C99.4998 14.3452 99.5693 14.3452 99.6598 14.3452C99.7571 14.3452 99.8406 14.3452 99.9032 14.3521C99.9658 14.3589 100.021 14.3658 100.063 14.3795C100.105 14.3931 100.133 14.4137 100.154 14.4342C100.174 14.4548 100.188 14.4822 100.195 14.5096L100.626 15.6189C100.689 15.7695 100.752 15.9065 100.821 16.0161C100.891 16.1256 100.967 16.2146 101.051 16.2831C101.134 16.3516 101.232 16.3995 101.343 16.4338C101.447 16.4612 101.572 16.4817 101.711 16.4817H102.073V14.4616C102.073 14.4411 102.08 14.4274 102.101 14.4137C102.122 14.4 102.143 14.3863 102.184 14.3795C102.219 14.3726 102.268 14.3658 102.324 14.3589C102.379 14.3521 102.449 14.3521 102.525 14.3521C102.602 14.3521 102.664 14.3521 102.72 14.3589C102.776 14.3658 102.824 14.3726 102.859 14.3795C102.894 14.3863 102.922 14.4 102.943 14.4137C102.963 14.4274 102.97 14.4479 102.97 14.4616V16.4817H103.332C103.471 16.4817 103.596 16.468 103.708 16.4338C103.819 16.3995 103.916 16.3516 104.007 16.2831C104.097 16.2146 104.174 16.1256 104.243 16.0161C104.313 15.9065 104.382 15.7764 104.438 15.6257L104.897 14.5164C104.911 14.489 104.925 14.4616 104.946 14.4411C104.959 14.4205 104.987 14.4 105.022 14.3863C105.057 14.3726 105.105 14.3589 105.161 14.3589C105.224 14.3521 105.3 14.3521 105.398 14.3521C105.481 14.3521 105.558 14.3521 105.613 14.3589C105.669 14.3658 105.711 14.3726 105.745 14.3863C105.773 14.4 105.801 14.4137 105.808 14.4274C105.822 14.4411 105.829 14.4616 105.829 14.4753C105.829 14.5096 105.822 14.5438 105.815 14.578C105.808 14.6123 105.787 14.6534 105.773 14.7013L105.307 15.7627C105.231 15.9407 105.154 16.0914 105.071 16.2078C104.987 16.3242 104.904 16.4269 104.82 16.5023C104.737 16.5776 104.653 16.6461 104.577 16.6871C104.493 16.7351 104.41 16.7693 104.333 16.7967V16.8104C104.459 16.8515 104.57 16.9063 104.674 16.9679C104.779 17.0295 104.876 17.1049 104.959 17.1939C105.05 17.2829 105.133 17.3925 105.21 17.5157C105.286 17.639 105.363 17.7828 105.432 17.9403L105.961 19.1523C105.975 19.1797 105.982 19.2003 105.989 19.2208C105.996 19.2414 106.003 19.2619 106.01 19.2824C106.017 19.303 106.017 19.3167 106.024 19.3304C106.01 19.3441 106.01 19.3509 106.01 19.3646Z" fill="white"/>
<path d="M111.525 19.3305C111.525 19.3579 111.518 19.3784 111.504 19.399C111.49 19.4195 111.469 19.4401 111.435 19.4469C111.4 19.4606 111.358 19.4674 111.303 19.4743C111.247 19.4811 111.17 19.488 111.087 19.488C111.003 19.488 110.927 19.4811 110.871 19.4743C110.816 19.4674 110.767 19.4606 110.732 19.4469C110.697 19.4332 110.67 19.4195 110.656 19.399C110.642 19.3784 110.635 19.3579 110.635 19.3305V16.564C110.635 16.427 110.642 16.2832 110.649 16.1394C110.656 15.9956 110.663 15.8518 110.677 15.7149C110.593 15.8587 110.503 15.9956 110.405 16.1326C110.308 16.2695 110.204 16.4065 110.106 16.5435L108.034 19.3305C108.006 19.3579 107.985 19.3853 107.964 19.4058C107.943 19.4264 107.922 19.4469 107.888 19.4538C107.86 19.4674 107.818 19.4743 107.769 19.4811C107.721 19.488 107.665 19.488 107.596 19.488C107.519 19.488 107.449 19.4811 107.401 19.4743C107.352 19.4674 107.31 19.4606 107.276 19.4469C107.248 19.4332 107.22 19.4195 107.213 19.399C107.199 19.3784 107.192 19.3579 107.192 19.3305V14.5097C107.192 14.4823 107.199 14.4617 107.213 14.4412C107.227 14.4207 107.248 14.4001 107.283 14.3864C107.317 14.3727 107.366 14.359 107.422 14.359C107.477 14.3522 107.547 14.3522 107.63 14.3522C107.804 14.3522 107.922 14.3659 107.985 14.3933C108.048 14.4207 108.082 14.4617 108.082 14.5165V17.2967C108.082 17.4337 108.075 17.5706 108.068 17.7076C108.062 17.8445 108.055 17.9815 108.041 18.1184C108.124 17.9815 108.208 17.8514 108.291 17.7213C108.374 17.5912 108.465 17.4611 108.562 17.3378L110.663 14.5097C110.684 14.4823 110.704 14.4549 110.732 14.4343C110.753 14.4138 110.788 14.3933 110.816 14.3864C110.85 14.3727 110.892 14.3659 110.941 14.359C110.99 14.3522 111.052 14.3522 111.129 14.3522C111.205 14.3522 111.268 14.3522 111.323 14.359C111.379 14.3659 111.421 14.3727 111.449 14.3864C111.476 14.4001 111.504 14.4207 111.511 14.4412C111.525 14.4617 111.532 14.4891 111.532 14.5165V19.3305H111.525Z" fill="white"/>
<path d="M119.349 19.2756C119.356 19.3509 119.329 19.4057 119.273 19.4399C119.217 19.4741 119.106 19.4878 118.939 19.4878C118.849 19.4878 118.772 19.4878 118.717 19.481C118.661 19.4741 118.612 19.4673 118.577 19.4604C118.543 19.4467 118.522 19.4331 118.508 19.4125C118.494 19.392 118.487 19.3646 118.48 19.3372L118.125 16.5296C118.111 16.4269 118.104 16.3242 118.091 16.2078C118.077 16.0914 118.07 15.9749 118.056 15.8585C118.042 15.7421 118.035 15.6257 118.028 15.5093C118.021 15.3929 118.007 15.2833 118 15.1806L117.993 15.0573C117.958 15.1601 117.924 15.2696 117.889 15.386C117.854 15.5024 117.812 15.6189 117.771 15.7353C117.729 15.8517 117.687 15.9681 117.652 16.0845C117.618 16.2009 117.576 16.3105 117.548 16.4132L116.526 19.2619C116.512 19.3029 116.491 19.3372 116.477 19.3714C116.456 19.3988 116.428 19.4262 116.394 19.4399C116.359 19.4604 116.317 19.4673 116.261 19.4741C116.206 19.481 116.143 19.4878 116.067 19.4878C115.99 19.4878 115.928 19.481 115.879 19.4741C115.83 19.4673 115.788 19.4536 115.754 19.4399C115.719 19.4262 115.691 19.3988 115.67 19.3714C115.649 19.344 115.629 19.3098 115.615 19.2619L114.627 16.4063C114.592 16.3036 114.551 16.2009 114.516 16.0845C114.481 15.9681 114.439 15.8517 114.404 15.7353C114.37 15.6189 114.328 15.4956 114.293 15.3792C114.258 15.2628 114.224 15.1532 114.203 15.0505L114.196 15.1738C114.182 15.2765 114.175 15.386 114.161 15.5024C114.147 15.6189 114.14 15.7353 114.126 15.8517C114.112 15.9681 114.098 16.0845 114.091 16.2009C114.078 16.3173 114.071 16.42 114.064 16.5228L113.73 19.2824C113.723 19.3235 113.716 19.3577 113.702 19.3851C113.688 19.4125 113.667 19.433 113.625 19.4467C113.591 19.4604 113.542 19.4673 113.486 19.4741C113.431 19.481 113.354 19.481 113.257 19.481C113.166 19.481 113.097 19.4741 113.041 19.4673C112.986 19.4604 112.951 19.4467 112.923 19.4331C112.895 19.4125 112.881 19.392 112.874 19.3646C112.867 19.3372 112.867 19.3029 112.874 19.2687L113.41 14.715C113.431 14.5985 113.466 14.5164 113.535 14.4547C113.598 14.3931 113.695 14.3657 113.82 14.3657H114.251C114.356 14.3657 114.446 14.3726 114.523 14.3931C114.599 14.4068 114.662 14.4342 114.71 14.4753C114.766 14.5164 114.808 14.5643 114.843 14.6328C114.877 14.7013 114.912 14.7834 114.947 14.8793L115.67 16.9268C115.712 17.05 115.754 17.1801 115.795 17.3034C115.837 17.4267 115.879 17.5568 115.921 17.68C115.955 17.8033 115.997 17.9197 116.032 18.043C116.067 18.1594 116.095 18.2758 116.129 18.3785H116.143C116.178 18.2689 116.206 18.1525 116.241 18.0293C116.275 17.906 116.31 17.7827 116.352 17.6526C116.394 17.5294 116.435 17.3993 116.477 17.276C116.519 17.1528 116.56 17.0295 116.602 16.9199L117.326 14.8862C117.353 14.7971 117.388 14.7218 117.423 14.6533C117.458 14.5849 117.499 14.5369 117.548 14.4958C117.597 14.4547 117.659 14.4274 117.729 14.4068C117.798 14.3863 117.882 14.3794 117.986 14.3794H118.411C118.543 14.3794 118.64 14.4068 118.71 14.4616C118.779 14.5164 118.814 14.5985 118.828 14.715L119.349 19.2756Z" fill="white"/>
<path d="M125.24 16.8721C125.24 17.2625 125.185 17.6254 125.08 17.9541C124.976 18.2828 124.816 18.5704 124.614 18.8032C124.406 19.0429 124.148 19.2278 123.836 19.3647C123.523 19.5017 123.161 19.5633 122.751 19.5633C122.347 19.5633 121.999 19.5017 121.7 19.3853C121.401 19.2689 121.151 19.0977 120.956 18.8717C120.754 18.6457 120.608 18.3718 120.511 18.0568C120.414 17.735 120.365 17.372 120.365 16.968C120.365 16.5777 120.414 16.2148 120.518 15.8861C120.622 15.5574 120.775 15.2698 120.984 15.0369C121.193 14.7973 121.45 14.6124 121.763 14.4823C122.076 14.3522 122.438 14.2837 122.855 14.2837C123.258 14.2837 123.606 14.3453 123.905 14.4617C124.204 14.5781 124.454 14.7493 124.649 14.9753C124.851 15.2013 124.997 15.4752 125.094 15.7902C125.192 16.1052 125.24 16.4681 125.24 16.8721ZM124.308 16.9269C124.308 16.6667 124.281 16.4202 124.232 16.1874C124.183 15.9545 124.1 15.756 123.989 15.5779C123.877 15.4067 123.724 15.2629 123.529 15.1671C123.335 15.0643 123.098 15.0164 122.806 15.0164C122.542 15.0164 122.312 15.0643 122.118 15.1534C121.923 15.2492 121.77 15.3793 121.645 15.5437C121.52 15.7149 121.429 15.9135 121.367 16.1463C121.304 16.3791 121.276 16.6325 121.276 16.9064C121.276 17.1666 121.304 17.42 121.353 17.6459C121.401 17.8788 121.485 18.0773 121.596 18.2554C121.707 18.4334 121.867 18.5635 122.055 18.6662C122.25 18.769 122.486 18.8169 122.778 18.8169C123.043 18.8169 123.272 18.769 123.46 18.6799C123.655 18.5841 123.815 18.4608 123.933 18.2896C124.058 18.1253 124.148 17.9198 124.204 17.6939C124.281 17.461 124.308 17.2077 124.308 16.9269Z" fill="white"/>
<path d="M130.067 18.5978C130.067 18.6594 130.067 18.7073 130.06 18.7553C130.053 18.8032 130.053 18.8374 130.039 18.8648C130.032 18.8922 130.019 18.9196 130.005 18.947C129.991 18.9676 129.963 19.0018 129.921 19.0497C129.879 19.0908 129.796 19.1524 129.692 19.2141C129.58 19.2825 129.462 19.3373 129.323 19.3921C129.191 19.4469 129.038 19.488 128.878 19.5154C128.718 19.5496 128.551 19.5633 128.384 19.5633C128.036 19.5633 127.723 19.5085 127.452 19.3921C127.181 19.2757 126.951 19.1114 126.771 18.8922C126.59 18.6731 126.451 18.406 126.353 18.0842C126.256 17.7623 126.207 17.3994 126.207 16.9817C126.207 16.5092 126.263 16.0983 126.381 15.7628C126.499 15.4204 126.659 15.1465 126.861 14.9274C127.063 14.7083 127.306 14.5508 127.584 14.4412C127.863 14.3385 128.162 14.2837 128.482 14.2837C128.635 14.2837 128.788 14.2974 128.934 14.3248C129.08 14.3522 129.212 14.3933 129.337 14.4343C129.462 14.4823 129.567 14.5371 129.664 14.5918C129.761 14.6535 129.831 14.7014 129.873 14.7493C129.914 14.7904 129.949 14.8247 129.963 14.8521C129.977 14.8794 129.991 14.9068 130.005 14.9411C130.019 14.9753 130.026 15.0164 130.026 15.0575C130.032 15.0986 130.032 15.1534 130.032 15.215C130.032 15.3519 130.019 15.4478 129.984 15.5094C129.949 15.5642 129.914 15.5916 129.866 15.5916C129.81 15.5916 129.747 15.5642 129.678 15.5026C129.608 15.441 129.518 15.3793 129.407 15.3109C129.295 15.2424 129.17 15.1739 129.01 15.1191C128.857 15.0575 128.676 15.0301 128.468 15.0301C128.036 15.0301 127.71 15.1944 127.48 15.5163C127.251 15.845 127.132 16.3175 127.132 16.9338C127.132 17.2419 127.16 17.5158 127.223 17.7486C127.285 17.9815 127.369 18.1801 127.487 18.3307C127.605 18.4882 127.744 18.6046 127.911 18.6799C128.078 18.7553 128.273 18.7964 128.488 18.7964C128.697 18.7964 128.878 18.7621 129.031 18.7005C129.184 18.6389 129.323 18.5635 129.434 18.4882C129.546 18.4129 129.643 18.3444 129.72 18.2828C129.796 18.2211 129.859 18.1869 129.9 18.1869C129.928 18.1869 129.949 18.1938 129.963 18.2074C129.984 18.2211 129.998 18.2485 130.012 18.2828C130.026 18.317 130.032 18.3581 130.039 18.4129C130.067 18.4608 130.067 18.5224 130.067 18.5978Z" fill="white"/>
<path d="M134.671 14.7836C134.671 14.8521 134.664 14.9138 134.657 14.9685C134.65 15.0165 134.636 15.0576 134.623 15.0918C134.609 15.126 134.588 15.1466 134.567 15.1671C134.546 15.1877 134.518 15.1945 134.483 15.1945H133.016V19.3374C133.016 19.3648 133.009 19.3922 132.995 19.4127C132.981 19.4333 132.96 19.447 132.926 19.4607C132.891 19.4744 132.849 19.488 132.786 19.4949C132.731 19.5017 132.654 19.5086 132.564 19.5086C132.48 19.5086 132.404 19.5017 132.348 19.4949C132.293 19.488 132.244 19.4744 132.209 19.4607C132.174 19.447 132.154 19.4264 132.14 19.4127C132.126 19.3922 132.119 19.3716 132.119 19.3374V15.1945H130.651C130.623 15.1945 130.596 15.1877 130.575 15.1671C130.554 15.1534 130.533 15.126 130.519 15.0918C130.505 15.0576 130.491 15.0165 130.484 14.9685C130.477 14.9138 130.47 14.859 130.47 14.7836C130.47 14.722 130.477 14.6604 130.484 14.6125C130.491 14.5645 130.505 14.5234 130.519 14.4892C130.533 14.455 130.554 14.4276 130.575 14.4139C130.596 14.4002 130.623 14.3865 130.651 14.3865H134.477C134.504 14.3865 134.532 14.3933 134.553 14.4139C134.574 14.4276 134.595 14.455 134.609 14.4892C134.623 14.5234 134.636 14.5645 134.643 14.6193C134.671 14.6604 134.671 14.7152 134.671 14.7836Z" fill="white"/>
<path d="M139.901 19.3305C139.901 19.3579 139.894 19.3784 139.88 19.399C139.867 19.4195 139.846 19.4401 139.811 19.4469C139.776 19.4606 139.734 19.4674 139.679 19.4743C139.623 19.4811 139.547 19.488 139.463 19.488C139.38 19.488 139.303 19.4811 139.248 19.4743C139.192 19.4674 139.143 19.4606 139.108 19.4469C139.074 19.4332 139.046 19.4195 139.032 19.399C139.018 19.3784 139.011 19.3579 139.011 19.3305V16.564C139.011 16.427 139.018 16.2832 139.025 16.1394C139.032 15.9956 139.039 15.8518 139.053 15.7149C138.969 15.8587 138.879 15.9956 138.782 16.1326C138.684 16.2695 138.58 16.4065 138.483 16.5435L136.41 19.3305C136.382 19.3579 136.361 19.3853 136.34 19.4058C136.319 19.4264 136.299 19.4469 136.264 19.4538C136.236 19.4674 136.194 19.4743 136.146 19.4811C136.097 19.488 136.041 19.488 135.972 19.488C135.895 19.488 135.826 19.4811 135.777 19.4743C135.728 19.4674 135.687 19.4606 135.652 19.4469C135.624 19.4332 135.596 19.4195 135.589 19.399C135.575 19.3784 135.568 19.3579 135.568 19.3305V14.5097C135.568 14.4823 135.575 14.4617 135.589 14.4412C135.603 14.4207 135.624 14.4001 135.659 14.3864C135.694 14.3727 135.742 14.359 135.798 14.359C135.854 14.3522 135.923 14.3522 136.007 14.3522C136.18 14.3522 136.299 14.3659 136.361 14.3933C136.424 14.4207 136.459 14.4617 136.459 14.5165V17.2967C136.459 17.4337 136.452 17.5706 136.445 17.7076C136.438 17.8445 136.431 17.9815 136.417 18.1184C136.5 17.9815 136.584 17.8514 136.667 17.7213C136.751 17.5912 136.841 17.4611 136.938 17.3378L139.039 14.5097C139.06 14.4823 139.081 14.4549 139.108 14.4343C139.129 14.4138 139.164 14.3933 139.192 14.3864C139.227 14.3727 139.268 14.3659 139.317 14.359C139.366 14.3522 139.428 14.3522 139.505 14.3522C139.581 14.3522 139.644 14.3522 139.7 14.359C139.755 14.3659 139.797 14.3727 139.825 14.3864C139.853 14.4001 139.88 14.4207 139.887 14.4412C139.901 14.4617 139.908 14.4891 139.908 14.5165V19.3305H139.901Z" fill="white"/>
</svg>
