<svg xmlns="http://www.w3.org/2000/svg" height="650pt" version="1.1" viewBox="0 -10 650.001 650" width="650pt">
<g id="surface1">
<path d="M 167.742188 125.804688 L 482.257812 125.804688 L 482.257812 178.226562 L 167.742188 178.226562 Z M 167.742188 125.804688 " style=" stroke:none;fill-rule:nonzero;fill:rgb(96.862745%,80%,83.137255%);fill-opacity:1;" />
<path d="M 167.742188 450.804688 L 482.257812 450.804688 L 482.257812 503.226562 L 167.742188 503.226562 Z M 167.742188 450.804688 " style=" stroke:none;fill-rule:nonzero;fill:rgb(96.862745%,80%,83.137255%);fill-opacity:1;" />
<path d="M 482.257812 178.226562 L 10.484375 178.226562 L 10.484375 450.804688 L 639.515625 450.804688 L 639.515625 178.226562 Z M 241.128906 293.546875 C 241.128906 305.128906 231.742188 314.515625 220.160156 314.515625 L 157.257812 314.515625 L 157.257812 230.644531 L 220.160156 230.644531 C 231.742188 230.644531 241.128906 240.035156 241.128906 251.613281 Z M 366.933594 356.453125 C 366.933594 379.613281 348.160156 398.386719 325 398.386719 L 283.066406 398.386719 L 283.066406 230.644531 L 314.515625 230.644531 C 337.675781 230.644531 366.9375 249.421875 366.9375 272.582031 L 366.9375 356.453125 Z M 492.742188 314.515625 L 408.871094 314.515625 L 408.871094 230.644531 L 408.871094 314.515625 Z M 492.742188 314.515625 " style=" stroke:none;fill-rule:nonzero;fill:rgb(90.980392%,40%,49.019608%);fill-opacity:1;" />
<path d="M 220.160156 230.644531 L 157.257812 230.644531 L 157.257812 314.515625 L 220.160156 314.515625 C 231.742188 314.515625 241.128906 305.128906 241.128906 293.546875 L 241.128906 251.613281 C 241.128906 240.035156 231.742188 230.644531 220.160156 230.644531 Z M 220.160156 230.644531 " style=" stroke:none;fill-rule:nonzero;fill:rgb(90.980392%,40%,49.019608%);fill-opacity:1;" />
<path d="M 314.515625 230.644531 L 283.0625 230.644531 L 283.0625 398.386719 L 325 398.386719 C 348.160156 398.386719 366.933594 379.613281 366.933594 356.453125 L 366.933594 272.582031 C 366.933594 249.421875 337.675781 230.644531 314.515625 230.644531 Z M 314.515625 230.644531 " style=" stroke:none;fill-rule:nonzero;fill:rgb(90.980392%,40%,49.019608%);fill-opacity:1;" />
<path d="M 209.675781 83.871094 L 440.320312 83.871094 L 440.320312 104.839844 L 209.675781 104.839844 Z M 209.675781 83.871094 " style=" stroke:none;fill-rule:nonzero;fill:rgb(13.72549%,12.156863%,12.54902%);fill-opacity:1;" />
<path d="M 241.128906 52.417969 L 408.871094 52.417969 L 408.871094 73.386719 L 241.128906 73.386719 Z M 241.128906 52.417969 " style=" stroke:none;fill-rule:nonzero;fill:rgb(13.72549%,12.156863%,12.54902%);fill-opacity:1;" />
<path d="M 209.675781 524.195312 L 440.320312 524.195312 L 440.320312 545.160156 L 209.675781 545.160156 Z M 209.675781 524.195312 " style=" stroke:none;fill-rule:nonzero;fill:rgb(13.72549%,12.156863%,12.54902%);fill-opacity:1;" />
<path d="M 241.128906 555.644531 L 408.871094 555.644531 L 408.871094 576.613281 L 241.128906 576.613281 Z M 241.128906 555.644531 " style=" stroke:none;fill-rule:nonzero;fill:rgb(13.72549%,12.156863%,12.54902%);fill-opacity:1;" />
<path d="M 649.820312 177.355469 C 649.753906 176.644531 649.613281 175.941406 649.402344 175.257812 C 649.070312 174 648.460938 172.828125 647.621094 171.832031 C 647.1875 171.257812 646.6875 170.738281 646.132812 170.28125 C 645.902344 170.082031 645.777344 169.820312 645.523438 169.640625 L 545.160156 99.375 L 545.160156 10.484375 C 545.160156 4.695312 540.46875 0 534.675781 0 L 115.324219 0 C 109.53125 0 104.839844 4.695312 104.839844 10.484375 L 104.839844 99.378906 L 4.476562 169.617188 C 4.226562 169.796875 4.101562 170.058594 3.859375 170.257812 C 3.308594 170.71875 2.816406 171.242188 2.378906 171.808594 C 1.539062 172.808594 0.933594 173.976562 0.597656 175.238281 C 0.386719 175.921875 0.246094 176.625 0.179688 177.335938 C 0.101562 177.628906 0.0429688 177.925781 0 178.226562 L 0 450.804688 C 0 456.597656 4.695312 461.289062 10.484375 461.289062 L 104.839844 461.289062 L 104.839844 618.546875 C 104.839844 624.339844 109.53125 629.03125 115.324219 629.03125 L 534.679688 629.03125 C 540.46875 629.03125 545.160156 624.339844 545.160156 618.546875 L 545.160156 461.289062 L 639.515625 461.289062 C 645.308594 461.289062 650 456.597656 650 450.804688 L 650 178.226562 C 649.957031 177.933594 649.894531 177.640625 649.820312 177.355469 Z M 606.261719 167.742188 L 545.160156 167.742188 L 545.160156 124.976562 Z M 524.195312 20.96875 L 524.195312 167.742188 L 492.742188 167.742188 L 492.742188 125.804688 C 492.742188 120.015625 488.046875 115.324219 482.257812 115.324219 L 167.742188 115.324219 C 161.953125 115.324219 157.257812 120.015625 157.257812 125.804688 L 157.257812 167.742188 L 125.804688 167.742188 L 125.804688 20.96875 Z M 178.226562 167.742188 L 178.226562 136.289062 L 471.773438 136.289062 L 471.773438 167.742188 Z M 104.839844 167.742188 L 43.738281 167.742188 L 104.839844 124.976562 Z M 524.195312 608.066406 L 125.804688 608.066406 L 125.804688 461.289062 L 157.257812 461.289062 L 157.257812 503.226562 C 157.257812 509.015625 161.953125 513.710938 167.742188 513.710938 L 482.257812 513.710938 C 488.046875 513.710938 492.742188 509.015625 492.742188 503.226562 L 492.742188 461.289062 L 524.195312 461.289062 Z M 471.773438 461.289062 L 471.773438 492.742188 L 178.226562 492.742188 L 178.226562 461.289062 Z M 629.03125 440.324219 L 20.96875 440.324219 L 20.96875 188.710938 L 629.03125 188.710938 Z M 629.03125 440.324219 " style=" stroke:none;fill-rule:nonzero;fill:rgb(13.72549%,12.156863%,12.54902%);fill-opacity:1;" />
<path d="M 220.160156 220.160156 L 157.257812 220.160156 C 151.46875 220.160156 146.773438 224.855469 146.773438 230.644531 L 146.773438 398.386719 C 146.773438 404.175781 151.46875 408.871094 157.257812 408.871094 C 163.046875 408.871094 167.742188 404.175781 167.742188 398.386719 L 167.742188 325 L 220.160156 325 C 237.53125 325 251.613281 310.917969 251.613281 293.546875 L 251.613281 251.613281 C 251.613281 234.242188 237.53125 220.160156 220.160156 220.160156 Z M 230.644531 293.546875 C 230.644531 299.339844 225.949219 304.03125 220.160156 304.03125 L 167.742188 304.03125 L 167.742188 241.128906 L 220.160156 241.128906 C 225.949219 241.128906 230.644531 245.824219 230.644531 251.613281 Z M 230.644531 293.546875 " style=" stroke:none;fill-rule:nonzero;fill:rgb(13.72549%,12.156863%,12.54902%);fill-opacity:1;" />
<path d="M 314.515625 220.160156 L 283.0625 220.160156 C 277.273438 220.160156 272.578125 224.855469 272.578125 230.644531 L 272.578125 398.386719 C 272.578125 404.175781 277.273438 408.871094 283.0625 408.871094 L 325 408.871094 C 353.9375 408.835938 377.386719 385.386719 377.417969 356.453125 L 377.417969 272.582031 C 377.417969 243.058594 343.597656 220.160156 314.515625 220.160156 Z M 356.453125 356.453125 C 356.453125 373.820312 342.371094 387.902344 325 387.902344 L 293.546875 387.902344 L 293.546875 241.128906 L 314.515625 241.128906 C 332.820312 241.128906 356.449219 256.382812 356.449219 272.582031 L 356.449219 356.453125 Z M 356.453125 356.453125 " style=" stroke:none;fill-rule:nonzero;fill:rgb(13.72549%,12.156863%,12.54902%);fill-opacity:1;" />
<path d="M 492.742188 241.128906 C 498.53125 241.128906 503.226562 236.433594 503.226562 230.644531 C 503.226562 224.855469 498.53125 220.160156 492.742188 220.160156 L 408.871094 220.160156 C 403.082031 220.160156 398.386719 224.855469 398.386719 230.644531 L 398.386719 398.386719 C 398.386719 404.175781 403.082031 408.871094 408.871094 408.871094 C 414.660156 408.871094 419.355469 404.175781 419.355469 398.386719 L 419.355469 325 L 492.742188 325 C 498.53125 325 503.226562 320.304688 503.226562 314.515625 C 503.226562 308.726562 498.53125 304.03125 492.742188 304.03125 L 419.355469 304.03125 L 419.355469 241.128906 Z M 492.742188 241.128906 " style=" stroke:none;fill-rule:nonzero;fill:rgb(13.72549%,12.156863%,12.54902%);fill-opacity:1;" />
</g>
</svg>