<svg width="19" height="19" viewBox="0 0 19 19" fill="none" xmlns="http://www.w3.org/2000/svg">
<path d="M13.9233 12.4274C13.7578 12.2614 13.5612 12.1296 13.3447 12.0397C13.1282 11.9498 12.896 11.9035 12.6616 11.9035C12.4272 11.9035 12.195 11.9498 11.9785 12.0397C11.762 12.1296 11.5654 12.2614 11.3999 12.4274L10.5389 13.2883C9.56959 12.6731 8.67149 11.9523 7.86113 11.139C7.04955 10.3271 6.32884 9.42917 5.71176 8.46116L6.57269 7.60022C6.73875 7.43474 6.87051 7.2381 6.96042 7.02159C7.05032 6.80507 7.0966 6.57294 7.0966 6.3385C7.0966 6.10407 7.05032 5.87194 6.96042 5.65542C6.87051 5.43891 6.73875 5.24227 6.57269 5.07679L4.89238 3.40241C4.72924 3.2358 4.53426 3.10369 4.31904 3.01393C4.10382 2.92417 3.87275 2.87859 3.63957 2.87991C3.40473 2.87934 3.1721 2.9252 2.95505 3.01487C2.73801 3.10455 2.54084 3.23625 2.37488 3.40241L1.56738 4.20397C1.1825 4.6178 0.895241 5.11262 0.726731 5.65205C0.558221 6.19149 0.51274 6.76184 0.593633 7.32116C0.783633 9.54772 2.24426 12.2255 4.49457 14.4818C6.74488 16.738 9.45238 18.1927 11.6789 18.4065C11.8451 18.4154 12.0116 18.4154 12.1777 18.4065C12.657 18.4266 13.1355 18.3508 13.5851 18.1836C14.0347 18.0164 14.4465 17.7611 14.7961 17.4327L15.5977 16.6252C15.7639 16.4593 15.8956 16.2621 15.9852 16.0451C16.0749 15.828 16.1208 15.5954 16.1202 15.3605C16.1215 15.1274 16.0759 14.8963 15.9862 14.6811C15.8964 14.4658 15.7643 14.2709 15.5977 14.1077L13.9233 12.4274ZM14.7605 15.788L13.953 16.5896C13.6544 16.8384 13.3059 17.0202 12.931 17.1227C12.5561 17.2251 12.1635 17.2458 11.7799 17.1833C9.85019 17.0171 7.39207 15.6515 5.36144 13.6208C3.33082 11.5902 1.9652 9.14991 1.78113 7.22022C1.7171 6.83661 1.73703 6.44367 1.83953 6.0685C1.94204 5.69333 2.12469 5.34486 2.37488 5.0471L3.21207 4.2396C3.26755 4.18457 3.33335 4.14103 3.40569 4.11148C3.47803 4.08194 3.55549 4.06696 3.63363 4.06741C3.71177 4.06696 3.78924 4.08194 3.86158 4.11148C3.93392 4.14103 3.99972 4.18457 4.0552 4.2396L5.73551 5.93772C5.84609 6.04897 5.90817 6.19946 5.90817 6.35632C5.90817 6.51318 5.84609 6.66366 5.73551 6.77491L4.54801 7.96241C4.45508 8.05488 4.39537 8.1755 4.37819 8.30545C4.361 8.43541 4.38731 8.56741 4.45301 8.68085C5.16396 9.89118 6.02807 11.0047 7.02394 11.994C8.01318 12.9899 9.12674 13.854 10.3371 14.5649C10.4505 14.6306 10.5825 14.6569 10.7125 14.6397C10.8424 14.6225 10.963 14.5628 11.0555 14.4699L12.243 13.2824C12.3543 13.1718 12.5047 13.1098 12.6616 13.1098C12.8185 13.1098 12.9689 13.1718 13.0802 13.2824L14.7605 14.9627C14.8155 15.0182 14.8591 15.084 14.8886 15.1563C14.9182 15.2287 14.9331 15.3061 14.9327 15.3843C14.929 15.5359 14.8674 15.6804 14.7605 15.788Z" fill="#343EB8"/>
<path d="M15.7938 3.20033C14.9686 2.37203 13.9876 1.71527 12.9074 1.2679C11.8272 0.820536 10.6692 0.591422 9.5 0.593768C9.34253 0.593768 9.19151 0.656323 9.08016 0.767673C8.96881 0.879023 8.90625 1.03005 8.90625 1.18752C8.90625 1.34499 8.96881 1.49601 9.08016 1.60736C9.19151 1.71871 9.34253 1.78127 9.5 1.78127C10.5192 1.78123 11.5282 1.98303 12.469 2.37501C13.4098 2.76699 14.2636 3.3414 14.9812 4.06508C15.6988 4.78876 16.266 5.6474 16.65 6.59143C17.0341 7.53547 17.2274 8.54621 17.2188 9.56533C17.2188 9.7228 17.2813 9.87383 17.3927 9.98518C17.504 10.0965 17.655 10.1591 17.8125 10.1591C17.97 10.1591 18.121 10.0965 18.2323 9.98518C18.3437 9.87383 18.4062 9.7228 18.4062 9.56533C18.4176 8.38373 18.1923 7.21181 17.7436 6.11865C17.295 5.02549 16.632 4.03322 15.7938 3.20033Z" fill="#343EB8"/>
<path d="M12.4139 6.5965C12.7509 6.93143 13.0174 7.33037 13.1979 7.76986C13.3784 8.20934 13.4691 8.68049 13.4648 9.15557C13.4648 9.31304 13.5274 9.46406 13.6387 9.57541C13.7501 9.68676 13.9011 9.74932 14.0586 9.74932C14.216 9.74932 14.3671 9.68676 14.4784 9.57541C14.5898 9.46406 14.6523 9.31304 14.6523 9.15557C14.6602 8.52681 14.5431 7.90275 14.3079 7.31958C14.0728 6.73641 13.7241 6.20575 13.2823 5.75836C12.8404 5.31097 12.3141 4.95577 11.7339 4.71336C11.1537 4.47094 10.5311 4.34614 9.90234 4.34619C9.74487 4.34619 9.59385 4.40875 9.4825 4.5201C9.37115 4.63145 9.30859 4.78247 9.30859 4.93994C9.30859 5.09741 9.37115 5.24844 9.4825 5.35979C9.59385 5.47114 9.74487 5.53369 9.90234 5.53369C10.3703 5.53722 10.8329 5.63289 11.2638 5.81525C11.6948 5.99761 12.0856 6.26308 12.4139 6.5965Z" fill="#343EB8"/>
</svg>
