<svg viewBox="0 0 25 25" fill="#ffffff" xmlns="http://www.w3.org/2000/svg">
<path d="M12.3984 6.22998C11.7804 6.22998 11.1762 6.41326 10.6623 6.75664C10.1484 7.10002 9.74784 7.58808 9.51132 8.15909C9.27479 8.73011 9.21291 9.35845 9.33348 9.96464C9.45406 10.5708 9.75169 11.1276 10.1887 11.5647C10.6258 12.0017 11.1826 12.2994 11.7888 12.4199C12.395 12.5405 13.0233 12.4786 13.5943 12.2421C14.1653 12.0056 14.6534 11.605 14.9968 11.0911C15.3402 10.5772 15.5234 9.97305 15.5234 9.35498C15.5225 8.52647 15.193 7.73216 14.6071 7.14631C14.0213 6.56047 13.227 6.23092 12.3984 6.22998ZM12.3984 10.9175C12.0894 10.9175 11.7873 10.8258 11.5304 10.6542C11.2734 10.4825 11.0731 10.2384 10.9549 9.95292C10.8366 9.66741 10.8057 9.35325 10.866 9.05015C10.9263 8.74706 11.0751 8.46865 11.2936 8.25013C11.5121 8.03161 11.7905 7.88279 12.0936 7.8225C12.3967 7.76221 12.7109 7.79316 12.9964 7.91142C13.2819 8.02968 13.5259 8.22995 13.6976 8.4869C13.8693 8.74385 13.9609 9.04595 13.9609 9.35498C13.9605 9.76923 13.7957 10.1664 13.5028 10.4593C13.2098 10.7522 12.8127 10.917 12.3984 10.9175Z"/>
<path d="M18.4027 3.34547C16.918 1.86111 14.9361 0.979345 12.8395 0.870347C10.7428 0.76135 8.68013 1.43285 7.04949 2.75524C5.41884 4.07764 4.33584 5.95719 4.0095 8.03113C3.68315 10.1051 4.13661 12.2264 5.28234 13.9857L11.186 23.0488C11.3174 23.2505 11.497 23.4162 11.7086 23.5308C11.9202 23.6455 12.1571 23.7056 12.3978 23.7056C12.6385 23.7056 12.8754 23.6455 13.087 23.5308C13.2986 23.4162 13.4782 23.2505 13.6096 23.0488L19.5134 13.9857C20.5765 12.3537 21.0464 10.4059 20.8442 8.46868C20.6419 6.5315 19.78 4.7227 18.4027 3.34547ZM18.2043 13.1328L12.3978 22.0463L6.59132 13.1328C4.81398 10.4043 5.19518 6.75294 7.49772 4.4503C8.1412 3.8068 8.90513 3.29634 9.7459 2.94808C10.5867 2.59982 11.4878 2.42057 12.3978 2.42057C13.3079 2.42057 14.209 2.59982 15.0497 2.94808C15.8905 3.29634 16.6544 3.8068 17.2979 4.4503C19.6005 6.75294 19.9816 10.4043 18.2043 13.1328Z"/>
</svg>
