<svg width="46" height="59" viewBox="0 0 46 59" fill="none" xmlns="http://www.w3.org/2000/svg">
<path fill-rule="evenodd" clip-rule="evenodd" d="M22.7364 0C10.1794 0 0 10.1794 0 22.7364C0 33.6617 7.70595 42.7873 17.9791 44.9743C18.3472 45.0526 18.6488 45.3212 18.7556 45.6821L22.3321 57.7615C22.6147 58.7163 23.9671 58.7163 24.2498 57.7615L27.9109 45.3959C28.0123 45.0534 28.2897 44.7926 28.6347 44.7002C38.3322 42.1025 45.4727 33.2533 45.4727 22.7364C45.4727 10.1794 35.2933 0 22.7364 0Z" fill="#343EB8"/>
<path d="M15 15V32H24L15 15Z" fill="white"/>
<path d="M32 20.8808C32 16.5483 28.5469 13.0342 24.2732 13.0017V13H21.7607H21.7388H15L24.9364 32H31.6972L29.0934 27.0201C30.8647 25.5765 32 23.3639 32 20.8808Z" fill="white"/>
</svg>
