<svg width="66" height="41" viewBox="0 0 66 41" fill="none" xmlns="http://www.w3.org/2000/svg">
<path d="M51.7297 23.1739C51.7297 24.4366 51.4882 25.5136 51.0051 26.4049C50.522 27.2962 49.723 28.0204 48.6081 28.5775C47.4932 29.1717 46.0253 29.5987 44.2044 29.8587C42.3834 30.1558 40.1351 30.3044 37.4595 30.3044L37.4595 41L42.8108 41C45.598 41 48.3666 40.6658 51.1166 39.9973C53.8666 39.3288 56.3378 38.1218 58.5304 36.3764C60.7601 34.668 62.5625 32.2912 63.9375 29.2459C65.3125 26.2378 66 22.394 66 17.7147C66 11.9583 64.7179 7.55753 62.1537 4.51224C59.5895 1.50409 55.7618 9.74971e-06 50.6706 8.85953e-06C48.1436 8.41769e-06 45.9324 0.389954 44.0372 1.16985C42.1791 1.98687 40.6183 3.02673 39.3547 4.28941C38.1284 5.58923 37.1993 7.0376 36.5676 8.63452C35.973 10.2314 35.6757 11.8098 35.6757 13.3696C35.6757 14.8922 35.9358 16.3592 36.4561 17.7704C36.9764 19.1816 37.701 20.4072 38.6301 21.447C39.5591 22.524 40.6368 23.3782 41.8632 24.0095C43.1267 24.6409 44.4831 24.9565 45.9324 24.9565C47.8277 24.9565 49.7601 24.3623 51.7297 23.1739ZM16.0541 23.1739C16.0541 24.4366 15.8125 25.5136 15.3294 26.4049C14.8463 27.2962 14.0473 28.0204 12.9324 28.5774C11.8176 29.1717 10.3497 29.5987 8.52872 29.8587C6.70777 30.1558 4.45946 30.3043 1.78379 30.3043L1.78378 41L7.13514 41C9.9223 41 12.6909 40.6658 15.4409 39.9973C18.1909 39.3288 20.6622 38.1218 22.8547 36.3764C25.0845 34.668 26.8868 32.2912 28.2618 29.2459C29.6368 26.2378 30.3243 22.394 30.3243 17.7147C30.3243 11.9583 29.0422 7.55752 26.478 4.51223C23.9139 1.50408 20.0862 3.51197e-06 14.9949 2.6218e-06C12.4679 2.17996e-06 10.2568 0.389948 8.36149 1.16984C6.50339 1.98687 4.94257 3.02672 3.67906 4.2894C2.45271 5.58922 1.52365 7.03759 0.891898 8.63451C0.297303 10.2314 5.10378e-06 11.8098 4.83106e-06 13.3696C4.56483e-06 14.8922 0.260139 16.3591 0.780409 17.7704C1.30068 19.1816 2.02534 20.4072 2.9544 21.447C3.88345 22.524 4.96115 23.3782 6.1875 24.0095C7.45102 24.6409 8.80743 24.9565 10.2568 24.9565C12.152 24.9565 14.0845 24.3623 16.0541 23.1739Z" fill="#EFF5FF"/>
</svg>
