<svg xmlns="http://www.w3.org/2000/svg" height="650pt" version="1.1" viewBox="0 -10 650.001 650" width="650pt">
<g id="surface1">
<path d="M 482.257812 178.226562 L 10.484375 178.226562 L 10.484375 450.804688 L 639.515625 450.804688 L 639.515625 178.226562 Z M 241.128906 356.453125 C 241.128906 333.292969 222.355469 314.515625 199.195312 314.515625 L 157.257812 314.515625 L 157.257812 230.644531 L 199.195312 230.644531 C 222.355469 230.644531 241.128906 249.421875 241.128906 272.582031 C 241.128906 295.742188 222.355469 314.515625 199.195312 314.515625 C 222.355469 314.515625 241.128906 333.292969 241.128906 356.453125 Z M 366.933594 314.515625 L 283.0625 314.515625 L 283.0625 251.613281 C 283.0625 240.035156 292.453125 230.644531 304.03125 230.644531 L 345.96875 230.644531 C 357.546875 230.644531 366.933594 240.035156 366.933594 251.613281 Z M 492.742188 356.453125 C 492.742188 333.292969 473.96875 314.515625 450.808594 314.515625 L 408.871094 314.515625 L 408.871094 230.644531 L 450.808594 230.644531 C 473.96875 230.644531 492.742188 249.421875 492.742188 272.582031 C 492.742188 295.742188 473.96875 314.515625 450.804688 314.515625 C 473.96875 314.515625 492.742188 333.292969 492.742188 356.453125 Z M 492.742188 356.453125 " style=" stroke:none;fill-rule:nonzero;fill:rgb(74.509804%,54.509804%,86.27451%);fill-opacity:1;" />
<path d="M 345.96875 230.644531 L 304.03125 230.644531 C 292.453125 230.644531 283.066406 240.035156 283.066406 251.613281 L 283.066406 314.515625 L 366.9375 314.515625 L 366.9375 251.613281 C 366.933594 240.035156 357.546875 230.644531 345.96875 230.644531 Z M 345.96875 230.644531 " style=" stroke:none;fill-rule:nonzero;fill:rgb(74.509804%,54.509804%,86.27451%);fill-opacity:1;" />
<path d="M 241.128906 272.582031 C 241.128906 249.421875 222.355469 230.648438 199.195312 230.648438 L 157.257812 230.648438 L 157.257812 314.515625 L 199.195312 314.515625 C 222.355469 314.515625 241.128906 295.742188 241.128906 272.582031 Z M 241.128906 272.582031 " style=" stroke:none;fill-rule:nonzero;fill:rgb(74.509804%,54.509804%,86.27451%);fill-opacity:1;" />
<path d="M 492.742188 272.582031 C 492.742188 249.421875 473.96875 230.648438 450.808594 230.648438 L 408.871094 230.648438 L 408.871094 314.515625 L 450.808594 314.515625 C 473.96875 314.515625 492.742188 295.742188 492.742188 272.582031 Z M 492.742188 272.582031 " style=" stroke:none;fill-rule:nonzero;fill:rgb(74.509804%,54.509804%,86.27451%);fill-opacity:1;" />
<path d="M 167.742188 450.804688 L 482.257812 450.804688 L 482.257812 503.226562 L 167.742188 503.226562 Z M 167.742188 450.804688 " style=" stroke:none;fill-rule:nonzero;fill:rgb(91.372549%,84.705882%,95.294118%);fill-opacity:1;" />
<path d="M 167.742188 125.804688 L 482.257812 125.804688 L 482.257812 178.226562 L 167.742188 178.226562 Z M 167.742188 125.804688 " style=" stroke:none;fill-rule:nonzero;fill:rgb(91.372549%,84.705882%,95.294118%);fill-opacity:1;" />
<path d="M 209.675781 83.871094 L 440.320312 83.871094 L 440.320312 104.839844 L 209.675781 104.839844 Z M 209.675781 83.871094 " style=" stroke:none;fill-rule:nonzero;fill:rgb(13.72549%,12.156863%,12.54902%);fill-opacity:1;" />
<path d="M 241.128906 52.417969 L 408.871094 52.417969 L 408.871094 73.386719 L 241.128906 73.386719 Z M 241.128906 52.417969 " style=" stroke:none;fill-rule:nonzero;fill:rgb(13.72549%,12.156863%,12.54902%);fill-opacity:1;" />
<path d="M 209.675781 524.195312 L 440.320312 524.195312 L 440.320312 545.160156 L 209.675781 545.160156 Z M 209.675781 524.195312 " style=" stroke:none;fill-rule:nonzero;fill:rgb(13.72549%,12.156863%,12.54902%);fill-opacity:1;" />
<path d="M 241.128906 555.644531 L 408.871094 555.644531 L 408.871094 576.613281 L 241.128906 576.613281 Z M 241.128906 555.644531 " style=" stroke:none;fill-rule:nonzero;fill:rgb(13.72549%,12.156863%,12.54902%);fill-opacity:1;" />
<path d="M 649.820312 177.355469 C 649.753906 176.644531 649.613281 175.941406 649.402344 175.257812 C 649.070312 174 648.460938 172.828125 647.621094 171.832031 C 647.1875 171.257812 646.6875 170.738281 646.132812 170.28125 C 645.902344 170.082031 645.777344 169.820312 645.523438 169.640625 L 545.160156 99.375 L 545.160156 10.484375 C 545.160156 4.695312 540.46875 0 534.675781 0 L 115.324219 0 C 109.53125 0 104.839844 4.695312 104.839844 10.484375 L 104.839844 99.378906 L 4.476562 169.617188 C 4.226562 169.796875 4.101562 170.058594 3.859375 170.257812 C 3.308594 170.71875 2.816406 171.242188 2.378906 171.808594 C 1.539062 172.808594 0.933594 173.976562 0.597656 175.238281 C 0.386719 175.921875 0.246094 176.625 0.179688 177.335938 C 0.101562 177.628906 0.0429688 177.925781 0 178.226562 L 0 450.804688 C 0 456.597656 4.695312 461.289062 10.484375 461.289062 L 104.839844 461.289062 L 104.839844 618.546875 C 104.839844 624.339844 109.53125 629.03125 115.324219 629.03125 L 534.679688 629.03125 C 540.46875 629.03125 545.160156 624.339844 545.160156 618.546875 L 545.160156 461.289062 L 639.515625 461.289062 C 645.308594 461.289062 650 456.597656 650 450.804688 L 650 178.226562 C 649.957031 177.933594 649.894531 177.640625 649.820312 177.355469 Z M 606.261719 167.742188 L 545.160156 167.742188 L 545.160156 124.976562 Z M 524.195312 20.96875 L 524.195312 167.742188 L 492.742188 167.742188 L 492.742188 125.804688 C 492.742188 120.015625 488.046875 115.324219 482.257812 115.324219 L 167.742188 115.324219 C 161.953125 115.324219 157.257812 120.015625 157.257812 125.804688 L 157.257812 167.742188 L 125.804688 167.742188 L 125.804688 20.96875 Z M 178.226562 167.742188 L 178.226562 136.289062 L 471.773438 136.289062 L 471.773438 167.742188 Z M 104.839844 167.742188 L 43.738281 167.742188 L 104.839844 124.976562 Z M 524.195312 608.066406 L 125.804688 608.066406 L 125.804688 461.289062 L 157.257812 461.289062 L 157.257812 503.226562 C 157.257812 509.015625 161.953125 513.710938 167.742188 513.710938 L 482.257812 513.710938 C 488.046875 513.710938 492.742188 509.015625 492.742188 503.226562 L 492.742188 461.289062 L 524.195312 461.289062 Z M 471.773438 461.289062 L 471.773438 492.742188 L 178.226562 492.742188 L 178.226562 461.289062 Z M 629.03125 440.324219 L 20.96875 440.324219 L 20.96875 188.710938 L 629.03125 188.710938 Z M 629.03125 440.324219 " style=" stroke:none;fill-rule:nonzero;fill:rgb(13.72549%,12.156863%,12.54902%);fill-opacity:1;" />
<path d="M 345.96875 220.160156 L 304.03125 220.160156 C 286.664062 220.160156 272.582031 234.242188 272.582031 251.613281 L 272.582031 398.386719 C 272.582031 404.175781 277.273438 408.871094 283.066406 408.871094 C 288.855469 408.871094 293.550781 404.175781 293.550781 398.386719 L 293.550781 325 L 356.453125 325 L 356.453125 398.386719 C 356.453125 404.175781 361.144531 408.871094 366.9375 408.871094 C 372.726562 408.871094 377.421875 404.175781 377.421875 398.386719 L 377.421875 251.613281 C 377.417969 234.242188 363.339844 220.160156 345.96875 220.160156 Z M 293.546875 304.03125 L 293.546875 251.613281 C 293.546875 245.824219 298.242188 241.128906 304.03125 241.128906 L 345.96875 241.128906 C 351.757812 241.128906 356.449219 245.824219 356.449219 251.613281 L 356.449219 304.03125 Z M 293.546875 304.03125 " style=" stroke:none;fill-rule:nonzero;fill:rgb(13.72549%,12.156863%,12.54902%);fill-opacity:1;" />
<path d="M 251.613281 272.582031 C 251.578125 243.644531 228.128906 220.195312 199.195312 220.164062 L 157.257812 220.164062 C 151.46875 220.164062 146.773438 224.855469 146.773438 230.648438 L 146.773438 398.386719 C 146.773438 404.179688 151.46875 408.871094 157.257812 408.871094 C 163.050781 408.871094 167.742188 404.179688 167.742188 398.386719 L 167.742188 325 L 199.195312 325 C 216.566406 325 230.648438 339.082031 230.648438 356.453125 L 230.648438 398.386719 C 230.648438 404.179688 235.339844 408.871094 241.132812 408.871094 C 246.921875 408.871094 251.613281 404.179688 251.613281 398.386719 L 251.613281 356.453125 C 251.570312 339.890625 243.667969 324.328125 230.320312 314.519531 C 243.664062 304.707031 251.566406 289.144531 251.613281 272.582031 Z M 199.195312 304.03125 L 167.742188 304.03125 L 167.742188 241.128906 L 199.195312 241.128906 C 216.5625 241.128906 230.644531 255.210938 230.644531 272.582031 C 230.644531 289.953125 216.5625 304.03125 199.195312 304.03125 Z M 199.195312 304.03125 " style=" stroke:none;fill-rule:nonzero;fill:rgb(13.72549%,12.156863%,12.54902%);fill-opacity:1;" />
<path d="M 503.226562 272.582031 C 503.191406 243.644531 479.742188 220.195312 450.808594 220.164062 L 408.871094 220.164062 C 403.082031 220.164062 398.386719 224.855469 398.386719 230.648438 L 398.386719 398.386719 C 398.386719 404.179688 403.082031 408.871094 408.871094 408.871094 C 414.660156 408.871094 419.355469 404.179688 419.355469 398.386719 L 419.355469 325 L 450.808594 325 C 468.179688 325 482.261719 339.082031 482.261719 356.453125 L 482.261719 398.386719 C 482.261719 404.179688 486.953125 408.871094 492.742188 408.871094 C 498.535156 408.871094 503.226562 404.179688 503.226562 398.386719 L 503.226562 356.453125 C 503.183594 339.890625 495.28125 324.328125 481.933594 314.519531 C 495.277344 304.707031 503.179688 289.144531 503.226562 272.582031 Z M 450.804688 304.03125 L 419.355469 304.03125 L 419.355469 241.128906 L 450.804688 241.128906 C 468.175781 241.128906 482.257812 255.210938 482.257812 272.582031 C 482.257812 289.953125 468.175781 304.03125 450.804688 304.03125 Z M 450.804688 304.03125 " style=" stroke:none;fill-rule:nonzero;fill:rgb(13.72549%,12.156863%,12.54902%);fill-opacity:1;" />
</g>
</svg>