<svg width="356" height="264" viewBox="0 0 356 264" fill="none" xmlns="http://www.w3.org/2000/svg">
<path d="M33.9904 259.548C-3.89267 230.684 -20.7641 150.648 40.7469 111.401C81.4698 85.4235 106.797 100.243 152.609 83.0575C208.536 62.0833 216.872 -1.28695 284.901 29.8946C320.941 46.4086 345.925 92.9531 350.32 145.852C354.628 197.656 336.305 233.202 298.86 257.525C210.929 261.274 122.823 260.595 33.9904 259.548Z" fill="#EFF5FF"/>
<path d="M189.623 31.8929C195.342 54.9134 174.099 77.702 151.708 87.15C129.324 96.606 103.654 95.479 79.6668 90.9708C69.3206 89.0284 58.6792 86.2948 50.6463 79.6844C42.6054 73.074 37.9468 61.5957 42.3502 52.3236C46.235 44.1465 55.7037 39.9581 64.7258 37.8079C73.7478 35.6577 83.3363 34.7785 91.3692 30.2543C98.9952 25.962 104.404 18.856 111.033 13.2288C123.285 2.84557 140.492 -2.30206 156.422 0.983148C172.352 4.26836 184.757 12.3255 189.623 31.8929Z" fill="#EFF5FF"/>
<path d="M18.2273 137.779V120.362H24.8163C25.606 117.316 26.8106 114.447 28.3581 111.801L23.6995 107.125L35.9922 94.8076L40.6588 99.4756C43.2992 97.9249 46.1629 96.7179 49.2022 95.9266V89.3242H66.5842V95.9266C69.6234 96.7179 72.4872 97.9249 75.1276 99.4756L79.7942 94.8076L92.0868 107.125L87.4282 111.801C88.9758 114.447 90.1723 117.316 90.9701 120.362H97.5591V137.779H90.9701C90.1723 140.825 88.9678 143.694 87.4282 146.34L92.0868 151.016L79.7942 163.333L75.1276 158.665C72.4872 160.216 69.6234 161.415 66.5842 162.214V168.817H49.2022V162.214C46.1629 161.415 43.2992 160.216 40.6588 158.665L35.9922 163.333L23.6995 151.016L28.3581 146.34C26.8106 143.694 25.606 140.825 24.8163 137.779H18.2273ZM57.8812 144.158C66.2013 144.158 72.9419 137.403 72.9419 129.066C72.9419 120.738 66.2013 113.983 57.8812 113.983C49.5691 113.983 42.8285 120.738 42.8285 129.066C42.8285 137.403 49.5771 144.158 57.8812 144.158Z" fill="#C6D8F5"/>
<path d="M70.7406 181.414L74.0511 172.773L77.3217 174.028C78.2949 172.669 79.4356 171.479 80.7039 170.455L79.284 167.25L87.7157 163.485L89.1436 166.691C90.747 166.427 92.3983 166.371 94.0575 166.555L95.3099 163.277L103.925 166.603L102.673 169.88C104.029 170.855 105.217 171.998 106.238 173.269L109.437 171.846L113.194 180.295L109.996 181.726C110.259 183.332 110.307 184.987 110.131 186.65L113.402 187.905L110.091 196.545L106.821 195.29C105.848 196.649 104.707 197.84 103.439 198.863L104.858 202.069L96.4267 205.833L94.9988 202.628C93.3954 202.892 91.7442 202.94 90.0849 202.764L88.8325 206.041L80.2093 202.724L81.4617 199.447C80.1056 198.472 78.9171 197.329 77.896 196.058L74.6972 197.48L70.94 189.032L74.1388 187.601C73.8756 185.994 73.8197 184.34 74.0032 182.677L70.7406 181.414ZM89.1995 192.141C93.3236 193.724 97.9503 191.661 99.5377 187.529C101.117 183.396 99.0591 178.76 94.935 177.178C90.8109 175.595 86.1842 177.657 84.6047 181.79C83.0173 185.914 85.0833 190.558 89.1995 192.141Z" stroke="#C6D8F5" stroke-miterlimit="10"/>
<path d="M98.9872 151.12L101.221 145.285L103.43 146.132C104.085 145.213 104.858 144.405 105.72 143.718L104.755 141.552L110.45 139.01L111.415 141.176C112.5 141 113.617 140.96 114.734 141.088L115.579 138.874L121.403 141.112L120.557 143.326C121.475 143.982 122.28 144.757 122.966 145.62L125.128 144.653L127.665 150.36L125.503 151.328C125.678 152.415 125.718 153.526 125.591 154.653L127.8 155.5L125.567 161.335L123.357 160.488C122.695 161.407 121.929 162.214 121.068 162.902L122.033 165.068L116.337 167.61L115.372 165.444C114.287 165.619 113.178 165.659 112.054 165.532L111.208 167.746L105.385 165.508L106.23 163.293C105.313 162.63 104.507 161.863 103.821 160.999L101.66 161.967L99.1228 156.259L101.285 155.292C101.109 154.205 101.069 153.086 101.197 151.967L98.9872 151.12ZM111.455 158.37C114.239 159.441 117.366 158.042 118.435 155.252C119.504 152.463 118.108 149.329 115.324 148.258C112.54 147.187 109.413 148.586 108.344 151.376C107.275 154.165 108.671 157.299 111.455 158.37Z" stroke="#C6D8F5" stroke-miterlimit="10"/>
<path d="M106 54.0032C106 61.001 109.346 67.2383 114.548 71.2645C118.377 74.2362 123.22 76 128.5 76C133.761 76 138.61 74.2362 142.452 71.2645C147.661 67.2319 151 60.9946 151 54.0032C151 41.8545 140.93 32 128.5 32C116.07 32 106 41.8545 106 54.0032Z" fill="#343EB8" stroke="#343EB8" stroke-miterlimit="10"/>
<path d="M127.876 60.6179C125.217 60.289 123.327 57.8622 123.655 55.1975C123.984 52.5329 126.406 50.6393 129.065 50.9682C131.724 51.2971 133.614 53.7239 133.286 56.3886C132.957 59.0532 130.535 60.9468 127.876 60.6179Z" fill="white"/>
<path d="M119.288 70.4565C121.81 72.4623 125 73.6528 128.478 73.6528C131.944 73.6528 135.138 72.4623 137.669 70.4565C136.722 66.2768 135.848 62.6707 134.94 61.7563C133.657 60.4708 130.252 59.7246 128.483 59.7246C126.713 59.7246 123.145 60.6348 122.486 61.2947C121.143 62.6362 119.985 66.3415 119.288 70.4565Z" fill="white"/>
<path d="M167.941 116.773V103.184C167.941 99.4755 164.942 96.4701 161.24 96.4701H118.515C114.814 96.4701 111.814 99.4755 111.814 103.184V116.773C111.814 120.482 114.814 123.487 118.515 123.487H161.232C164.934 123.495 167.941 120.482 167.941 116.773Z" fill="#343EB8"/>
<path d="M149.897 116.061L170.573 136.244L137.062 119.275" fill="#343EB8"/>
<path d="M162.756 102.849V102.777C162.756 102.225 162.309 101.778 161.759 101.778H140.635C140.085 101.778 139.638 102.225 139.638 102.777V102.849C139.638 103.4 140.085 103.848 140.635 103.848H161.759C162.309 103.848 162.756 103.4 162.756 102.849Z" fill="white"/>
<path d="M138.689 102.849V102.777C138.689 102.225 138.242 101.778 137.692 101.778H119.257C118.706 101.778 118.26 102.225 118.26 102.777V102.849C118.26 103.4 118.706 103.848 119.257 103.848H137.692C138.242 103.848 138.689 103.4 138.689 102.849Z" fill="white"/>
<path d="M146.738 107.397V107.325C146.738 106.773 146.291 106.326 145.741 106.326H119.257C118.706 106.326 118.26 106.773 118.26 107.325V107.397C118.26 107.948 118.706 108.396 119.257 108.396H145.741C146.291 108.396 146.738 107.948 146.738 107.397Z" fill="white"/>
<path d="M162.756 107.397V107.325C162.756 106.773 162.309 106.326 161.759 106.326H149.929C149.378 106.326 148.932 106.773 148.932 107.325V107.397C148.932 107.948 149.378 108.396 149.929 108.396H161.759C162.309 108.396 162.756 107.948 162.756 107.397Z" fill="white"/>
<path d="M143.061 111.945V111.873C143.061 111.322 142.614 110.874 142.063 110.874H119.257C118.707 110.874 118.26 111.322 118.26 111.873V111.945C118.26 112.497 118.707 112.944 119.257 112.944H142.063C142.614 112.944 143.061 112.497 143.061 111.945Z" fill="white"/>
<path d="M162.756 111.945V111.873C162.756 111.322 162.309 110.874 161.759 110.874H146.004C145.454 110.874 145.007 111.322 145.007 111.873V111.945C145.007 112.497 145.454 112.944 146.004 112.944H161.759C162.309 112.944 162.756 112.497 162.756 111.945Z" fill="white"/>
<path d="M162.756 116.493V116.421C162.756 115.87 162.309 115.422 161.759 115.422H155.912C155.361 115.422 154.914 115.87 154.914 116.421V116.493C154.914 117.045 155.361 117.492 155.912 117.492H161.759C162.309 117.492 162.756 117.045 162.756 116.493Z" fill="white"/>
<path d="M152.848 116.493V116.421C152.848 115.87 152.401 115.422 151.851 115.422H119.257C118.706 115.422 118.26 115.87 118.26 116.421V116.493C118.26 117.045 118.706 117.492 119.257 117.492H151.851C152.401 117.492 152.848 117.045 152.848 116.493Z" fill="white"/>
<path d="M273.399 97.5401C267.243 84.2833 272.978 68.536 286.208 62.3674C299.438 56.1988 315.153 61.945 321.309 75.2018C327.466 88.4586 321.731 104.206 308.501 110.375C295.271 116.543 279.556 110.797 273.399 97.5401Z" fill="#343EB8"/>
<path d="M279.014 100.619C278.072 100.179 262.908 100.874 262.908 100.874L273.837 90.8189L279.014 100.619Z" fill="#343EB8"/>
<path d="M212.117 41.6092C206.424 28.421 212.478 13.1054 225.64 7.40081C238.801 1.6962 254.086 7.7628 259.779 20.9509C265.472 34.1391 259.418 49.4547 246.256 55.1593C233.095 60.8639 217.81 54.7973 212.117 41.6092Z" fill="#343EB8"/>
<path d="M236.656 13.2263H235.13V32.496H236.656V13.2263Z" fill="white"/>
<path d="M219 43.6214L219.869 44.879L235.894 33.7642L235.025 32.5067L219 43.6214Z" fill="white"/>
<path d="M238 32.7779C238 33.9408 237.057 34.8923 235.889 34.8923C234.729 34.8923 233.779 33.9479 233.779 32.7779C233.779 31.615 234.722 30.6635 235.889 30.6635C237.057 30.6635 238 31.615 238 32.7779Z" fill="white"/>
<path d="M165.444 207.464C166.983 183.676 156.597 159.057 139.104 144.973C138.561 168.881 148.844 193.076 165.444 207.464Z" fill="#C6D8F6"/>
<path d="M141.959 151.376C149.33 165.14 155.704 179.544 161.001 194.403C167.438 212.444 172.504 231.611 183.528 246.735" stroke="#6F8BBF" stroke-miterlimit="10" stroke-linecap="round"/>
<path d="M170.964 222.427C162.109 202.58 144.536 187.585 125.16 183.34C133.408 204.61 151.963 220.837 170.964 222.427Z" fill="#C6D8F6"/>
<path d="M129.914 187.713C143.148 199.383 156.605 210.725 170.286 221.732" stroke="#6F8BBF" stroke-miterlimit="10" stroke-linecap="round"/>
<path d="M176.189 239.717C164.359 222.012 142.534 212.771 124.474 217.823C137.756 235.304 159.629 244.568 176.189 239.717Z" fill="#C6D8F6"/>
<path d="M128.805 219.102C144.313 228.822 161.041 236 178.287 240.316" stroke="#6F8BBF" stroke-miterlimit="10" stroke-linecap="round"/>
<path d="M169.8 216.408C166.018 196.473 171.69 174.252 184.318 159.553C189.495 179.144 184.557 202.101 169.8 216.408Z" fill="#C6D8F6"/>
<path d="M183.018 164.636C180.529 183.181 176.101 200.55 169.241 217.527" stroke="#6F8BBF" stroke-miterlimit="10" stroke-linecap="round"/>
<path d="M176.293 233.386C177.904 212.891 188.386 193.644 203.718 183.021C202.832 193.875 199.953 204.339 195.382 213.851C190.125 224.777 182.403 231.707 176.293 233.386Z" fill="#C6D8F6"/>
<path d="M201.444 187.169C195.414 204.259 186.735 220.101 175.91 233.818" stroke="#6F8BBF" stroke-miterlimit="10" stroke-linecap="round"/>
<path d="M57.8896 228.47C49.5217 206.657 30.2731 188.96 9.04614 183.572C18.3474 205.09 37.3328 222.435 57.8896 228.47Z" fill="#C6D8F6"/>
<path d="M14.1913 188.104C26.3324 197.353 37.8672 207.576 48.6203 218.646C61.6867 232.091 74.0112 247.086 89.9414 256.055" stroke="#6F8BBF" stroke-miterlimit="10" stroke-linecap="round"/>
<path d="M68.8901 239.541C52.944 225.481 31.2783 219.31 12.4206 223.45C28.4066 239.029 51.4443 245.895 68.8901 239.541Z" fill="#C6D8F6"/>
<path d="M18.4113 225.409C34.884 230.397 51.4204 234.993 68.0127 239.205" stroke="#6F8BBF" stroke-miterlimit="10" stroke-linecap="round"/>
<path d="M80.5845 252.809C62.8834 241.875 39.8137 242.57 25.9177 254.456C44.8074 264.591 67.9329 263.896 80.5845 252.809Z" fill="#C6D8F6"/>
<path d="M30.2651 253.817C47.9422 256.135 65.6752 255.687 82.6743 252.482" stroke="#6F8BBF" stroke-miterlimit="10" stroke-linecap="round"/>
<path d="M65.3959 234.657C53.901 218.447 49.8247 196.329 54.9699 178.073C67.5657 193.404 72.5912 215.873 65.3959 234.657Z" fill="#C6D8F6"/>
<path d="M55.9032 183.125C61.2956 200.662 64.4785 217.943 65.356 235.88" stroke="#6F8BBF" stroke-miterlimit="10" stroke-linecap="round"/>
<path d="M78.0797 247.126C71.1238 228.214 72.5118 206.777 81.7173 191.046C85.3707 201.077 87.1097 211.572 86.9582 221.916C86.7907 233.794 82.8021 243.13 78.0797 247.126Z" fill="#C6D8F6"/>
<path d="M81.4141 195.666C83.0733 213.355 81.8847 231.02 77.9281 247.662" stroke="#6F8BBF" stroke-miterlimit="10" stroke-linecap="round"/>
<path d="M295.047 190.335C303.575 164.189 327.386 143.063 355.075 137.068C343.436 159.688 322.321 177.689 295.047 190.335Z" fill="#C6D8F6"/>
<path d="M293.603 194.387C312.294 183.804 335.706 181.47 356 188.16C337.174 197.584 314.87 200.206 293.603 194.387Z" fill="#C6D8F6"/>
<path d="M288.434 200.062C308.632 197.257 329.779 202.244 346.18 213.683C327.586 220.453 305.274 216.057 288.434 200.062Z" fill="#C6D8F6"/>
<path d="M282.14 212.444C302.139 212.364 321.802 221.884 333.561 237.351C324.658 239.141 315.205 238.07 307.045 234.361C298.876 230.66 292.032 224.338 282.14 212.444Z" fill="#C6D8F6"/>
<path d="M268.037 233.17C287.756 229.781 308.768 235.904 322.991 249.189C314.503 252.418 305.002 252.937 296.315 250.643C287.636 248.341 279.811 243.25 268.037 233.17Z" fill="#C6D8F6"/>
<path d="M289.328 191.573C302.346 173.988 305.88 150.288 298.485 130.122C292.838 139.705 287.964 149.841 285.69 160.616C283.417 171.391 283.855 182.877 289.328 191.573Z" fill="#C6D8F6"/>
<path d="M281.375 208.543C284.462 189.855 278.08 170.056 264.615 156.523C263.067 175.851 268.97 195.546 281.375 208.543Z" fill="#C6D8F6"/>
<path d="M349.02 141.752C309.39 167.162 278.391 205.034 262.03 248.069" stroke="#6F8BBF" stroke-miterlimit="10" stroke-linecap="round"/>
<path d="M297.257 139.394C292.439 159.009 289.503 179.032 288.514 199.119" stroke="#6F8BBF" stroke-miterlimit="10" stroke-linecap="round"/>
<path d="M267.574 164.109C269.154 179.935 274.036 195.402 281.829 209.334" stroke="#6F8BBF" stroke-miterlimit="10" stroke-linecap="round"/>
<path d="M347.656 188.616C329.484 192.077 311.017 193.955 292.542 194.227" stroke="#6F8BBF" stroke-miterlimit="10" stroke-linecap="round"/>
<path d="M336.711 212.124C319.96 210.901 303.471 206.84 288.235 200.158" stroke="#6F8BBF" stroke-miterlimit="10" stroke-linecap="round"/>
<path d="M326.668 234.529C311.209 226.8 295.749 219.062 280.29 211.341" stroke="#6F8BBF" stroke-miterlimit="10" stroke-linecap="round"/>
<path d="M316.617 248.173C296.435 244.273 290.436 239.613 268.037 233.17" stroke="#6F8BBF" stroke-miterlimit="10" stroke-linecap="round"/>
<path d="M188.833 211.125C188.833 211.125 187.086 227.167 185.131 228.454C181.637 230.764 141.194 236.104 141.194 236.104L142.518 246.647C142.518 246.647 197.911 251.634 200.264 248.861C204.348 244.049 211.527 220.837 211.527 220.837L188.833 211.125Z" fill="#E06A58"/>
<path d="M215.54 169.824L211.065 159.057C211.065 159.057 198.924 164.772 194.919 171.83C190.636 179.376 185.395 219.494 185.395 219.494C185.395 219.494 206.829 224.442 210.77 222.339C214.71 220.237 215.54 169.824 215.54 169.824Z" fill="#F2AE30"/>
<path d="M249.626 119.85C252.761 118.699 256.079 117.692 259.438 117.948C262.796 118.204 266.226 119.986 267.367 122.944C268.181 125.038 267.806 127.508 269.09 129.394C270.318 131.201 272.759 131.952 275.041 132.104C277.33 132.264 279.636 131.96 281.909 132.256C288.929 133.191 293.938 140.832 291.633 147.091C290.716 149.585 288.833 151.967 289.264 154.565C289.719 157.346 292.63 159.177 293.827 161.759C295.414 165.196 293.516 169.36 290.381 171.702C287.246 174.036 283.169 174.924 279.213 175.515C273.764 176.33 268.141 176.714 262.756 175.563C257.372 174.412 252.226 171.566 249.442 167.122C248.206 165.156 247.456 162.934 246.02 161.087C243.053 157.275 237.796 155.796 233.656 153.094C229.133 150.129 225.814 144.357 228.479 139.841C231.047 135.501 237.732 134.534 240.412 130.257C241.521 128.491 241.784 126.389 242.502 124.462C243.236 122.528 244.991 121.553 249.626 119.85Z" fill="#0A2240"/>
<path d="M231.358 173.093C230.569 174.004 229.635 175.004 228.343 175.091C226.979 175.187 225.838 174.22 224.961 173.285C220.43 168.481 217.438 162.582 216.226 156.499C217.351 155.86 218.435 155.244 219.417 154.669C220.326 154.125 221.012 153.366 221.403 152.479C221.674 151.823 221.77 151.136 221.698 150.416C221.06 144.405 220.494 141.056 218.388 134.957C228.391 132.695 237.828 130.01 243.252 125.47C243.914 128.267 244.696 133.743 246.363 139.17C248.142 144.917 250.918 150.6 255.625 153.046C246.387 158.514 238.147 165.308 231.358 173.093Z" fill="#F9A07B"/>
<path d="M221.698 150.424C221.77 151.144 221.674 151.839 221.403 152.487C227.322 159.681 240.556 150.281 246.363 139.178C244.696 133.751 243.914 128.275 243.252 125.478C237.836 130.018 228.391 132.711 218.388 134.965C220.494 141.064 221.06 144.405 221.698 150.424Z" fill="#E06A58"/>
<path d="M205.218 237.391C206.526 246.071 197.177 255.415 196.945 260.051C216.8 260.051 258.393 261.266 279.572 258.381C280.537 253.025 270.079 240.98 270.079 229.086C270.079 227.511 270.143 225.784 270.271 223.93C270.606 218.622 271.387 212.308 272.257 205.833C274.618 188.464 277.761 169.888 275.44 166.035C270.893 158.53 260.259 153.43 254.987 151.24C253.176 150.488 251.995 150.081 251.907 150.033C245.294 161.335 231.837 170.975 226.756 170.543C225.344 170.431 221.156 168.969 218.388 155.004C217.311 155.62 216.234 156.187 215.165 156.739C209.908 159.481 204.978 161.743 203.558 165.268C199.809 174.548 196.132 197.944 196.945 206.265C197.767 214.658 201.133 221.068 203.495 229.493C204.045 231.468 204.548 233.562 204.954 235.816C205.058 236.319 205.138 236.847 205.218 237.391Z" fill="#FFC73C"/>
<path d="M196.945 260.051C216.8 260.051 258.393 261.266 279.572 258.381C280.537 253.025 270.079 240.98 270.079 229.086C270.079 227.511 270.143 225.784 270.271 223.93C270.606 218.623 271.387 212.308 272.257 205.833C268.5 209.806 263.019 193.02 260.594 197.936C247.472 224.474 237.126 231.452 219.146 231.452C213.785 231.452 208.839 230.708 203.495 229.493C204.045 231.468 204.548 233.562 204.954 235.816C205.05 236.327 205.138 236.855 205.218 237.399C206.526 246.063 197.177 255.407 196.945 260.051Z" fill="#FFBB33"/>
<path d="M215.165 156.739C216.018 162.95 218.547 171.319 225.902 173.525C235.841 176.506 250.224 157.898 254.986 151.24C253.176 150.488 251.995 150.081 251.907 150.033C245.294 161.335 231.837 170.975 226.756 170.543C225.344 170.431 221.156 168.969 218.388 155.004C217.311 155.612 216.234 156.179 215.165 156.739Z" fill="#FCE172"/>
<path d="M211.081 250.707L211.152 257.637L87.508 258.373L87.2527 250.515L211.081 250.707Z" fill="#325F73"/>
<path d="M33.918 188.88L36.6701 186.082L126.731 185.491L171.913 250.963L169.552 252.865L33.918 188.88Z" fill="#325F73"/>
<path d="M124.992 187.913L169.552 252.865L84.4366 253.289L33.9179 188.88L124.992 187.913Z" fill="#0B2D50"/>
<path d="M103.486 229.373C98.0143 229.373 93.5786 227.151 93.5786 224.41C93.5786 221.668 98.0143 219.446 103.486 219.446C108.958 219.446 113.394 221.668 113.394 224.41C113.394 227.151 108.958 229.373 103.486 229.373Z" fill="#3C738C"/>
<path d="M191.257 127.152C189.854 119.605 192.743 112.734 197.711 111.807C202.679 110.879 207.844 116.245 209.247 123.792C210.651 131.34 207.761 138.21 202.794 139.137C197.826 140.065 192.661 134.699 191.257 127.152Z" fill="#ADB2F8"/>
<path d="M191.25 103.464C192.175 110.035 195.103 117.276 199.371 125.278C200.87 118.723 201.827 110.738 203.152 102.753C204.5 94.7516 206.215 86.7504 209.19 80.2119C209.86 78.7652 210.586 77.3823 211.376 76.1034C209.613 75.9356 207.826 76.1034 206.127 76.575C203.471 77.2864 200.982 78.6613 198.948 80.4997C195.565 83.5131 193.3 87.6217 191.952 91.954C190.843 95.5509 190.644 99.3717 191.25 103.464Z" fill="#0B2D50"/>
<path d="M196.26 110.258C196.307 111.553 196.395 112.872 196.515 114.183C198.334 135.445 207.244 150.033 220.877 150.033C240.125 150.033 252.602 128.403 252.602 107.213C252.602 86.3107 239.822 71.1796 224.865 72.9301C216.242 73.9212 209.94 76.7908 205.465 80.9952C202.506 83.7929 200.368 87.174 198.908 91.0187C197.241 95.3271 196.435 100.203 196.268 105.454C196.268 105.47 196.252 105.486 196.252 105.502C196.188 107.053 196.204 108.636 196.26 110.258Z" fill="#F9A07B"/>
<path d="M196.26 110.258C196.834 108.204 197.688 106.198 198.852 104.399C210.204 110.346 223.733 112.64 236.56 110.466C239.001 112.504 241.386 114.511 243.787 116.517C243.739 106.845 243.604 100.299 239.838 95.6148C236.305 91.2185 230.41 89.5639 224.826 88.8446C218.54 88.0213 212.15 88.0532 205.88 88.9645C203.479 89.3002 200.99 89.8197 198.9 91.0347C197.233 95.343 196.427 100.219 196.26 105.47C196.26 105.486 196.244 105.502 196.244 105.518C196.188 107.053 196.204 108.636 196.26 110.258Z" fill="#E06A58"/>
<path d="M193.484 97.1655C196.124 99.4036 199.434 101.258 203.152 102.761C213.729 107.037 227.474 108.452 238.187 107.932C243.452 119.523 245.582 123.679 246.93 133.79C252.075 128.955 256.263 120.098 257.507 113.136C258.736 106.198 258.616 98.9161 256.686 92.0978C253.646 81.347 245.981 75.5918 240.668 72.7942C239.344 72.0668 238.147 71.5633 237.222 71.1956C230.433 68.5658 222.783 68.8056 215.819 70.9398C212.022 72.1228 208.823 74.1211 206.135 76.583C200.703 81.4988 197.344 88.1572 195.175 93.1449C194.489 94.6717 193.938 96.0545 193.484 97.1655Z" fill="#0B2D50"/>
<path d="M191.25 103.464C191.689 101.138 192.343 98.8841 193.268 96.7099C193.787 95.479 194.425 94.288 195.167 93.137C197.584 89.3322 201.102 86.1988 205.353 84.816C206.566 83.1135 207.842 81.5788 209.182 80.2199C214.008 75.3041 219.672 72.4905 225.671 71.5073C230.665 70.7 235.858 71.1556 240.652 72.7862C239.328 72.0588 238.131 71.5553 237.206 71.1876C230.417 68.5578 222.767 68.7976 215.803 70.9318C212.006 72.1148 208.807 74.1131 206.119 76.575C203.463 77.2864 200.974 78.6612 198.94 80.4997C195.558 83.5131 193.292 87.6216 191.944 91.954C190.843 95.5509 190.644 99.3717 191.25 103.464Z" fill="#225570"/>
<path d="M232.053 116.501C228.495 114.463 224.802 113.544 219.624 115.438" stroke="#0B2D50" stroke-width="2" stroke-miterlimit="10" stroke-linecap="round"/>
<path d="M207.691 116.357C204.644 114.079 200.129 113.847 197.775 116.357" stroke="#0B2D50" stroke-width="2" stroke-miterlimit="10" stroke-linecap="round"/>
<path d="M211.368 127.979C211.057 129.594 211.224 133.167 211.99 134.774" stroke="#CC454E" stroke-width="2" stroke-miterlimit="10" stroke-linecap="round"/>
<path d="M223.39 129.066C222.579 129.066 221.922 128.029 221.922 126.748C221.922 125.468 222.579 124.43 223.39 124.43C224.2 124.43 224.857 125.468 224.857 126.748C224.857 128.029 224.2 129.066 223.39 129.066Z" fill="#262D40"/>
<path d="M204.205 127.987C203.394 127.987 202.737 126.95 202.737 125.669C202.737 124.389 203.394 123.351 204.205 123.351C205.015 123.351 205.672 124.389 205.672 125.669C205.672 126.95 205.015 127.987 204.205 127.987Z" fill="#262D40"/>
<path d="M213.187 137.931C213.187 137.931 213.474 138.49 214.025 139.25C214.886 140.409 216.354 142.008 218.356 142.631H218.364C219.21 142.903 220.127 142.999 221.148 142.815C224.148 142.279 224.937 139.506 225.081 137.371C225.113 136.956 225.113 136.572 225.105 136.22C225.089 135.357 224.993 134.782 224.993 134.782C220.215 137.419 213.187 137.931 213.187 137.931Z" fill="#CC454E"/>
<path d="M213.186 137.931C213.186 137.931 213.473 138.49 214.023 139.25C216.464 139.218 221.458 137.963 225.104 136.22C225.088 135.357 224.992 134.782 224.992 134.782C220.214 137.419 213.186 137.931 213.186 137.931Z" fill="white"/>
<path d="M218.364 142.623C219.21 142.895 220.127 142.991 221.148 142.807C224.148 142.271 224.937 139.498 225.081 137.363C223.629 137.539 222.225 138.099 221.061 138.986C219.84 139.921 218.907 141.192 218.364 142.623Z" fill="#E8729B"/>
<path d="M246.882 112.832C246.882 112.832 247.05 102.865 242.91 92.9611C237.716 80.5316 227.131 75.2161 216.864 74.8565C204.492 74.4168 196.746 82.7378 196.746 82.7378C196.746 82.7378 200.775 75.6158 208.72 73.5695C213.937 72.2267 221.81 72.0109 228.128 74.5847C234.637 77.2304 242.75 84.5762 245.686 92.3376C248.613 100.099 250.041 112.185 250.041 112.185L246.882 112.832Z" fill="#666FDE"/>
<path d="M247.091 138.783C241.794 138.231 238.176 131.263 239.01 123.219C239.845 115.175 244.816 109.102 250.113 109.654C255.411 110.206 259.029 117.174 258.194 125.218C257.36 133.261 252.389 139.335 247.091 138.783Z" fill="#ADB2F8"/>
<path d="M249.529 136.203C246.109 135.688 244.069 130.383 244.973 124.354C245.877 118.325 249.383 113.855 252.803 114.37C256.223 114.885 258.262 120.19 257.358 126.219C256.454 132.248 252.949 136.717 249.529 136.203Z" fill="#666FDE"/>
<path d="M216.785 150.328C213.947 150.328 211.647 148.893 211.647 147.123C211.647 145.353 213.947 143.918 216.785 143.918C219.622 143.918 221.922 145.353 221.922 147.123C221.922 148.893 219.622 150.328 216.785 150.328Z" fill="#343EB8"/>
<path d="M242.59 136.404C242.59 136.404 235.044 146.124 221.922 147.123" stroke="#343EB8" stroke-width="2" stroke-miterlimit="10" stroke-linecap="round"/>
<path d="M211.153 232.204L211.647 244.985C211.647 244.985 257.779 258.838 265.397 254.457C269.114 252.315 272.584 240.533 275.177 229.031C277.889 216.945 279.628 205.179 279.628 205.179L252.586 199.872C252.586 199.872 252.57 216.394 251.652 225.945C251.325 229.502 250.855 232.092 250.224 232.516C247.839 234.091 211.153 232.204 211.153 232.204Z" fill="#F9A07B"/>
<path d="M251.652 225.928C256.566 227.527 266.051 229.997 275.177 229.022C277.889 216.936 279.628 205.17 279.628 205.17L252.586 199.862C252.586 199.854 252.57 216.376 251.652 225.928Z" fill="#E06A58"/>
<path d="M212.469 232.331C205.609 230.86 193.994 227.327 189.176 226.112C185.754 225.249 176.843 229.869 174.49 234.225C173.461 236.128 172.488 246.902 176.054 245.791C177.84 245.232 177.545 240.612 178.104 238.725C178.558 237.191 180.01 235.704 182.22 234.425C180.744 238.11 180.8 241.323 180.96 245.304C180.991 246.183 181.047 247.102 181.47 247.862C181.901 248.621 182.826 249.165 183.624 248.829C184.437 248.493 184.717 247.478 184.9 246.591C185.53 243.521 186.169 240.452 186.424 236.983C186.36 240.396 186.432 243.817 186.647 247.222C186.807 249.828 188.099 251.259 189.686 250.803C190.396 250.603 190.684 249.948 190.987 249.085C191.465 250.755 192.662 252.602 194.209 251.898C195.151 251.475 195.733 248.069 195.565 244.568C198.533 246.415 201.883 247.198 205.744 247.374C209.206 247.534 212.748 246.887 214.83 244.529C214.623 240.844 213.41 235.392 212.469 232.331Z" fill="#F9A07B"/>
<path d="M190.915 248.557C190.684 245.791 190.923 242.986 191.625 240.316" stroke="#CC454E" stroke-miterlimit="10" stroke-linecap="round"/>
<path d="M255.625 173.061C257.587 167.522 264.774 156.187 264.774 156.187C264.774 156.187 275.743 160.76 279.636 168.521C286.225 181.662 282.874 219.39 282.874 219.39C273.996 223.115 256.175 223.171 248.589 222.099C248.589 222.099 251.692 184.132 255.625 173.061Z" fill="#FFC73C"/>
<path d="M254.229 175.379C251.237 189.727 249.634 203.108 249.123 216.217" stroke="#F2AE30" stroke-miterlimit="10" stroke-linecap="round"/>
<path d="M19.4641 256.095H333.983V264H19.4641V256.095Z" fill="#0B2D50"/>
</svg>
