<svg fill="#ffffff" viewBox="0 0 152 152" xmlns="http://www.w3.org/2000/svg"><g id="Layer_2" data-name="Layer 2"><g id="Color"><g id="_46.Odnoklassniki" data-name="46.Odnoklassniki"><circle cx="76" cy="56.18" r="10.06" transform="matrix(.987 -.16 .16 .987 -8.02 12.9)"/><path d="m76 0a76 76 0 1 0 76 76 76 76 0 0 0 -76-76zm0 36a20.18 20.18 0 1 1 -20.18 20.18 20.17 20.17 0 0 1 20.18-20.18zm27.12 52.78a60.93 60.93 0 0 1 -14.33 5.87l9.72 9.72a6.81 6.81 0 0 1 0 9.63 6.81 6.81 0 0 1 -9.63 0l-12.88-12.88-12.88 12.88a6.81 6.81 0 0 1 -9.63 0 6.81 6.81 0 0 1 0-9.63l9.72-9.72a60.93 60.93 0 0 1 -14.33-5.87 6.85 6.85 0 0 1 6.7-12c13.74 7.7 27.1 7.7 40.84 0a6.85 6.85 0 0 1 6.7 12z"/></g></g></g></svg>