<svg fill="#ffffff" viewBox="0 0 152 152" xmlns="http://www.w3.org/2000/svg"><g id="Layer_2" data-name="Layer 2"><g id="Color"><path id="_14.Pinterest" d="m76 0a76 76 0 1 0 76 76 76 76 0 0 0 -76-76zm40 77.17c-.6 21-18.6 38.61-39.58 38.81a40.1 40.1 0 0 1 -10.23-1.23 1.12 1.12 0 0 1 -.72-1.63 37.22 37.22 0 0 0 3.27-7.66c.35-1.34 1.43-5.46 2.1-8a1.05 1.05 0 0 1 1.73-.46 12.56 12.56 0 0 0 8.52 3.26c12.81 0 22-11.79 22-26.44 0-14-11.46-24.54-26.2-24.54-18.29-.02-28.03 12.29-28.03 25.72 0 6.23 3.32 14 8.63 16.46.8.37 1.23.21 1.42-.57.14-.59.86-3.48 1.18-4.82a1.28 1.28 0 0 0 -.3-1.22 16.55 16.55 0 0 1 -3.16-9.69c0-9.38 7.1-18.45 19.19-18.45 10.44 0 17.75 7.12 17.75 17.29 0 11.5-5.8 19.46-13.36 19.46a6.17 6.17 0 0 1 -6.29-7.68c1.2-5.05 3.52-10.5 3.52-14.15 0-3.26-1.75-6-5.38-6-4.26 0-7.69 4.37-7.69 10.37a16.6 16.6 0 0 0 .29 3.1 19.76 19.76 0 0 1 -.2 8.21c-1.31 5.53-3.29 13.95-3.8 16.12a30.1 30.1 0 0 0 -.5 7.53 1.13 1.13 0 0 1 -1.62 1.04 40 40 0 1 1 57.46-34.83z" data-name="14.Pinterest"/></g></g></svg>