<svg fill="#ffffff" viewBox="0 0 152 152" xmlns="http://www.w3.org/2000/svg"><g id="Layer_2" data-name="Layer 2"><g id="Color"><g id="_13.Skype" data-name="13.Skype"><path d="m69.46 67.31c-6.06-3-2.67-9.1 5.93-9.1 11.87 0 8 9.62 15.35 9.62 6.12 0 8.16-7.78.59-13.64-8.21-6.32-27.28-5.81-33.78 2.56a12.54 12.54 0 0 0 -.13 15.13c7 8.63 22.26 6.67 27.6 11.6 2 1.87 2.36 5.77-1.35 8.25s-10.21 2.39-13.21 1c-6.55-3.08-4.5-10.64-11-10.64-8.6 0-6.83 12 3.14 17.29 7 3.66 18.55 3.64 25.57.75 6.35-2.58 10.42-7.53 10.43-14.13 0-16-20.92-14.61-29.14-18.69z"/><path d="m76 0a76 76 0 1 0 76 76 76 76 0 0 0 -76-76zm7.36 113.34c-26.73 4.85-49.71-18.44-44.36-44.51a21.5 21.5 0 0 1 -3-11c0-17.29 19.34-27.47 33.87-18.46 26.76-4.53 49.54 19.09 43.75 45.11 9.53 18.92-11.36 38.85-30.26 28.86z"/></g></g></g></svg>