<svg fill="#ffffff" viewBox="0 0 152 152" xmlns="http://www.w3.org/2000/svg"><g id="Layer_2" data-name="Layer 2"><g id="Color"><g id="_12.Viber" data-name="12.Viber"><path d="m91.42 68.33a1.35 1.35 0 0 0 1.47-1.18 12.23 12.23 0 0 0 .11-1.48 13.35 13.35 0 0 0 -13.36-13.33 12.23 12.23 0 0 0 -1.48.08 1.33 1.33 0 1 0 .29 2.65 9.39 9.39 0 0 1 1.19-.07 10.69 10.69 0 0 1 10.67 10.67 11.7 11.7 0 0 1 -.07 1.19 1.35 1.35 0 0 0 1.18 1.47z"/><path d="m79.64 57.67a1.34 1.34 0 1 0 0 2.67 5.33 5.33 0 0 1 5.36 5.33 1.34 1.34 0 0 0 2.67 0 8 8 0 0 0 -8.03-8z"/><path d="m88.71 76.83a3.92 3.92 0 0 0 -6.55 1.4 4 4 0 0 1 -4.67 2.48c-4.2-1.1-9.83-6.65-10.84-11.09a3.82 3.82 0 0 1 2.58-4.62 3.93 3.93 0 0 0 1.55-6.52l-5.84-6a4.21 4.21 0 0 0 -5.69-.06l-4 4c-4.05 4.17.25 15.39 10 25.41s20.92 14.77 25.18 10.6l4-4a4.2 4.2 0 0 0 .06-5.69z"/><path d="m76 0a76 76 0 1 0 76 76 76 76 0 0 0 -76-76zm36 76a28 28 0 0 1 -28 28h-14.11l-11.62 11.62a1.34 1.34 0 0 1 -2.27-.94v-13.37a28 28 0 0 1 -16-25.31v-12a28 28 0 0 1 28-28h16a28 28 0 0 1 28 28z"/><path d="m79.64 47q-.72 0-1.44.06a1.33 1.33 0 0 0 .2 2.66h1.24a16 16 0 0 1 16 16 15.71 15.71 0 0 1 -.43 3.69 1.34 1.34 0 1 0 2.6.62 18.94 18.94 0 0 0 .5-4.31 18.7 18.7 0 0 0 -18.67-18.72z"/></g></g></g></svg>