<svg fill="#ffffff" viewBox="0 0 152 152" xmlns="http://www.w3.org/2000/svg"><g id="Layer_2" data-name="Layer 2"><g id="Color"><path id="_45.Vimeo" d="m76 0a76 76 0 1 0 76 76 76 76 0 0 0 -76-76zm47.47 54.82c-.41 9-6.8 21.27-18.73 36.79-13.18 17.15-23.37 24.39-31.92 24.39-8.18 0-16.15-22.92-21.39-42.14-2.76-9.86-5.07-14.05-7.73-13.92-2.45.13-5.7 2.44-9.13 4.88l-.11.08a2.52 2.52 0 0 1 -3.46-.51l-2-2.55a2.53 2.53 0 0 1 .35-3.47c.43-.36 1-.84 1.63-1.41 10.62-9.22 23.55-19.81 29.35-19.81 7.61 0 8.78 4.16 11.12 12.45.23.79 8.38 37 10.64 37 .68 0 3-3 7.32-9.74 3.52-5.52 6.35-10.73 6.9-12.68.66-2.31.54-4.08-.36-5.26-1.14-1.58-3.48-1.92-5.23-1.92a15 15 0 0 0 -4 .57 1.94 1.94 0 0 1 -2.33-2.54c4.76-13 13.27-19.43 25.32-19 4.27.12 7.6 1.44 9.9 3.92 2.86 3.1 4.17 8.11 3.86 14.87z" data-name="45.Vimeo"/></g></g></svg>