<svg fill="#ffffff" id="Capa_1" enable-background="new 0 0 512 512" viewBox="0 0 512 512" xmlns="http://www.w3.org/2000/svg"><g id="Layer_2"><g id="Color"><path id="_47.VK" d="m256 0c-141.385 0-256 114.615-256 256s114.615 256 256 256 256-114.615 256-256-114.615-256-256-256zm150.232 349.541-44.16.606s-9.499 1.886-21.962-6.737c-16.539-11.352-32.101-40.825-44.227-37.053s-11.924 30.316-11.924 30.316c.039 3.113-.917 6.158-2.728 8.691-2.549 2.184-5.693 3.556-9.027 3.941h-19.571s-43.789 2.594-82.021-37.356c-42.038-43.385-79.057-130.055-79.057-130.055s-2.18-5.027.202-8.421c2.059-2.934 7.137-3.249 9.701-3.368 11.053-.517 44.261-.303 44.261-.303 2.778-.069 4.645.077 8.084 1.583 2.956 1.461 5.198 3.637 6.636 7.141 5.109 12.722 11.039 25.099 17.752 37.053 19.739 34.122 28.935 41.566 35.638 37.928 9.735-5.322 6.737-48.202 6.737-48.202s0-15.596-4.918-22.501c-3.702-4.325-8.923-7.062-14.585-7.646-2.661-.371 1.718-6.535 7.377-9.297 8.488-4.177 23.512-4.177 41.229-4.177 7.797-.294 15.597.5 23.175 2.358 16.303 3.941 10.779 19.099 10.779 55.545 0 11.655-2.122 28.093 6.299 33.684 3.638 2.324 12.463.337 34.627-37.255 7.071-12.44 13.207-25.387 18.358-38.737.992-2.122 2.497-3.962 4.379-5.356 1.99-.991 4.227-1.377 6.434-1.112l49.718-.337s14.922-1.785 17.347 4.985c2.425 6.771-5.592 23.579-25.903 50.526-33.347 44.463-37.053 40.421-9.364 65.987 26.442 24.556 31.933 36.514 32.842 37.996 10.979 18.125-12.128 19.573-12.128 19.573z"/></g></g></svg>