<svg fill="#ffffff" viewBox="0 0 152 152" xmlns="http://www.w3.org/2000/svg"><g id="Layer_2" data-name="Layer 2"><g id="Color"><g id="_08.Whatsapp" data-name="08.Whatsapp"><path d="m91 80.24a4.18 4.18 0 0 0 -7 1.57 4.27 4.27 0 0 1 -4.93 2.69c-4.49-1.12-10.54-7-11.66-11.65a4.07 4.07 0 0 1 2.69-4.94 4.17 4.17 0 0 0 1.61-6.91l-6.28-6.28a4.47 4.47 0 0 0 -6.05 0l-4.26 4.28c-4.26 4.48.45 16.36 11 26.9s22.41 15.46 26.89 11l4.26-4.26a4.47 4.47 0 0 0 0-6z"/><path d="m76 0a76 76 0 1 0 76 76 76 76 0 0 0 -76-76zm0 116a39.67 39.67 0 0 1 -22-6.61l-15.37 4.92 5-14.86a40 40 0 0 1 32.37-63.45 40 40 0 0 1 0 80z"/></g></g></g></svg>